<?xml version="1.0" encoding="UTF-8"?>
<svg id="Layer_1" xmlns="http://www.w3.org/2000/svg" version="1.1" viewBox="0 0 502.16 546.9">
  <!-- Generator: Adobe Illustrator 29.1.0, SVG Export Plug-In . SVG Version: 2.1.0 Build 142)  -->
  <defs>
    <style>
      .st0 {
        fill: #bd5038;
      }
    </style>
  </defs>
  <g>
    <path class="st0" d="M374.6,546.9h-246.15c-20.98,0-38.05-17.07-38.05-38.05V252.05h21.48v256.8c0,9.14,7.43,16.57,16.57,16.57h246.15c9.14,0,16.57-7.43,16.57-16.57V252.05h21.48v256.8c0,20.98-17.07,38.05-38.05,38.05Z"/>
    <path class="st0" d="M99.43,521.88h-63.25c-19.95,0-36.18-16.23-36.18-36.18v-73.72c0-37.88,29.57-69.68,67.32-72.39l1.54,21.43c-26.56,1.91-47.37,24.29-47.37,50.96v73.72c0,8.11,6.59,14.7,14.7,14.7h63.25v21.48Z"/>
    <path class="st0" d="M502.16,411.44h-21.48c0-27.87-22.67-50.55-50.55-50.55h-27.4v-21.48h27.4c39.72,0,72.03,32.31,72.03,72.03Z"/>
    <path class="st0" d="M466.2,521.88h-32.36v-21.48h32.36c7.98,0,14.47-6.49,14.47-14.47v-80.36h21.48v80.36c0,19.83-16.13,35.96-35.96,35.96Z"/>
    <path class="st0" d="M491.42,475.75h-28.31c-20.4,0-37-16.6-37-37v-2.06c0-20.4,16.6-37,37-37v21.48c-8.56,0-15.52,6.96-15.52,15.51v2.06c0,8.55,6.96,15.51,15.52,15.51h28.31v21.48Z"/>
    <path class="st0" d="M41.83,475.75v-21.48c8.56,0,15.52-6.96,15.52-15.51v-2.06c0-8.55-6.96-15.51-15.52-15.51H13.52v-21.48h28.31c20.4,0,37,16.6,37,37v2.06c0,20.4-16.6,37-37,37Z"/>
    <path class="st0" d="M342.03,242.09h-187.78c-48.08,0-87.2-39.12-87.2-87.2v-8.81c0-28.68,23.34-52.02,52.02-52.02h258.14c28.68,0,52.02,23.34,52.02,52.02v8.81c0,48.08-39.12,87.2-87.2,87.2ZM119.07,115.54c-16.84,0-30.54,13.7-30.54,30.54v8.81c0,36.24,29.48,65.72,65.72,65.72h187.78c36.24,0,65.72-29.48,65.72-65.72v-8.81c0-16.84-13.7-30.54-30.54-30.54H119.07Z"/>
    <path class="st0" d="M156.67,535.54h-21.48v-158.46c0-11.46,9.32-20.78,20.78-20.78h189.2c11.46,0,20.78,9.32,20.78,20.78v134.06h-21.48v-133.36h-187.81v157.76Z"/>
    <path class="st0" d="M309.37,448.36h-117.59c-31.2,0-56.59-25.39-56.59-56.59h21.48c0,19.36,15.75,35.11,35.11,35.11h117.59c19.36,0,35.11-15.75,35.11-35.11h21.48c0,31.2-25.39,56.59-56.59,56.59Z"/>
    <path class="st0" d="M317.42,104.8h-21.48v-9.63c0-25-20.34-45.34-45.34-45.34h-4.92c-25,0-45.34,20.34-45.34,45.34v9.63h-21.48v-9.63c0-36.85,29.98-66.82,66.82-66.82h4.92c36.85,0,66.82,29.97,66.82,66.82v9.63Z"/>
    <path class="st0" d="M349.72,109.68l-19.14-9.75,44.56-87.44c2.78-5.45,7.51-9.49,13.32-11.36,5.8-1.87,11.98-1.38,17.4,1.4l4.64,2.37c14.54,7.41,23.45,22.16,23.26,38.48-.08,6.53-1.69,13.05-4.65,18.85l-11.77,23.1-19.14-9.75,11.77-23.1c1.47-2.88,2.27-6.12,2.31-9.35.09-8.1-4.33-15.41-11.54-19.09l-4.66-2.38c-.34-.17-.67-.2-1.01-.09-.35.12-.62.34-.79.68l-44.56,87.43Z"/>
    <path class="st0" d="M150,109.68L105.44,22.24c-.17-.34-.44-.56-.79-.68-.34-.11-.68-.08-1,.08l-4.67,2.38c-7.22,3.68-11.64,10.99-11.54,19.09.04,3.24.84,6.47,2.3,9.35l11.77,23.11-19.14,9.75-11.77-23.1c-2.96-5.8-4.57-12.32-4.64-18.85-.19-16.32,8.72-31.07,23.26-38.48l4.65-2.37c5.4-2.77,11.59-3.27,17.39-1.39,5.81,1.88,10.54,5.91,13.32,11.36l44.56,87.44-19.14,9.75Z"/>
  </g>
  <path class="st0" d="M329.34,334.26h-154.39c-11.89,0-21.56-9.67-21.56-21.56v-36.12c0-11.89,9.67-21.56,21.56-21.56h154.39c11.89,0,21.56,9.67,21.56,21.56v36.12c0,11.89-9.67,21.56-21.56,21.56ZM174.95,276.5l-.07,36.2,154.46.07s.02,0,.03,0l.05-36.19-154.46-.07Z"/>
</svg>