<?xml version="1.0" encoding="UTF-8"?>
<svg id="Layer_1" xmlns="http://www.w3.org/2000/svg" xmlns:xlink="http://www.w3.org/1999/xlink" version="1.1" viewBox="0 0 104.95 522.37">
  <!-- Generator: Adobe Illustrator 29.1.0, SVG Export Plug-In . SVG Version: 2.1.0 Build 142)  -->
  <defs>
    <style>
      .st0, .st1 {
        fill: none;
      }

      .st2 {
        fill: #556c4a;
        stroke-width: .25px;
      }

      .st2, .st1 {
        stroke: #556c4a;
        stroke-miterlimit: 10;
      }

      .st3 {
        clip-path: url(#clippath-1);
      }

      .st4 {
        fill: #fff;
      }

      .st5 {
        opacity: .1;
      }

      .st1 {
        stroke-width: 2px;
      }

      .st6 {
        clip-path: url(#clippath);
      }
    </style>
    <clipPath id="clippath">
      <polygon class="st0" points="2029 853.82 699.01 856 699.01 1598.54 2029 1583.49 2029 853.82"/>
    </clipPath>
    <clipPath id="clippath-1">
      <polygon class="st0" points="696.82 853.82 -516.11 856 -516.1 1598.54 696.82 1583.49 696.82 853.82"/>
    </clipPath>
  </defs>
  <g class="st6">
    <g class="st5">
      <g>
        <g>
          <path class="st4" d="M73.06,555.72h1.28s1.28,0,1.28,0h1.28s1.28,0,1.28,0h1.28s1.28,0,1.28,0h1.28s1.28,0,1.28,0c0-2.38.23-4.7.66-6.95.43-2.25,1.07-4.41,1.9-6.48.82-2.06,1.83-4.03,3-5.87,1.17-1.84,2.5-3.55,3.97-5.11,1.47-1.56,3.08-2.98,4.81-4.22,1.73-1.24,3.57-2.31,5.52-3.19s3.98-1.55,6.09-2.02c2.11-.46,4.3-.7,6.54-.7v-1.36s0-1.36,0-1.36v-1.36s0-1.36,0-1.36v-1.36s0-1.36,0-1.36v-1.36s0-1.36,0-1.36c-2.03,0-4.03.15-5.98.44-1.95.29-3.87.73-5.73,1.29-1.86.56-3.67,1.26-5.42,2.08-1.75.82-3.44,1.75-5.05,2.8s-3.16,2.21-4.63,3.47c-1.47,1.26-2.86,2.62-4.15,4.08-1.3,1.45-2.51,3-3.62,4.62-1.11,1.62-2.12,3.33-3.03,5.11-.9-1.78-1.92-3.48-3.03-5.11-1.11-1.62-2.32-3.17-3.62-4.62-1.3-1.45-2.69-2.81-4.15-4.08-1.47-1.26-3.01-2.42-4.63-3.47-1.62-1.05-3.31-1.99-5.05-2.8-1.75-.82-3.56-1.51-5.42-2.08-1.86-.56-3.77-1-5.73-1.29-1.95-.29-3.95-.44-5.98-.44v1.36s0,1.36,0,1.36v1.36s0,1.36,0,1.36v1.36s0,1.36,0,1.36v1.36s0,1.36,0,1.36c2.24,0,4.43.24,6.54.7,2.11.46,4.15,1.14,6.09,2.02,1.94.88,3.79,1.95,5.52,3.19,1.73,1.24,3.34,2.66,4.81,4.22,1.47,1.56,2.8,3.28,3.97,5.11,1.17,1.84,2.18,3.8,3,5.87.82,2.06,1.46,4.23,1.9,6.48.43,2.25.66,4.57.66,6.95Z"/>
          <path class="st4" d="M-2.17,555.72H-.88s1.28,0,1.28,0h1.28s1.28,0,1.28,0h1.28s1.28,0,1.28,0h1.28s1.28,0,1.28,0c0-2.38.23-4.7.66-6.95.43-2.25,1.07-4.41,1.9-6.48.82-2.06,1.83-4.03,3-5.87,1.17-1.84,2.5-3.55,3.97-5.11,1.47-1.56,3.08-2.98,4.81-4.22,1.73-1.24,3.57-2.31,5.52-3.19,1.94-.88,3.98-1.55,6.09-2.02s4.3-.7,6.54-.7v-1.36s0-1.36,0-1.36v-1.36s0-1.36,0-1.36v-1.36s0-1.36,0-1.36v-1.36s0-1.36,0-1.36c-2.03,0-4.03.15-5.98.44-1.95.29-3.87.73-5.73,1.29-1.86.56-3.67,1.26-5.42,2.08-1.75.82-3.44,1.75-5.05,2.8-1.62,1.05-3.16,2.21-4.63,3.47-1.47,1.26-2.86,2.62-4.15,4.08-1.3,1.45-2.51,3-3.62,4.62-1.11,1.62-2.12,3.33-3.03,5.11-.9-1.78-1.92-3.48-3.03-5.11-1.11-1.62-2.32-3.17-3.62-4.62-1.3-1.45-2.69-2.81-4.15-4.08-1.47-1.26-3.01-2.42-4.63-3.47s-3.31-1.99-5.05-2.8c-1.75-.82-3.56-1.51-5.42-2.08-1.86-.56-3.77-1-5.73-1.29-1.95-.29-3.95-.44-5.98-.44v1.36s0,1.36,0,1.36v1.36s0,1.36,0,1.36v1.36s0,1.36,0,1.36v1.36s0,1.36,0,1.36c2.24,0,4.43.24,6.54.7s4.15,1.14,6.09,2.02c1.94.88,3.79,1.95,5.52,3.19,1.73,1.24,3.34,2.66,4.81,4.22,1.47,1.56,2.8,3.28,3.97,5.11,1.17,1.84,2.18,3.8,3,5.87.82,2.06,1.46,4.23,1.9,6.48.43,2.25.66,4.57.66,6.95Z"/>
        </g>
        <g>
          <g>
            <polygon class="st4" points="40.58 322.07 49.98 322.07 59.38 322.07 68.79 322.07 78.19 322.07 87.59 322.07 97 322.07 106.4 322.07 115.8 322.07 115.8 323.58 115.8 325.1 115.8 326.61 115.8 328.13 115.8 329.64 115.8 331.15 115.8 332.67 115.8 334.18 106.4 334.18 97 334.18 87.59 334.18 78.19 334.18 68.79 334.18 59.38 334.18 49.98 334.18 40.58 334.18 40.58 332.67 40.58 331.15 40.58 329.64 40.58 328.13 40.58 326.61 40.58 325.1 40.58 323.58 40.58 322.07"/>
            <path class="st4" d="M73.06,323.75h1.28s1.28,0,1.28,0h1.28s1.28,0,1.28,0h1.28s1.28,0,1.28,0h1.28s1.28,0,1.28,0c0-2.38.23-4.7.66-6.95.43-2.25,1.07-4.41,1.9-6.48.82-2.06,1.83-4.03,3-5.87,1.17-1.84,2.5-3.55,3.97-5.11,1.47-1.56,3.08-2.98,4.81-4.22,1.73-1.24,3.58-2.31,5.52-3.19,1.94-.88,3.98-1.55,6.09-2.02,2.11-.46,4.3-.7,6.54-.7v-1.36s0-1.36,0-1.36v-1.36s0-1.36,0-1.36v-1.36s0-1.36,0-1.36v-1.36s0-1.36,0-1.36c-2.03,0-4.03.15-5.98.44-1.95.29-3.87.73-5.73,1.29-1.86.56-3.67,1.26-5.42,2.08-1.75.82-3.44,1.75-5.05,2.8-1.62,1.05-3.16,2.21-4.63,3.47-1.47,1.26-2.86,2.62-4.15,4.08-1.3,1.45-2.51,3-3.62,4.62-1.11,1.62-2.12,3.33-3.03,5.11-.9-1.78-1.92-3.48-3.03-5.11-1.11-1.62-2.32-3.17-3.62-4.62-1.3-1.45-2.69-2.81-4.15-4.08-1.47-1.26-3.01-2.42-4.63-3.47-1.62-1.05-3.31-1.99-5.05-2.8-1.75-.82-3.56-1.51-5.42-2.08-1.86-.56-3.77-1-5.73-1.29-1.95-.29-3.95-.44-5.98-.44v1.36s0,1.36,0,1.36v1.36s0,1.36,0,1.36v1.36s0,1.36,0,1.36v1.36s0,1.36,0,1.36c2.24,0,4.43.24,6.54.7,2.11.46,4.15,1.14,6.09,2.02,1.94.88,3.79,1.95,5.52,3.19,1.73,1.24,3.34,2.66,4.81,4.22,1.47,1.56,2.8,3.28,3.97,5.11,1.17,1.84,2.18,3.8,3,5.87.82,2.06,1.46,4.23,1.9,6.48.43,2.25.66,4.57.66,6.95Z"/>
            <polygon class="st4" points="115.8 235.9 106.4 235.9 97 235.9 87.59 235.9 78.19 235.9 68.79 235.9 59.38 235.9 49.98 235.9 40.58 235.9 40.58 234.38 40.58 232.87 40.58 231.35 40.58 229.84 40.58 228.33 40.58 226.81 40.58 225.3 40.58 223.78 49.98 223.78 59.38 223.78 68.79 223.78 78.19 223.78 87.59 223.78 97 223.78 106.4 223.78 115.8 223.78 115.8 225.3 115.8 226.81 115.8 228.32 115.8 229.84 115.8 231.35 115.8 232.87 115.8 234.38 115.8 235.9"/>
            <path class="st4" d="M83.32,234.22h-1.28s-1.28,0-1.28,0h-1.28s-1.28,0-1.28,0h-1.28s-1.28,0-1.28,0h-1.28s-1.28,0-1.28,0c0,2.38-.23,4.7-.66,6.95-.43,2.25-1.07,4.41-1.9,6.48-.82,2.06-1.83,4.03-3,5.87-1.17,1.84-2.5,3.55-3.97,5.11-1.47,1.56-3.08,2.98-4.81,4.22-1.73,1.24-3.58,2.31-5.52,3.19-1.94.88-3.98,1.55-6.09,2.02-2.11.46-4.3.7-6.54.7v1.36s0,1.36,0,1.36v1.36s0,1.36,0,1.36v1.36s0,1.36,0,1.36v1.36s0,1.36,0,1.36c2.03,0,4.03-.15,5.98-.44,1.95-.29,3.87-.73,5.73-1.29,1.86-.56,3.67-1.26,5.42-2.08,1.75-.82,3.44-1.75,5.05-2.8,1.62-1.05,3.16-2.21,4.63-3.47,1.47-1.26,2.86-2.62,4.15-4.07,1.3-1.45,2.51-3,3.62-4.62,1.11-1.62,2.12-3.33,3.03-5.1.9,1.78,1.92,3.48,3.03,5.1,1.11,1.62,2.32,3.17,3.62,4.62,1.3,1.45,2.69,2.81,4.15,4.07,1.47,1.26,3.01,2.42,4.63,3.47,1.62,1.05,3.31,1.99,5.05,2.8,1.75.82,3.56,1.51,5.42,2.08,1.86.56,3.77,1,5.73,1.29,1.95.29,3.95.44,5.98.44v-1.36s0-1.36,0-1.36v-1.36s0-1.36,0-1.36v-1.36s0-1.36,0-1.36v-1.36s0-1.36,0-1.36c-2.24,0-4.43-.24-6.54-.7-2.11-.46-4.15-1.14-6.09-2.02-1.94-.88-3.79-1.95-5.52-3.19-1.73-1.24-3.34-2.66-4.81-4.22s-2.8-3.28-3.97-5.11c-1.17-1.84-2.18-3.8-3-5.87-.82-2.06-1.46-4.23-1.9-6.48-.43-2.25-.66-4.57-.66-6.95Z"/>
          </g>
          <g>
            <polygon class="st4" points="-34.65 322.07 -25.25 322.07 -15.85 322.07 -6.44 322.07 2.96 322.07 12.36 322.07 21.77 322.07 31.17 322.07 40.58 322.07 40.58 323.58 40.58 325.1 40.58 326.61 40.58 328.13 40.58 329.64 40.58 331.15 40.58 332.67 40.58 334.18 31.17 334.18 21.77 334.18 12.36 334.18 2.96 334.18 -6.44 334.18 -15.85 334.18 -25.25 334.18 -34.65 334.18 -34.65 332.67 -34.65 331.15 -34.65 329.64 -34.65 328.13 -34.65 326.61 -34.65 325.1 -34.65 323.58 -34.65 322.07"/>
            <path class="st4" d="M-2.17,323.75H-.88s1.28,0,1.28,0h1.28s1.28,0,1.28,0h1.28s1.28,0,1.28,0h1.28s1.28,0,1.28,0c0-2.38.23-4.7.66-6.95.43-2.25,1.07-4.41,1.9-6.48.82-2.06,1.83-4.03,3-5.87,1.17-1.84,2.5-3.55,3.97-5.11,1.47-1.56,3.08-2.98,4.81-4.22,1.73-1.24,3.58-2.31,5.52-3.19,1.94-.88,3.98-1.55,6.09-2.02,2.11-.46,4.3-.7,6.54-.7v-1.36s0-1.36,0-1.36v-1.36s0-1.36,0-1.36v-1.36s0-1.36,0-1.36v-1.36s0-1.36,0-1.36c-2.03,0-4.03.15-5.98.44-1.95.29-3.87.73-5.73,1.29-1.86.56-3.67,1.26-5.42,2.08-1.75.82-3.44,1.75-5.05,2.8-1.62,1.05-3.16,2.21-4.63,3.47-1.47,1.26-2.86,2.62-4.15,4.08-1.3,1.45-2.51,3-3.62,4.62-1.11,1.62-2.12,3.33-3.03,5.11-.9-1.78-1.92-3.48-3.03-5.11-1.11-1.62-2.32-3.17-3.62-4.62-1.3-1.45-2.69-2.81-4.15-4.08-1.47-1.26-3.01-2.42-4.63-3.47-1.62-1.05-3.31-1.99-5.05-2.8-1.75-.82-3.56-1.51-5.42-2.08-1.86-.56-3.77-1-5.73-1.29-1.95-.29-3.95-.44-5.98-.44v1.36s0,1.36,0,1.36v1.36s0,1.36,0,1.36v1.36s0,1.36,0,1.36v1.36s0,1.36,0,1.36c2.24,0,4.43.24,6.54.7,2.11.46,4.15,1.14,6.09,2.02,1.94.88,3.79,1.95,5.52,3.19,1.73,1.24,3.34,2.66,4.81,4.22,1.47,1.56,2.8,3.28,3.97,5.11,1.17,1.84,2.18,3.8,3,5.87.82,2.06,1.46,4.23,1.9,6.48.43,2.25.66,4.57.66,6.95Z"/>
            <polygon class="st4" points="40.58 235.9 31.17 235.9 21.77 235.9 12.36 235.9 2.96 235.9 -6.44 235.9 -15.85 235.9 -25.25 235.9 -34.65 235.9 -34.65 234.38 -34.65 232.87 -34.65 231.35 -34.65 229.84 -34.65 228.33 -34.65 226.81 -34.65 225.3 -34.65 223.78 -25.25 223.78 -15.85 223.78 -6.44 223.78 2.96 223.78 12.36 223.78 21.77 223.78 31.17 223.78 40.58 223.78 40.58 225.3 40.58 226.81 40.58 228.33 40.58 229.84 40.58 231.35 40.58 232.87 40.58 234.38 40.58 235.9"/>
            <path class="st4" d="M8.09,234.22h-1.28s-1.28,0-1.28,0h-1.28s-1.28,0-1.28,0h-1.28s-1.28,0-1.28,0H-.88s-1.28,0-1.28,0c0,2.38-.23,4.7-.66,6.95-.43,2.25-1.07,4.41-1.9,6.48-.82,2.06-1.83,4.03-3,5.87-1.17,1.84-2.5,3.55-3.97,5.11-1.47,1.56-3.08,2.98-4.81,4.22-1.73,1.24-3.58,2.31-5.52,3.19-1.94.88-3.98,1.55-6.09,2.02-2.11.46-4.3.7-6.54.7v1.36s0,1.36,0,1.36v1.36s0,1.36,0,1.36v1.36s0,1.36,0,1.36v1.36s0,1.36,0,1.36c2.03,0,4.03-.15,5.98-.44,1.95-.29,3.87-.73,5.73-1.29,1.86-.56,3.67-1.26,5.42-2.08,1.75-.82,3.44-1.75,5.05-2.8,1.62-1.05,3.16-2.21,4.63-3.47,1.47-1.26,2.86-2.62,4.15-4.07,1.3-1.45,2.51-3,3.62-4.62,1.11-1.62,2.12-3.33,3.03-5.1.9,1.78,1.92,3.48,3.03,5.1,1.11,1.62,2.32,3.17,3.62,4.62,1.3,1.45,2.69,2.81,4.15,4.07,1.47,1.26,3.01,2.42,4.63,3.47,1.62,1.05,3.31,1.99,5.05,2.8,1.75.82,3.56,1.51,5.42,2.08,1.86.56,3.77,1,5.73,1.29,1.95.29,3.95.44,5.98.44v-1.36s0-1.36,0-1.36v-1.36s0-1.36,0-1.36v-1.36s0-1.36,0-1.36v-1.36s0-1.36,0-1.36c-2.24,0-4.43-.24-6.54-.7-2.11-.46-4.15-1.14-6.09-2.02-1.94-.88-3.79-1.95-5.52-3.19-1.73-1.24-3.34-2.66-4.81-4.22-1.47-1.56-2.8-3.28-3.97-5.11-1.17-1.84-2.18-3.8-3-5.87-.82-2.06-1.46-4.23-1.9-6.48-.43-2.25-.66-4.57-.66-6.95Z"/>
          </g>
        </g>
        <g>
          <g>
            <path class="st4" d="M40.58-27.18h1.92s1.92,0,1.92,0h1.92s1.92,0,1.92,0h1.92s1.92,0,1.92,0h1.92s1.92,0,1.92,0c4.25,0,7.98.9,11.17,2.48,3.2,1.58,5.87,3.84,8.01,6.54,2.14,2.71,3.75,5.87,4.84,9.25,1.08,3.39,1.63,7,1.64,10.61.01,3.61-.51,7.22-1.57,10.61-1.06,3.39-2.65,6.54-4.79,9.25-2.14,2.71-4.81,4.96-8.03,6.54-3.22,1.58-6.98,2.48-11.28,2.48h-1.92s-1.92,0-1.92,0h-1.92s-1.92,0-1.92,0h-1.92s-1.92,0-1.92,0h-1.92s-1.92,0-1.92,0v-1.05s0-1.05,0-1.05v-1.05s0-1.05,0-1.05v-1.05s0-1.05,0-1.05v-1.05s0-1.05,0-1.05h1.92s1.92,0,1.92,0h1.92s1.92,0,1.92,0h1.92s1.92,0,1.92,0h1.92s1.92,0,1.92,0c3.06,0,5.73-.64,8.01-1.76,2.28-1.12,4.18-2.72,5.7-4.65,1.51-1.92,2.64-4.17,3.39-6.57s1.12-4.97,1.1-7.53c-.01-2.56-.4-5.13-1.17-7.53-.77-2.4-1.91-4.65-3.43-6.57-1.52-1.92-3.41-3.52-5.68-4.65-2.27-1.12-4.91-1.76-7.92-1.76h-1.92s-1.92,0-1.92,0h-1.92s-1.92,0-1.92,0h-1.92s-1.92,0-1.92,0h-1.92s-1.92,0-1.92,0v-1.05s0-1.05,0-1.05v-1.05s0-1.05,0-1.05v-1.05s0-1.05,0-1.05v-1.05s0-1.05,0-1.05Z"/>
            <path class="st4" d="M115.8-27.18v1.05s0,1.05,0,1.05v1.05s0,1.05,0,1.05v1.05s0,1.05,0,1.05v1.05s0,1.05,0,1.05h-1.92s-1.92,0-1.92,0h-1.92s-1.92,0-1.92,0h-1.92s-1.92,0-1.92,0h-1.92s-1.92,0-1.92,0c-2.03,0-3.95.34-5.71.97-1.77.63-3.38,1.54-4.83,2.67s-2.73,2.49-3.81,4.01c-1.08,1.52-1.97,3.2-2.64,4.98-.67,1.78-1.12,3.67-1.33,5.59-.21,1.92-.18,3.89.12,5.83.3,1.94.86,3.87,1.71,5.71.85,1.84,2,3.61,3.45,5.23,1.01,1.12,2.03,2.04,3.08,2.79,1.04.75,2.11,1.34,3.19,1.79,1.08.45,2.19.78,3.32,1,1.13.23,2.28.35,3.45.42,1.17.07,2.37.07,3.6.04,1.22-.03,2.48-.08,3.75-.12,1.28-.05,2.59-.09,3.92-.08,1.34,0,2.7.05,4.1.16v1.05s0,1.05,0,1.05v1.05s0,1.05,0,1.05v1.05s0,1.05,0,1.05v1.05s0,1.05,0,1.05c-1.3-.14-2.63-.18-3.99-.17-1.36,0-2.74.06-4.13.11-1.4.05-2.81.11-4.24.13-1.43.02-2.86-.01-4.3-.13-1.44-.11-2.88-.31-4.33-.65-1.44-.33-2.88-.8-4.31-1.44-1.43-.64-2.85-1.46-4.26-2.49-1.41-1.04-2.8-2.3-4.17-3.82-1.27-1.41-2.38-2.93-3.33-4.53-.95-1.6-1.74-3.29-2.38-5.02-.63-1.74-1.11-3.53-1.43-5.35-.32-1.82-.48-3.67-.48-5.52s.16-3.7.48-5.52c.32-1.82.79-3.61,1.43-5.35.63-1.74,1.43-3.42,2.38-5.02.95-1.6,2.06-3.12,3.33-4.53,1.36-1.52,2.75-2.77,4.16-3.8,1.41-1.03,2.83-1.85,4.27-2.49,1.44-.64,2.88-1.1,4.33-1.44,1.45-.33,2.9-.54,4.35-.65,1.45-.12,2.89-.15,4.32-.13,1.43.01,2.85.07,4.24.12,1.4.05,2.77.1,4.11.11,1.35,0,2.66-.04,3.94-.17Z"/>
          </g>
          <g>
            <path class="st4" d="M-34.65-27.18h1.92s1.92,0,1.92,0h1.92s1.92,0,1.92,0h1.92s1.92,0,1.92,0h1.92s1.92,0,1.92,0c4.25,0,7.98.9,11.17,2.48,3.2,1.58,5.87,3.84,8.01,6.54,2.14,2.71,3.75,5.87,4.84,9.25,1.08,3.39,1.63,7,1.64,10.61.01,3.61-.51,7.22-1.57,10.61C3.76,15.7,2.17,18.86.03,21.56c-2.14,2.71-4.81,4.96-8.03,6.54-3.22,1.58-6.98,2.48-11.28,2.48h-1.92s-1.92,0-1.92,0h-1.92s-1.92,0-1.92,0h-1.92s-1.92,0-1.92,0h-1.92s-1.92,0-1.92,0v-1.05s0-1.05,0-1.05v-1.05s0-1.05,0-1.05v-1.05s0-1.05,0-1.05v-1.05s0-1.05,0-1.05h1.92s1.92,0,1.92,0h1.92s1.92,0,1.92,0h1.92s1.92,0,1.92,0h1.92s1.92,0,1.92,0c3.06,0,5.73-.64,8.01-1.76,2.28-1.12,4.18-2.72,5.7-4.65,1.51-1.92,2.64-4.17,3.39-6.57.75-2.4,1.12-4.97,1.1-7.53-.01-2.56-.4-5.13-1.17-7.53-.77-2.4-1.91-4.65-3.43-6.57s-3.41-3.52-5.68-4.65c-2.27-1.12-4.91-1.76-7.92-1.76h-1.92s-1.92,0-1.92,0h-1.92s-1.92,0-1.92,0h-1.92s-1.92,0-1.92,0h-1.92s-1.92,0-1.92,0v-1.05s0-1.05,0-1.05v-1.05s0-1.05,0-1.05v-1.05s0-1.05,0-1.05v-1.05s0-1.05,0-1.05Z"/>
            <path class="st4" d="M40.58-27.18v1.05s0,1.05,0,1.05v1.05s0,1.05,0,1.05v1.05s0,1.05,0,1.05v1.05s0,1.05,0,1.05h-1.92s-1.92,0-1.92,0h-1.92s-1.92,0-1.92,0h-1.92s-1.92,0-1.92,0h-1.92s-1.92,0-1.92,0c-2.03,0-3.95.34-5.71.97-1.77.63-3.38,1.54-4.83,2.67-1.45,1.13-2.73,2.49-3.81,4.01-1.08,1.52-1.97,3.2-2.64,4.98-.67,1.78-1.12,3.67-1.33,5.59-.21,1.92-.18,3.89.12,5.83.3,1.94.86,3.87,1.71,5.71.85,1.84,2,3.61,3.45,5.23,1.01,1.12,2.03,2.04,3.08,2.79,1.04.75,2.11,1.34,3.19,1.79,1.08.45,2.19.78,3.32,1,1.13.23,2.28.35,3.45.42,1.17.07,2.37.07,3.6.04,1.22-.03,2.48-.08,3.75-.12,1.28-.05,2.59-.09,3.92-.08,1.34,0,2.7.05,4.1.16v1.05s0,1.05,0,1.05v1.05s0,1.05,0,1.05v1.05s0,1.05,0,1.05v1.05s0,1.05,0,1.05c-1.3-.14-2.63-.18-3.99-.17-1.36,0-2.74.06-4.13.11-1.4.05-2.81.11-4.24.13-1.43.02-2.86-.01-4.3-.13-1.44-.11-2.88-.31-4.33-.65-1.44-.33-2.88-.8-4.31-1.44-1.43-.64-2.85-1.46-4.26-2.49-1.41-1.04-2.8-2.3-4.17-3.82-1.27-1.41-2.38-2.93-3.33-4.53-.95-1.6-1.74-3.29-2.38-5.02C.5,10.83.02,9.04-.3,7.22c-.32-1.82-.48-3.67-.48-5.52,0-1.85.16-3.7.48-5.52C.02-5.63.5-7.43,1.13-9.16c.63-1.74,1.43-3.42,2.38-5.02.95-1.6,2.06-3.12,3.33-4.53,1.36-1.52,2.75-2.77,4.16-3.8,1.41-1.03,2.84-1.85,4.27-2.49,1.44-.64,2.88-1.1,4.33-1.44,1.45-.33,2.9-.54,4.35-.65,1.45-.12,2.89-.15,4.32-.13,1.43.01,2.85.07,4.24.12,1.4.05,2.77.1,4.11.11,1.35,0,2.66-.04,3.94-.17Z"/>
          </g>
        </g>
        <g>
          <g>
            <path class="st4" d="M79.83,450.92l3.05,3.38,3.05,3.38,3.05,3.38,3.05,3.38,3.05,3.38,3.05,3.38,3.05,3.38,3.05,3.38,3.05-3.38,3.05-3.38,3.05-3.38,3.05-3.38,3.05-3.38,3.05-3.38,3.05-3.38,3.05-3.38-3.05-3.38-3.05-3.38-3.05-3.38-3.05-3.38-3.05-3.38-3.05-3.38-3.05-3.38-3.05-3.38-3.05,3.38-3.05,3.38-3.05,3.38-3.05,3.38-3.05,3.38-3.05,3.38-3.05,3.38-3.05,3.38ZM104.23,468.8l-2.01-2.24-2.01-2.24-2.01-2.24-2.01-2.24-2.01-2.24-2.01-2.24-2.01-2.24-2.01-2.24,2.01-2.23,2.01-2.23,2.01-2.23,2.01-2.23,2.01-2.23,2.01-2.23,2.01-2.23,2.01-2.23,2.01,2.23,2.01,2.23,2.01,2.23,2.01,2.23,2.01,2.23,2.01,2.23,2.01,2.23,2.01,2.23-2.01,2.24-2.01,2.24-2.01,2.24-2.01,2.24-2.01,2.24-2.01,2.24-2.01,2.24-2.01,2.24Z"/>
            <path class="st4" d="M63.72,433.04l2.01,2.23,2.01,2.23,2.01,2.23,2.01,2.23,2.01,2.23,2.01,2.23,2.01,2.23,2.01,2.23-2.01,2.24-2.01,2.24-2.01,2.24-2.01,2.24-2.01,2.24-2.01,2.24-2.01,2.24-2.01,2.24v1.15s0,1.15,0,1.15v1.15s0,1.15,0,1.15v1.15s0,1.15,0,1.15v1.15s0,1.15,0,1.15l3.05-3.38,3.05-3.38,3.05-3.38,3.05-3.38,3.05-3.38,3.05-3.38,3.05-3.38,3.05-3.38-3.05-3.38-3.05-3.38-3.05-3.38-3.05-3.38-3.05-3.38-3.05-3.38-3.05-3.38-3.05-3.38v1.15s0,1.15,0,1.15v1.15s0,1.15,0,1.15v1.15s0,1.15,0,1.15v1.15s0,1.15,0,1.15Z"/>
            <path class="st4" d="M79.83,400.36l3.05,3.38,3.05,3.38,3.05,3.38,3.05,3.38,3.05,3.38,3.05,3.38,3.05,3.38,3.05,3.38,3.05-3.38,3.05-3.38,3.05-3.38,3.05-3.38,3.05-3.38,3.05-3.38,3.05-3.38,3.05-3.38-3.05-3.38-3.05-3.38-3.05-3.38-3.05-3.38-3.05-3.38-3.05-3.38-3.05-3.38-3.05-3.38-3.05,3.38-3.05,3.38-3.05,3.38-3.05,3.38-3.05,3.38-3.05,3.38-3.05,3.38-3.05,3.38ZM104.23,418.23l-2.01-2.23-2.01-2.23-2.01-2.23-2.01-2.23-2.01-2.23-2.01-2.23-2.01-2.23-2.01-2.23,2.01-2.23,2.01-2.23,2.01-2.23,2.01-2.23,2.01-2.23,2.01-2.23,2.01-2.23,2.01-2.23,2.01,2.23,2.01,2.23,2.01,2.23,2.01,2.23,2.01,2.23,2.01,2.23,2.01,2.23,2.01,2.23-2.01,2.23-2.01,2.23-2.01,2.23-2.01,2.23-2.01,2.23-2.01,2.23-2.01,2.23-2.01,2.23Z"/>
            <path class="st4" d="M63.72,382.48l2.01,2.23,2.01,2.23,2.01,2.23,2.01,2.23,2.01,2.23,2.01,2.23,2.01,2.23,2.01,2.23-2.01,2.23-2.01,2.23-2.01,2.23-2.01,2.23-2.01,2.23-2.01,2.23-2.01,2.23-2.01,2.23v1.15s0,1.15,0,1.15v1.15s0,1.15,0,1.15v1.15s0,1.15,0,1.15v1.15s0,1.15,0,1.15l3.05-3.38,3.05-3.38,3.05-3.38,3.05-3.38,3.05-3.38,3.05-3.38,3.05-3.38,3.05-3.38-3.05-3.38-3.05-3.38-3.05-3.38-3.05-3.38-3.05-3.38-3.05-3.38-3.05-3.38-3.05-3.38v1.15s0,1.15,0,1.15v1.15s0,1.15,0,1.15v1.15s0,1.15,0,1.15v1.15s0,1.15,0,1.15Z"/>
          </g>
          <g>
            <path class="st4" d="M63.72,423.85l-3.05,3.38-3.05,3.38-3.05,3.38-3.05,3.38-3.05,3.38-3.05,3.38-3.05,3.38-3.05,3.38,3.05,3.38,3.05,3.38,3.05,3.38,3.05,3.38,3.05,3.38,3.05,3.38,3.05,3.38,3.05,3.38v-1.15s0-1.15,0-1.15v-1.15s0-1.15,0-1.15v-1.15s0-1.15,0-1.15v-1.15s0-1.15,0-1.15l-2.01-2.24-2.01-2.24-2.01-2.24-2.01-2.24-2.01-2.24-2.01-2.24-2.01-2.24-2.01-2.24,2.01-2.23,2.01-2.23,2.01-2.23,2.01-2.23,2.01-2.23,2.01-2.23,2.01-2.23,2.01-2.23v-1.15s0-1.15,0-1.15v-1.15s0-1.15,0-1.15v-1.15s0-1.15,0-1.15v-1.15s0-1.15,0-1.15Z"/>
            <path class="st4" d="M-1.18,450.92l3.05,3.38,3.05,3.38,3.05,3.38,3.05,3.38,3.05,3.38,3.05,3.38,3.05,3.38,3.05,3.38,3.05-3.38,3.05-3.38,3.05-3.38,3.05-3.38,3.05-3.38,3.05-3.38,3.05-3.38,3.05-3.38-3.05-3.38-3.05-3.38-3.05-3.38-3.05-3.38-3.05-3.38-3.05-3.38-3.05-3.38-3.05-3.38-3.05,3.38-3.05,3.38-3.05,3.38-3.05,3.38-3.05,3.38-3.05,3.38-3.05,3.38-3.05,3.38ZM23.22,468.8l-2.01-2.24-2.01-2.24-2.01-2.24-2.01-2.24-2.01-2.24-2.01-2.24-2.01-2.24-2.01-2.24,2.01-2.23,2.01-2.23,2.01-2.23,2.01-2.23,2.01-2.23,2.01-2.23,2.01-2.23,2.01-2.23,2.01,2.23,2.01,2.23,2.01,2.23,2.01,2.23,2.01,2.23,2.01,2.23,2.01,2.23,2.01,2.23-2.01,2.24-2.01,2.24-2.01,2.24-2.01,2.24-2.01,2.24-2.01,2.24-2.01,2.24-2.01,2.24Z"/>
            <path class="st4" d="M-17.29,433.04l2.01,2.23,2.01,2.23,2.01,2.23,2.01,2.23,2.01,2.23,2.01,2.23,2.01,2.23,2.01,2.23-2.01,2.24-2.01,2.24-2.01,2.24-2.01,2.24-2.01,2.24-2.01,2.24-2.01,2.24-2.01,2.24v1.15s0,1.15,0,1.15v1.15s0,1.15,0,1.15v1.15s0,1.15,0,1.15v1.15s0,1.15,0,1.15l3.05-3.38,3.05-3.38,3.05-3.38,3.05-3.38,3.05-3.38,3.05-3.38,3.05-3.38,3.05-3.38-3.05-3.38-3.05-3.38-3.05-3.38-3.05-3.38-3.05-3.38-3.05-3.38-3.05-3.38-3.05-3.38v1.15s0,1.15,0,1.15v1.15s0,1.15,0,1.15v1.15s0,1.15,0,1.15v1.15s0,1.15,0,1.15Z"/>
            <path class="st4" d="M63.72,373.28l-3.05,3.38-3.05,3.38-3.05,3.38-3.05,3.38-3.05,3.38-3.05,3.38-3.05,3.38-3.05,3.38,3.05,3.38,3.05,3.38,3.05,3.38,3.05,3.38,3.05,3.38,3.05,3.38,3.05,3.38,3.05,3.38v-1.15s0-1.15,0-1.15v-1.15s0-1.15,0-1.15v-1.15s0-1.15,0-1.15v-1.15s0-1.15,0-1.15l-2.01-2.23-2.01-2.23-2.01-2.23-2.01-2.23-2.01-2.23-2.01-2.23-2.01-2.23-2.01-2.23,2.01-2.23,2.01-2.23,2.01-2.23,2.01-2.23,2.01-2.23,2.01-2.23,2.01-2.23,2.01-2.23v-1.15s0-1.15,0-1.15v-1.15s0-1.15,0-1.15v-1.15s0-1.15,0-1.15v-1.15s0-1.15,0-1.15Z"/>
            <path class="st4" d="M-1.18,400.36l3.05,3.38,3.05,3.38,3.05,3.38,3.05,3.38,3.05,3.38,3.05,3.38,3.05,3.38,3.05,3.38,3.05-3.38,3.05-3.38,3.05-3.38,3.05-3.38,3.05-3.38,3.05-3.38,3.05-3.38,3.05-3.38-3.05-3.38-3.05-3.38-3.05-3.38-3.05-3.38-3.05-3.38-3.05-3.38-3.05-3.38-3.05-3.38-3.05,3.38-3.05,3.38-3.05,3.38-3.05,3.38-3.05,3.38-3.05,3.38-3.05,3.38-3.05,3.38ZM23.22,418.23l-2.01-2.23-2.01-2.23-2.01-2.23-2.01-2.23-2.01-2.23-2.01-2.23-2.01-2.23-2.01-2.23,2.01-2.23,2.01-2.23,2.01-2.23,2.01-2.23,2.01-2.23,2.01-2.23,2.01-2.23,2.01-2.23,2.01,2.23,2.01,2.23,2.01,2.23,2.01,2.23,2.01,2.23,2.01,2.23,2.01,2.23,2.01,2.23-2.01,2.23-2.01,2.23-2.01,2.23-2.01,2.23-2.01,2.23-2.01,2.23-2.01,2.23-2.01,2.23Z"/>
            <path class="st4" d="M-17.29,382.48l2.01,2.23,2.01,2.23,2.01,2.23,2.01,2.23,2.01,2.23,2.01,2.23,2.01,2.23,2.01,2.23-2.01,2.23-2.01,2.23-2.01,2.23-2.01,2.23-2.01,2.23-2.01,2.23-2.01,2.23-2.01,2.23v1.15s0,1.15,0,1.15v1.15s0,1.15,0,1.15v1.15s0,1.15,0,1.15v1.15s0,1.15,0,1.15l3.05-3.38,3.05-3.38,3.05-3.38,3.05-3.38,3.05-3.38,3.05-3.38,3.05-3.38,3.05-3.38-3.05-3.38-3.05-3.38-3.05-3.38-3.05-3.38-3.05-3.38-3.05-3.38-3.05-3.38-3.05-3.38v1.15s0,1.15,0,1.15v1.15s0,1.15,0,1.15v1.15s0,1.15,0,1.15v1.15s0,1.15,0,1.15Z"/>
          </g>
        </g>
        <g>
          <g>
            <polygon class="st4" points="81.95 140.35 85.24 140.35 88.53 140.35 91.83 140.35 95.12 140.35 98.41 140.35 101.7 140.35 104.99 140.35 108.28 140.35 108.28 146.56 108.28 152.78 108.28 158.99 108.28 165.21 108.28 171.42 108.28 177.64 108.28 183.85 108.28 190.07 104.99 190.07 101.7 190.07 98.41 190.07 95.12 190.07 91.83 190.07 88.53 190.07 85.24 190.07 81.95 190.07 81.95 183.85 81.95 177.64 81.95 171.42 81.95 165.21 81.95 158.99 81.95 152.78 81.95 146.56 81.95 140.35"/>
            <polygon class="st4" points="55.62 90.62 58.91 90.62 62.2 90.62 65.5 90.62 68.79 90.62 72.08 90.62 75.37 90.62 78.66 90.62 81.95 90.62 81.95 96.84 81.95 103.05 81.95 109.27 81.95 115.48 81.95 121.7 81.95 127.91 81.95 134.13 81.95 140.35 78.66 140.35 75.37 140.35 72.08 140.35 68.79 140.35 65.5 140.35 62.2 140.35 58.91 140.35 55.62 140.35 55.62 134.13 55.62 127.91 55.62 121.7 55.62 115.48 55.62 109.27 55.62 103.05 55.62 96.84 55.62 90.62"/>
          </g>
          <g>
            <polygon class="st4" points="29.29 140.35 32.58 140.35 35.87 140.35 39.17 140.35 42.46 140.35 45.75 140.35 49.04 140.35 52.33 140.35 55.62 140.35 55.62 146.56 55.62 152.78 55.62 158.99 55.62 165.21 55.62 171.42 55.62 177.64 55.62 183.85 55.62 190.07 52.33 190.07 49.04 190.07 45.75 190.07 42.46 190.07 39.17 190.07 35.87 190.07 32.58 190.07 29.29 190.07 29.29 183.85 29.29 177.64 29.29 171.42 29.29 165.21 29.29 158.99 29.29 152.78 29.29 146.56 29.29 140.35"/>
            <polygon class="st4" points="2.96 90.62 6.25 90.62 9.54 90.62 12.83 90.62 16.13 90.62 19.42 90.62 22.71 90.62 26 90.62 29.29 90.62 29.29 96.84 29.29 103.05 29.29 109.27 29.29 115.48 29.29 121.7 29.29 127.91 29.29 134.13 29.29 140.35 26 140.35 22.71 140.35 19.42 140.35 16.13 140.35 12.83 140.35 9.54 140.35 6.25 140.35 2.96 140.35 2.96 134.13 2.96 127.91 2.96 121.7 2.96 115.48 2.96 109.27 2.96 103.05 2.96 96.84 2.96 90.62"/>
          </g>
          <polygon class="st4" points="-23.37 140.35 -20.08 140.35 -16.79 140.35 -13.5 140.35 -10.2 140.35 -6.91 140.35 -3.62 140.35 -.33 140.35 2.96 140.35 2.96 146.56 2.96 152.78 2.96 158.99 2.96 165.21 2.96 171.42 2.96 177.64 2.96 183.85 2.96 190.07 -.33 190.07 -3.62 190.07 -6.91 190.07 -10.2 190.07 -13.5 190.07 -16.79 190.07 -20.08 190.07 -23.37 190.07 -23.37 183.85 -23.37 177.64 -23.37 171.42 -23.37 165.21 -23.37 158.99 -23.37 152.78 -23.37 146.56 -23.37 140.35"/>
        </g>
      </g>
    </g>
  </g>
  <g class="st3">
    <g class="st5">
      <g>
        <g>
          <path class="st4" d="M95,555.72h1.28s1.28,0,1.28,0h1.28s1.28,0,1.28,0h1.28s1.28,0,1.28,0h1.28s1.28,0,1.28,0c0-2.38.23-4.7.66-6.95.43-2.25,1.07-4.41,1.9-6.48.82-2.06,1.83-4.03,3-5.87,1.17-1.84,2.5-3.55,3.97-5.11,1.47-1.56,3.08-2.98,4.81-4.22,1.73-1.24,3.57-2.31,5.52-3.19,1.94-.88,3.98-1.55,6.09-2.02s4.3-.7,6.54-.7v-1.36s0-1.36,0-1.36v-1.36s0-1.36,0-1.36v-1.36s0-1.36,0-1.36v-1.36s0-1.36,0-1.36c-2.03,0-4.03.15-5.98.44-1.95.29-3.87.73-5.73,1.29-1.86.56-3.67,1.26-5.42,2.08-1.75.82-3.44,1.75-5.05,2.8-1.62,1.05-3.16,2.21-4.63,3.47-1.47,1.26-2.86,2.62-4.15,4.08-1.3,1.45-2.51,3-3.62,4.62-1.11,1.62-2.12,3.33-3.03,5.11-.9-1.78-1.92-3.48-3.03-5.11-1.11-1.62-2.32-3.17-3.62-4.62-1.3-1.45-2.69-2.81-4.15-4.08-1.47-1.26-3.01-2.42-4.63-3.47-1.62-1.05-3.31-1.99-5.05-2.8-1.75-.82-3.56-1.51-5.42-2.08-1.86-.56-3.77-1-5.73-1.29-1.95-.29-3.95-.44-5.98-.44v1.36s0,1.36,0,1.36v1.36s0,1.36,0,1.36v1.36s0,1.36,0,1.36v1.36s0,1.36,0,1.36c2.24,0,4.43.24,6.54.7,2.11.46,4.15,1.14,6.09,2.02s3.79,1.95,5.52,3.19c1.73,1.24,3.34,2.66,4.81,4.22,1.47,1.56,2.8,3.28,3.97,5.11,1.17,1.84,2.18,3.8,3,5.87.82,2.06,1.46,4.23,1.9,6.48.43,2.25.66,4.57.66,6.95Z"/>
          <path class="st4" d="M19.77,555.72h1.28s1.28,0,1.28,0h1.28s1.28,0,1.28,0h1.28s1.28,0,1.28,0h1.28s1.28,0,1.28,0c0-2.38.23-4.7.66-6.95s1.07-4.41,1.9-6.48c.82-2.06,1.83-4.03,3-5.87,1.17-1.84,2.5-3.55,3.97-5.11,1.47-1.56,3.08-2.98,4.81-4.22,1.73-1.24,3.57-2.31,5.52-3.19s3.98-1.55,6.09-2.02c2.11-.46,4.3-.7,6.54-.7v-1.36s0-1.36,0-1.36v-1.36s0-1.36,0-1.36v-1.36s0-1.36,0-1.36v-1.36s0-1.36,0-1.36c-2.03,0-4.03.15-5.98.44-1.95.29-3.87.73-5.73,1.29-1.86.56-3.67,1.26-5.42,2.08-1.75.82-3.44,1.75-5.05,2.8s-3.16,2.21-4.63,3.47c-1.47,1.26-2.86,2.62-4.15,4.08-1.3,1.45-2.51,3-3.62,4.62-1.11,1.62-2.12,3.33-3.03,5.11-.9-1.78-1.92-3.48-3.03-5.11-1.11-1.62-2.32-3.17-3.62-4.62-1.3-1.45-2.69-2.81-4.15-4.08-1.47-1.26-3.01-2.42-4.63-3.47-1.62-1.05-3.31-1.99-5.05-2.8-1.75-.82-3.56-1.51-5.42-2.08-1.86-.56-3.77-1-5.73-1.29-1.95-.29-3.95-.44-5.98-.44v1.36s0,1.36,0,1.36v1.36s0,1.36,0,1.36v1.36s0,1.36,0,1.36v1.36s0,1.36,0,1.36c2.24,0,4.43.24,6.54.7,2.11.46,4.15,1.14,6.09,2.02,1.94.88,3.79,1.95,5.52,3.19,1.73,1.24,3.34,2.66,4.81,4.22,1.47,1.56,2.8,3.28,3.97,5.11,1.17,1.84,2.18,3.8,3,5.87.82,2.06,1.46,4.23,1.9,6.48.43,2.25.66,4.57.66,6.95Z"/>
        </g>
        <g>
          <g>
            <polygon class="st4" points="62.51 322.07 71.92 322.07 81.32 322.07 90.72 322.07 100.13 322.07 109.53 322.07 118.93 322.07 128.34 322.07 137.74 322.07 137.74 323.58 137.74 325.1 137.74 326.61 137.74 328.12 137.74 329.64 137.74 331.15 137.74 332.67 137.74 334.18 128.34 334.18 118.93 334.18 109.53 334.18 100.13 334.18 90.72 334.18 81.32 334.18 71.92 334.18 62.51 334.18 62.51 332.67 62.51 331.15 62.51 329.64 62.51 328.12 62.51 326.61 62.51 325.1 62.51 323.58 62.51 322.07"/>
            <path class="st4" d="M95,323.75h1.28s1.28,0,1.28,0h1.28s1.28,0,1.28,0h1.28s1.28,0,1.28,0h1.28s1.28,0,1.28,0c0-2.38.23-4.7.66-6.95.43-2.25,1.07-4.41,1.9-6.48.82-2.06,1.83-4.03,3-5.87,1.17-1.84,2.5-3.55,3.97-5.11,1.47-1.56,3.08-2.98,4.81-4.22,1.73-1.24,3.58-2.31,5.52-3.19,1.94-.88,3.98-1.55,6.09-2.02,2.11-.46,4.3-.7,6.54-.7v-1.36s0-1.36,0-1.36v-1.36s0-1.36,0-1.36v-1.36s0-1.36,0-1.36v-1.36s0-1.36,0-1.36c-2.03,0-4.03.15-5.98.44-1.95.29-3.87.73-5.73,1.29-1.86.56-3.67,1.26-5.42,2.08-1.75.82-3.44,1.75-5.05,2.8-1.62,1.05-3.16,2.21-4.63,3.47-1.47,1.26-2.86,2.62-4.15,4.08-1.3,1.45-2.51,3-3.62,4.62-1.11,1.62-2.12,3.33-3.03,5.11-.9-1.78-1.92-3.48-3.03-5.11-1.11-1.62-2.32-3.17-3.62-4.62-1.3-1.45-2.69-2.81-4.15-4.08-1.47-1.26-3.01-2.42-4.63-3.47-1.62-1.05-3.31-1.99-5.05-2.8s-3.56-1.51-5.42-2.08c-1.86-.56-3.77-1-5.73-1.29-1.95-.29-3.95-.44-5.98-.44v1.36s0,1.36,0,1.36v1.36s0,1.36,0,1.36v1.36s0,1.36,0,1.36v1.36s0,1.36,0,1.36c2.24,0,4.43.24,6.54.7,2.11.46,4.15,1.14,6.09,2.02,1.94.88,3.79,1.95,5.52,3.19,1.73,1.24,3.34,2.66,4.81,4.22,1.47,1.56,2.8,3.28,3.97,5.11,1.17,1.84,2.18,3.8,3,5.87.82,2.06,1.46,4.23,1.9,6.48.43,2.25.66,4.57.66,6.95Z"/>
            <polygon class="st4" points="137.74 235.9 128.34 235.9 118.93 235.9 109.53 235.9 100.13 235.9 90.72 235.9 81.32 235.9 71.92 235.9 62.51 235.9 62.51 234.38 62.51 232.87 62.51 231.35 62.51 229.84 62.51 228.32 62.51 226.81 62.51 225.3 62.51 223.78 71.92 223.78 81.32 223.78 90.72 223.78 100.13 223.78 109.53 223.78 118.93 223.78 128.34 223.78 137.74 223.78 137.74 225.3 137.74 226.81 137.74 228.32 137.74 229.84 137.74 231.35 137.74 232.87 137.74 234.38 137.74 235.9"/>
            <path class="st4" d="M105.26,234.22h-1.28s-1.28,0-1.28,0h-1.28s-1.28,0-1.28,0h-1.28s-1.28,0-1.28,0h-1.28s-1.28,0-1.28,0c0,2.38-.23,4.7-.66,6.95-.43,2.25-1.07,4.41-1.9,6.48-.82,2.06-1.83,4.03-3,5.87-1.17,1.84-2.5,3.55-3.97,5.11-1.47,1.56-3.08,2.98-4.81,4.22-1.73,1.24-3.58,2.31-5.52,3.19-1.94.88-3.98,1.55-6.09,2.02-2.11.46-4.3.7-6.54.7v1.36s0,1.36,0,1.36v1.36s0,1.36,0,1.36v1.36s0,1.36,0,1.36v1.36s0,1.36,0,1.36c2.03,0,4.03-.15,5.98-.44,1.95-.29,3.87-.73,5.73-1.29,1.86-.56,3.67-1.26,5.42-2.08,1.75-.82,3.44-1.75,5.05-2.8,1.62-1.05,3.16-2.21,4.63-3.47,1.47-1.26,2.86-2.62,4.15-4.07,1.3-1.45,2.51-3,3.62-4.62s2.12-3.33,3.03-5.1c.9,1.78,1.92,3.48,3.03,5.1,1.11,1.62,2.32,3.17,3.62,4.62,1.3,1.45,2.69,2.81,4.15,4.07,1.47,1.26,3.01,2.42,4.63,3.47,1.62,1.05,3.31,1.99,5.05,2.8,1.75.82,3.56,1.51,5.42,2.08,1.86.56,3.77,1,5.73,1.29,1.95.29,3.95.44,5.98.44v-1.36s0-1.36,0-1.36v-1.36s0-1.36,0-1.36v-1.36s0-1.36,0-1.36v-1.36s0-1.36,0-1.36c-2.24,0-4.43-.24-6.54-.7-2.11-.46-4.15-1.14-6.09-2.02-1.94-.88-3.79-1.95-5.52-3.19-1.73-1.24-3.34-2.66-4.81-4.22-1.47-1.56-2.8-3.28-3.97-5.11-1.17-1.84-2.18-3.8-3-5.87-.82-2.06-1.46-4.23-1.9-6.48-.43-2.25-.66-4.57-.66-6.95Z"/>
          </g>
          <g>
            <polygon class="st4" points="-12.72 322.07 -3.31 322.07 6.09 322.07 15.5 322.07 24.9 322.07 34.3 322.07 43.71 322.07 53.11 322.07 62.51 322.07 62.51 323.58 62.51 325.1 62.51 326.61 62.51 328.12 62.51 329.64 62.51 331.15 62.51 332.67 62.51 334.18 53.11 334.18 43.71 334.18 34.3 334.18 24.9 334.18 15.5 334.18 6.09 334.18 -3.31 334.18 -12.72 334.18 -12.72 332.67 -12.72 331.15 -12.72 329.64 -12.72 328.12 -12.72 326.61 -12.72 325.1 -12.72 323.58 -12.72 322.07"/>
            <path class="st4" d="M19.77,323.75h1.28s1.28,0,1.28,0h1.28s1.28,0,1.28,0h1.28s1.28,0,1.28,0h1.28s1.28,0,1.28,0c0-2.38.23-4.7.66-6.95.43-2.25,1.07-4.41,1.9-6.48.82-2.06,1.83-4.03,3-5.87,1.17-1.84,2.5-3.55,3.97-5.11,1.47-1.56,3.08-2.98,4.81-4.22,1.73-1.24,3.58-2.31,5.52-3.19,1.94-.88,3.98-1.55,6.09-2.02,2.11-.46,4.3-.7,6.54-.7v-1.36s0-1.36,0-1.36v-1.36s0-1.36,0-1.36v-1.36s0-1.36,0-1.36v-1.36s0-1.36,0-1.36c-2.03,0-4.03.15-5.98.44-1.95.29-3.87.73-5.73,1.29-1.86.56-3.67,1.26-5.42,2.08-1.75.82-3.44,1.75-5.05,2.8-1.62,1.05-3.16,2.21-4.63,3.47-1.47,1.26-2.86,2.62-4.15,4.08-1.3,1.45-2.51,3-3.62,4.62-1.11,1.62-2.12,3.33-3.03,5.11-.9-1.78-1.92-3.48-3.03-5.11-1.11-1.62-2.32-3.17-3.62-4.62-1.3-1.45-2.69-2.81-4.15-4.08-1.47-1.26-3.01-2.42-4.63-3.47-1.62-1.05-3.31-1.99-5.05-2.8-1.75-.82-3.56-1.51-5.42-2.08-1.86-.56-3.77-1-5.73-1.29-1.95-.29-3.95-.44-5.98-.44v1.36s0,1.36,0,1.36v1.36s0,1.36,0,1.36v1.36s0,1.36,0,1.36v1.36s0,1.36,0,1.36c2.24,0,4.43.24,6.54.7,2.11.46,4.15,1.14,6.09,2.02,1.94.88,3.79,1.95,5.52,3.19,1.73,1.24,3.34,2.66,4.81,4.22,1.47,1.56,2.8,3.28,3.97,5.11,1.17,1.84,2.18,3.8,3,5.87.82,2.06,1.46,4.23,1.9,6.48.43,2.25.66,4.57.66,6.95Z"/>
            <polygon class="st4" points="62.51 235.9 53.11 235.9 43.71 235.9 34.3 235.9 24.9 235.9 15.5 235.9 6.09 235.9 -3.31 235.9 -12.72 235.9 -12.72 234.38 -12.72 232.87 -12.72 231.35 -12.72 229.84 -12.72 228.32 -12.72 226.81 -12.72 225.3 -12.72 223.78 -3.31 223.78 6.09 223.78 15.5 223.78 24.9 223.78 34.3 223.78 43.71 223.78 53.11 223.78 62.51 223.78 62.51 225.3 62.51 226.81 62.51 228.32 62.51 229.84 62.51 231.35 62.51 232.87 62.51 234.38 62.51 235.9"/>
            <path class="st4" d="M30.03,234.22h-1.28s-1.28,0-1.28,0h-1.28s-1.28,0-1.28,0h-1.28s-1.28,0-1.28,0h-1.28s-1.28,0-1.28,0c0,2.38-.23,4.7-.66,6.95-.43,2.25-1.07,4.41-1.9,6.48-.82,2.06-1.83,4.03-3,5.87-1.17,1.84-2.5,3.55-3.97,5.11-1.47,1.56-3.08,2.98-4.81,4.22-1.73,1.24-3.58,2.31-5.52,3.19-1.94.88-3.98,1.55-6.09,2.02-2.11.46-4.3.7-6.54.7v1.36s0,1.36,0,1.36v1.36s0,1.36,0,1.36v1.36s0,1.36,0,1.36v1.36s0,1.36,0,1.36c2.03,0,4.03-.15,5.98-.44,1.95-.29,3.87-.73,5.73-1.29,1.86-.56,3.67-1.26,5.42-2.08,1.75-.82,3.44-1.75,5.05-2.8,1.62-1.05,3.16-2.21,4.63-3.47,1.47-1.26,2.86-2.62,4.15-4.07,1.3-1.45,2.51-3,3.62-4.62,1.11-1.62,2.12-3.33,3.03-5.1.9,1.78,1.92,3.48,3.03,5.1,1.11,1.62,2.32,3.17,3.62,4.62,1.3,1.45,2.69,2.81,4.15,4.07,1.47,1.26,3.01,2.42,4.63,3.47,1.62,1.05,3.31,1.99,5.05,2.8,1.75.82,3.56,1.51,5.42,2.08,1.86.56,3.77,1,5.73,1.29,1.95.29,3.95.44,5.98.44v-1.36s0-1.36,0-1.36v-1.36s0-1.36,0-1.36v-1.36s0-1.36,0-1.36v-1.36s0-1.36,0-1.36c-2.24,0-4.43-.24-6.54-.7-2.11-.46-4.15-1.14-6.09-2.02-1.94-.88-3.79-1.95-5.52-3.19-1.73-1.24-3.34-2.66-4.81-4.22-1.47-1.56-2.8-3.28-3.97-5.11-1.17-1.84-2.18-3.8-3-5.87s-1.46-4.23-1.9-6.48c-.43-2.25-.66-4.57-.66-6.95Z"/>
          </g>
        </g>
        <g>
          <g>
            <path class="st4" d="M62.51-27.18h1.92s1.92,0,1.92,0h1.92s1.92,0,1.92,0h1.92s1.92,0,1.92,0h1.92s1.92,0,1.92,0c4.25,0,7.98.9,11.17,2.48,3.2,1.58,5.87,3.84,8.01,6.54,2.14,2.71,3.75,5.87,4.84,9.25,1.08,3.39,1.63,7,1.64,10.61.01,3.61-.51,7.22-1.57,10.61-1.06,3.39-2.65,6.54-4.79,9.25-2.14,2.71-4.81,4.96-8.03,6.54-3.22,1.58-6.98,2.48-11.28,2.48h-1.92s-1.92,0-1.92,0h-1.92s-1.92,0-1.92,0h-1.92s-1.92,0-1.92,0h-1.92s-1.92,0-1.92,0v-1.05s0-1.05,0-1.05v-1.05s0-1.05,0-1.05v-1.05s0-1.05,0-1.05v-1.05s0-1.05,0-1.05h1.92s1.92,0,1.92,0h1.92s1.92,0,1.92,0h1.92s1.92,0,1.92,0h1.92s1.92,0,1.92,0c3.06,0,5.73-.64,8.01-1.76,2.28-1.12,4.18-2.72,5.7-4.65,1.51-1.92,2.64-4.17,3.39-6.57.75-2.4,1.12-4.97,1.1-7.53-.01-2.56-.4-5.13-1.17-7.53-.77-2.4-1.91-4.65-3.43-6.57-1.52-1.92-3.41-3.52-5.68-4.65-2.27-1.12-4.91-1.76-7.92-1.76h-1.92s-1.92,0-1.92,0h-1.92s-1.92,0-1.92,0h-1.92s-1.92,0-1.92,0h-1.92s-1.92,0-1.92,0v-1.05s0-1.05,0-1.05v-1.05s0-1.05,0-1.05v-1.05s0-1.05,0-1.05v-1.05s0-1.05,0-1.05Z"/>
            <path class="st4" d="M137.74-27.18v1.05s0,1.05,0,1.05v1.05s0,1.05,0,1.05v1.05s0,1.05,0,1.05v1.05s0,1.05,0,1.05h-1.92s-1.92,0-1.92,0h-1.92s-1.92,0-1.92,0h-1.92s-1.92,0-1.92,0h-1.92s-1.92,0-1.92,0c-2.03,0-3.95.34-5.71.97-1.77.63-3.38,1.54-4.83,2.67-1.45,1.13-2.73,2.49-3.81,4.01-1.08,1.52-1.97,3.2-2.64,4.98-.67,1.78-1.12,3.67-1.33,5.59-.21,1.92-.18,3.89.12,5.83.3,1.94.86,3.87,1.71,5.71.85,1.84,2,3.61,3.45,5.23,1.01,1.12,2.03,2.04,3.08,2.79,1.04.75,2.11,1.34,3.19,1.79,1.08.45,2.19.78,3.32,1,1.13.23,2.28.35,3.45.42,1.17.07,2.37.07,3.6.04,1.22-.03,2.48-.08,3.75-.12,1.28-.05,2.59-.09,3.92-.08,1.34,0,2.7.05,4.1.16v1.05s0,1.05,0,1.05v1.05s0,1.05,0,1.05v1.05s0,1.05,0,1.05v1.05s0,1.05,0,1.05c-1.3-.14-2.63-.18-3.99-.17-1.36,0-2.74.06-4.13.11-1.4.05-2.81.11-4.24.13-1.43.02-2.86-.01-4.3-.13-1.44-.11-2.88-.31-4.33-.65-1.44-.33-2.88-.8-4.31-1.44-1.43-.64-2.85-1.46-4.26-2.49-1.41-1.04-2.8-2.3-4.17-3.82-1.27-1.41-2.38-2.93-3.33-4.53-.95-1.6-1.74-3.29-2.38-5.02-.63-1.74-1.11-3.53-1.43-5.35-.32-1.82-.48-3.67-.48-5.52,0-1.85.16-3.7.48-5.52.32-1.82.79-3.61,1.43-5.35.63-1.74,1.43-3.42,2.38-5.02.95-1.6,2.06-3.12,3.33-4.53,1.36-1.52,2.75-2.77,4.16-3.8,1.41-1.03,2.83-1.85,4.27-2.49,1.44-.64,2.88-1.1,4.33-1.44,1.45-.33,2.9-.54,4.35-.65,1.45-.12,2.89-.15,4.32-.13,1.43.01,2.85.07,4.24.12,1.4.05,2.77.1,4.11.11,1.35,0,2.66-.04,3.94-.17Z"/>
          </g>
          <g>
            <path class="st4" d="M-12.72-27.18h1.92s1.92,0,1.92,0h1.92s1.92,0,1.92,0h1.92s1.92,0,1.92,0H.74s1.92,0,1.92,0c4.25,0,7.98.9,11.17,2.48,3.2,1.58,5.87,3.84,8.01,6.54,2.14,2.71,3.75,5.87,4.84,9.25,1.08,3.39,1.63,7,1.64,10.61.01,3.61-.51,7.22-1.57,10.61-1.06,3.39-2.65,6.54-4.79,9.25-2.14,2.71-4.81,4.96-8.03,6.54-3.22,1.58-6.98,2.48-11.28,2.48H.74s-1.92,0-1.92,0h-1.92s-1.92,0-1.92,0h-1.92s-1.92,0-1.92,0h-1.92s-1.92,0-1.92,0v-1.05s0-1.05,0-1.05v-1.05s0-1.05,0-1.05v-1.05s0-1.05,0-1.05v-1.05s0-1.05,0-1.05h1.92s1.92,0,1.92,0h1.92s1.92,0,1.92,0h1.92s1.92,0,1.92,0H.74s1.92,0,1.92,0c3.06,0,5.73-.64,8.01-1.76,2.28-1.12,4.18-2.72,5.7-4.65,1.51-1.92,2.64-4.17,3.39-6.57.75-2.4,1.12-4.97,1.1-7.53-.01-2.56-.4-5.13-1.17-7.53-.77-2.4-1.91-4.65-3.43-6.57-1.52-1.92-3.41-3.52-5.68-4.65-2.27-1.12-4.91-1.76-7.92-1.76H.74s-1.92,0-1.92,0h-1.92s-1.92,0-1.92,0h-1.92s-1.92,0-1.92,0h-1.92s-1.92,0-1.92,0v-1.05s0-1.05,0-1.05v-1.05s0-1.05,0-1.05v-1.05s0-1.05,0-1.05v-1.05s0-1.05,0-1.05Z"/>
            <path class="st4" d="M62.51-27.18v1.05s0,1.05,0,1.05v1.05s0,1.05,0,1.05v1.05s0,1.05,0,1.05v1.05s0,1.05,0,1.05h-1.92s-1.92,0-1.92,0h-1.92s-1.92,0-1.92,0h-1.92s-1.92,0-1.92,0h-1.92s-1.92,0-1.92,0c-2.03,0-3.95.34-5.71.97-1.76.63-3.38,1.54-4.83,2.67-1.45,1.13-2.73,2.49-3.81,4.01-1.08,1.52-1.97,3.2-2.64,4.98-.67,1.78-1.12,3.67-1.33,5.59-.21,1.92-.18,3.89.12,5.83.3,1.94.86,3.87,1.71,5.71.85,1.84,2,3.61,3.45,5.23,1.01,1.12,2.03,2.04,3.08,2.79,1.04.75,2.11,1.34,3.19,1.79,1.08.45,2.19.78,3.32,1,1.13.23,2.28.35,3.45.42,1.17.07,2.37.07,3.6.04,1.22-.03,2.48-.08,3.75-.12,1.28-.05,2.59-.09,3.92-.08,1.34,0,2.7.05,4.1.16v1.05s0,1.05,0,1.05v1.05s0,1.05,0,1.05v1.05s0,1.05,0,1.05v1.05s0,1.05,0,1.05c-1.3-.14-2.63-.18-3.99-.17-1.36,0-2.74.06-4.13.11-1.4.05-2.81.11-4.24.13-1.43.02-2.86-.01-4.3-.13-1.44-.11-2.88-.31-4.33-.65-1.44-.33-2.88-.8-4.31-1.44-1.43-.64-2.85-1.46-4.26-2.49-1.41-1.04-2.8-2.3-4.17-3.82-1.27-1.41-2.38-2.93-3.33-4.53-.95-1.6-1.74-3.29-2.38-5.02-.63-1.74-1.11-3.53-1.43-5.35-.32-1.82-.48-3.67-.48-5.52,0-1.85.16-3.7.48-5.52.32-1.82.79-3.61,1.43-5.35.63-1.74,1.43-3.42,2.38-5.02.95-1.6,2.06-3.12,3.33-4.53,1.36-1.52,2.75-2.77,4.16-3.8,1.41-1.03,2.83-1.85,4.27-2.49,1.44-.64,2.88-1.1,4.33-1.44,1.45-.33,2.9-.54,4.35-.65,1.45-.12,2.89-.15,4.32-.13,1.43.01,2.85.07,4.24.12,1.4.05,2.77.1,4.11.11,1.35,0,2.66-.04,3.94-.17Z"/>
          </g>
        </g>
        <g>
          <g>
            <path class="st4" d="M108.81,423.85l-3.05,3.38-3.05,3.38-3.05,3.38-3.05,3.38-3.05,3.38-3.05,3.38-3.05,3.38-3.05,3.38,3.05,3.38,3.05,3.38,3.05,3.38,3.05,3.38,3.05,3.38,3.05,3.38,3.05,3.38,3.05,3.38v-1.15s0-1.15,0-1.15v-1.15s0-1.15,0-1.15v-1.15s0-1.15,0-1.15v-1.15s0-1.15,0-1.15l-2.01-2.24-2.01-2.24-2.01-2.24-2.01-2.24-2.01-2.24-2.01-2.24-2.01-2.24-2.01-2.24,2.01-2.23,2.01-2.23,2.01-2.23,2.01-2.23,2.01-2.23,2.01-2.23,2.01-2.23,2.01-2.23v-1.15s0-1.15,0-1.15v-1.15s0-1.15,0-1.15v-1.15s0-1.15,0-1.15v-1.15s0-1.15,0-1.15Z"/>
            <path class="st4" d="M43.9,450.92l3.05,3.38,3.05,3.38,3.05,3.38,3.05,3.38,3.05,3.38,3.05,3.38,3.05,3.38,3.05,3.38,3.05-3.38,3.05-3.38,3.05-3.38,3.05-3.38,3.05-3.38,3.05-3.38,3.05-3.38,3.05-3.38-3.05-3.38-3.05-3.38-3.05-3.38-3.05-3.38-3.05-3.38-3.05-3.38-3.05-3.38-3.05-3.38-3.05,3.38-3.05,3.38-3.05,3.38-3.05,3.38-3.05,3.38-3.05,3.38-3.05,3.38-3.05,3.38ZM68.3,468.8l-2.01-2.24-2.01-2.24-2.01-2.24-2.01-2.24-2.01-2.24-2.01-2.24-2.01-2.24-2.01-2.24,2.01-2.23,2.01-2.23,2.01-2.23,2.01-2.23,2.01-2.23,2.01-2.23,2.01-2.23,2.01-2.23,2.01,2.23,2.01,2.23,2.01,2.23,2.01,2.23,2.01,2.23,2.01,2.23,2.01,2.23,2.01,2.23-2.01,2.24-2.01,2.24-2.01,2.24-2.01,2.24-2.01,2.24-2.01,2.24-2.01,2.24-2.01,2.24Z"/>
            <path class="st4" d="M27.79,433.04l2.01,2.23,2.01,2.23,2.01,2.23,2.01,2.23,2.01,2.23,2.01,2.23,2.01,2.23,2.01,2.23-2.01,2.24-2.01,2.24-2.01,2.24-2.01,2.24-2.01,2.24-2.01,2.24-2.01,2.24-2.01,2.24v1.15s0,1.15,0,1.15v1.15s0,1.15,0,1.15v1.15s0,1.15,0,1.15v1.15s0,1.15,0,1.15l3.05-3.38,3.05-3.38,3.05-3.38,3.05-3.38,3.05-3.38,3.05-3.38,3.05-3.38,3.05-3.38-3.05-3.38-3.05-3.38-3.05-3.38-3.05-3.38-3.05-3.38-3.05-3.38-3.05-3.38-3.05-3.38v1.15s0,1.15,0,1.15v1.15s0,1.15,0,1.15v1.15s0,1.15,0,1.15v1.15s0,1.15,0,1.15Z"/>
            <path class="st4" d="M108.81,373.28l-3.05,3.38-3.05,3.38-3.05,3.38-3.05,3.38-3.05,3.38-3.05,3.38-3.05,3.38-3.05,3.38,3.05,3.38,3.05,3.38,3.05,3.38,3.05,3.38,3.05,3.38,3.05,3.38,3.05,3.38,3.05,3.38v-1.15s0-1.15,0-1.15v-1.15s0-1.15,0-1.15v-1.15s0-1.15,0-1.15v-1.15s0-1.15,0-1.15l-2.01-2.23-2.01-2.23-2.01-2.23-2.01-2.23-2.01-2.23-2.01-2.23-2.01-2.23-2.01-2.23,2.01-2.23,2.01-2.23,2.01-2.23,2.01-2.23,2.01-2.23,2.01-2.23,2.01-2.23,2.01-2.23v-1.15s0-1.15,0-1.15v-1.15s0-1.15,0-1.15v-1.15s0-1.15,0-1.15v-1.15s0-1.15,0-1.15Z"/>
            <path class="st4" d="M43.9,400.36l3.05,3.38,3.05,3.38,3.05,3.38,3.05,3.38,3.05,3.38,3.05,3.38,3.05,3.38,3.05,3.38,3.05-3.38,3.05-3.38,3.05-3.38,3.05-3.38,3.05-3.38,3.05-3.38,3.05-3.38,3.05-3.38-3.05-3.38-3.05-3.38-3.05-3.38-3.05-3.38-3.05-3.38-3.05-3.38-3.05-3.38-3.05-3.38-3.05,3.38-3.05,3.38-3.05,3.38-3.05,3.38-3.05,3.38-3.05,3.38-3.05,3.38-3.05,3.38ZM68.3,418.23l-2.01-2.23-2.01-2.23-2.01-2.23-2.01-2.23-2.01-2.23-2.01-2.23-2.01-2.23-2.01-2.23,2.01-2.23,2.01-2.23,2.01-2.23,2.01-2.23,2.01-2.23,2.01-2.23,2.01-2.23,2.01-2.23,2.01,2.23,2.01,2.23,2.01,2.23,2.01,2.23,2.01,2.23,2.01,2.23,2.01,2.23,2.01,2.23-2.01,2.23-2.01,2.23-2.01,2.23-2.01,2.23-2.01,2.23-2.01,2.23-2.01,2.23-2.01,2.23Z"/>
            <path class="st4" d="M27.79,382.48l2.01,2.23,2.01,2.23,2.01,2.23,2.01,2.23,2.01,2.23,2.01,2.23,2.01,2.23,2.01,2.23-2.01,2.23-2.01,2.23-2.01,2.23-2.01,2.23-2.01,2.23-2.01,2.23-2.01,2.23-2.01,2.23v1.15s0,1.15,0,1.15v1.15s0,1.15,0,1.15v1.15s0,1.15,0,1.15v1.15s0,1.15,0,1.15l3.05-3.38,3.05-3.38,3.05-3.38,3.05-3.38,3.05-3.38,3.05-3.38,3.05-3.38,3.05-3.38-3.05-3.38-3.05-3.38-3.05-3.38-3.05-3.38-3.05-3.38-3.05-3.38-3.05-3.38-3.05-3.38v1.15s0,1.15,0,1.15v1.15s0,1.15,0,1.15v1.15s0,1.15,0,1.15v1.15s0,1.15,0,1.15Z"/>
          </g>
          <g>
            <path class="st4" d="M27.79,423.85l-3.05,3.38-3.05,3.38-3.05,3.38-3.05,3.38-3.05,3.38-3.05,3.38-3.05,3.38-3.05,3.38,3.05,3.38,3.05,3.38,3.05,3.38,3.05,3.38,3.05,3.38,3.05,3.38,3.05,3.38,3.05,3.38v-1.15s0-1.15,0-1.15v-1.15s0-1.15,0-1.15v-1.15s0-1.15,0-1.15v-1.15s0-1.15,0-1.15l-2.01-2.24-2.01-2.24-2.01-2.24-2.01-2.24-2.01-2.24-2.01-2.24-2.01-2.24-2.01-2.24,2.01-2.23,2.01-2.23,2.01-2.23,2.01-2.23,2.01-2.23,2.01-2.23,2.01-2.23,2.01-2.23v-1.15s0-1.15,0-1.15v-1.15s0-1.15,0-1.15v-1.15s0-1.15,0-1.15v-1.15s0-1.15,0-1.15Z"/>
            <path class="st4" d="M-37.11,450.92l3.05,3.38,3.05,3.38,3.05,3.38,3.05,3.38,3.05,3.38,3.05,3.38,3.05,3.38,3.05,3.38,3.05-3.38,3.05-3.38,3.05-3.38,3.05-3.38,3.05-3.38,3.05-3.38,3.05-3.38,3.05-3.38-3.05-3.38-3.05-3.38-3.05-3.38-3.05-3.38-3.05-3.38-3.05-3.38-3.05-3.38-3.05-3.38-3.05,3.38-3.05,3.38-3.05,3.38-3.05,3.38-3.05,3.38-3.05,3.38-3.05,3.38-3.05,3.38ZM-12.72,468.8l-2.01-2.24-2.01-2.24-2.01-2.24-2.01-2.24-2.01-2.24-2.01-2.24-2.01-2.24-2.01-2.24,2.01-2.23,2.01-2.23,2.01-2.23,2.01-2.23,2.01-2.23,2.01-2.23,2.01-2.23,2.01-2.23,2.01,2.23,2.01,2.23,2.01,2.23,2.01,2.23,2.01,2.23,2.01,2.23,2.01,2.23,2.01,2.23-2.01,2.24-2.01,2.24-2.01,2.24-2.01,2.24-2.01,2.24-2.01,2.24-2.01,2.24-2.01,2.24Z"/>
            <path class="st4" d="M27.79,373.28l-3.05,3.38-3.05,3.38-3.05,3.38-3.05,3.38-3.05,3.38-3.05,3.38-3.05,3.38-3.05,3.38,3.05,3.38,3.05,3.38,3.05,3.38,3.05,3.38,3.05,3.38,3.05,3.38,3.05,3.38,3.05,3.38v-1.15s0-1.15,0-1.15v-1.15s0-1.15,0-1.15v-1.15s0-1.15,0-1.15v-1.15s0-1.15,0-1.15l-2.01-2.23-2.01-2.23-2.01-2.23-2.01-2.23-2.01-2.23-2.01-2.23-2.01-2.23-2.01-2.23,2.01-2.23,2.01-2.23,2.01-2.23,2.01-2.23,2.01-2.23,2.01-2.23,2.01-2.23,2.01-2.23v-1.15s0-1.15,0-1.15v-1.15s0-1.15,0-1.15v-1.15s0-1.15,0-1.15v-1.15s0-1.15,0-1.15Z"/>
            <path class="st4" d="M-37.11,400.36l3.05,3.38,3.05,3.38,3.05,3.38,3.05,3.38,3.05,3.38,3.05,3.38,3.05,3.38,3.05,3.38,3.05-3.38,3.05-3.38,3.05-3.38,3.05-3.38,3.05-3.38,3.05-3.38,3.05-3.38,3.05-3.38-3.05-3.38-3.05-3.38-3.05-3.38-3.05-3.38-3.05-3.38-3.05-3.38-3.05-3.38-3.05-3.38-3.05,3.38-3.05,3.38-3.05,3.38-3.05,3.38-3.05,3.38-3.05,3.38-3.05,3.38-3.05,3.38ZM-12.72,418.23l-2.01-2.23-2.01-2.23-2.01-2.23-2.01-2.23-2.01-2.23-2.01-2.23-2.01-2.23-2.01-2.23,2.01-2.23,2.01-2.23,2.01-2.23,2.01-2.23,2.01-2.23,2.01-2.23,2.01-2.23,2.01-2.23,2.01,2.23,2.01,2.23,2.01,2.23,2.01,2.23,2.01,2.23,2.01,2.23,2.01,2.23,2.01,2.23-2.01,2.23-2.01,2.23-2.01,2.23-2.01,2.23-2.01,2.23-2.01,2.23-2.01,2.23-2.01,2.23Z"/>
          </g>
        </g>
        <g>
          <polygon class="st4" points="92.6 90.62 95.9 90.62 99.19 90.62 102.48 90.62 105.77 90.62 109.06 90.62 112.35 90.62 115.64 90.62 118.93 90.62 118.93 96.84 118.93 103.05 118.93 109.27 118.93 115.48 118.93 121.7 118.93 127.91 118.93 134.13 118.93 140.34 115.64 140.34 112.35 140.34 109.06 140.34 105.77 140.34 102.48 140.34 99.19 140.34 95.9 140.34 92.6 140.34 92.6 134.13 92.6 127.91 92.6 121.7 92.6 115.48 92.6 109.27 92.6 103.05 92.6 96.84 92.6 90.62"/>
          <g>
            <polygon class="st4" points="66.27 140.34 69.57 140.34 72.86 140.34 76.15 140.34 79.44 140.34 82.73 140.34 86.02 140.34 89.31 140.34 92.6 140.34 92.6 146.56 92.6 152.78 92.6 158.99 92.6 165.21 92.6 171.42 92.6 177.64 92.6 183.85 92.6 190.07 89.31 190.07 86.02 190.07 82.73 190.07 79.44 190.07 76.15 190.07 72.86 190.07 69.57 190.07 66.27 190.07 66.27 183.85 66.27 177.64 66.27 171.42 66.27 165.21 66.27 158.99 66.27 152.78 66.27 146.56 66.27 140.34"/>
            <polygon class="st4" points="39.94 90.62 43.24 90.62 46.53 90.62 49.82 90.62 53.11 90.62 56.4 90.62 59.69 90.62 62.98 90.62 66.27 90.62 66.27 96.84 66.27 103.05 66.27 109.27 66.27 115.48 66.27 121.7 66.27 127.91 66.27 134.13 66.27 140.34 62.98 140.34 59.69 140.34 56.4 140.34 53.11 140.34 49.82 140.34 46.53 140.34 43.24 140.34 39.94 140.34 39.94 134.13 39.94 127.91 39.94 121.7 39.94 115.48 39.94 109.27 39.94 103.05 39.94 96.84 39.94 90.62"/>
          </g>
          <g>
            <polygon class="st4" points="13.61 140.34 16.91 140.34 20.2 140.34 23.49 140.34 26.78 140.34 30.07 140.34 33.36 140.34 36.65 140.34 39.94 140.34 39.94 146.56 39.94 152.78 39.94 158.99 39.94 165.21 39.94 171.42 39.94 177.64 39.94 183.85 39.94 190.07 36.65 190.07 33.36 190.07 30.07 190.07 26.78 190.07 23.49 190.07 20.2 190.07 16.91 190.07 13.61 190.07 13.61 183.85 13.61 177.64 13.61 171.42 13.61 165.21 13.61 158.99 13.61 152.78 13.61 146.56 13.61 140.34"/>
            <polygon class="st4" points="-12.72 90.62 -9.42 90.62 -6.13 90.62 -2.84 90.62 .45 90.62 3.74 90.62 7.03 90.62 10.32 90.62 13.61 90.62 13.61 96.84 13.61 103.05 13.61 109.27 13.61 115.48 13.61 121.7 13.61 127.91 13.61 134.13 13.61 140.34 10.32 140.34 7.03 140.34 3.74 140.34 .45 140.34 -2.84 140.34 -6.13 140.34 -9.42 140.34 -12.72 140.34 -12.72 134.13 -12.72 127.91 -12.72 121.7 -12.72 115.48 -12.72 109.27 -12.72 103.05 -12.72 96.84 -12.72 90.62"/>
          </g>
        </g>
      </g>
    </g>
  </g>
  <g>
    <line class="st1" x1="39.73" y1="402.12" x2="39.73" y2="522.37"/>
    <line class="st1" x1="39.73" y1="0" x2="39.73" y2="284.7"/>
    <path class="st2" d="M4.26,365.19c6.17,10.21,13.23,14.93,18.06,17.1,4.19,1.89,7.41,2.17,8.75,2.19l.15.13.19-.07c.05.14.12.27.2.4,1.66,2.82,5.39,9.35,7.25,14.12-.48,11.22-.17,20.41.15,25.84v.19s1.87,1.67,1.87,1.67l-.07-1.14c-.32-5.15-.06-24.12-.04-24.13.22-.07.5-13.72,1.18-19.71.02-.19.05-.39.07-.58,1.79-5.75,5.61-10.22,6.85-11.56.04-.02.08-.04.13-.07.18-.09.41-.22.69-.39.55-.32,1.28-.75,2.06-1.22l.85.25c7.06,2.04,13.34,2.92,18.78,2.63,3-.16,5.75-.67,8.22-1.53,5.62-1.97,9.85-5.73,12.56-11.19,2.05-4.34,2.96-9.32,2.56-14.03-.33-3.94-1.56-7.13-3.37-8.76-.21-.19-.43-.36-.66-.51-7.53-4.88-18.58-3.84-30.31,2.87-2.62,1.5-4.71,3.99-6.2,7.42-1.21,2.77-2.01,6.09-2.38,9.85-.46,4.39-.22,8.53,0,10.92-2.14,1.3-3.58,2.13-3.77,2.22l.13.31-.18.2-.3-.27-.04.05c-.83.9-2.96,3.33-4.85,6.7,1.65-11.76,4.12-23,7.39-33.47.47-1.52.96-3.02,1.46-4.51.23-.08.44-.25.56-.49,3.61-7.3,9.83-10.76,11.65-11.65h0c.13-.03.31-.07.55-.12.38-.09.99-.24,1.81-.47.77-.21,1.81-.52,3.03-.91,5.9,4.09,11.18,6.02,15.74,5.78,1.27-.07,2.48-.3,3.64-.7,3.68-1.27,6.79-4.25,9.25-8.84,1.88-3.51,3.05-7.26,4.03-10.79.54-2.13-.01-4.24-1.42-5.51-.48-.43-1.03-.75-1.65-.95h0c-5.58-1.82-10.73-1.98-15.32-.47-3.8,1.24-7.09,3.56-9.78,6.89-2.46,2.97-3.98,6.29-4.83,8.55-.48,1.29-.8,2.37-.98,3.05-.11.41-.18.71-.22.9-.06.26-.11.52-.04.76-2.57.79-4.11,1.1-4.13,1.1l.04.25h-.01s-.14.15-.14.15h-.05s-.15-.29-.15-.29l-.07.04c-2.15,1.05-3.95,2.36-5.09,3.28-1.56,1.26-2.95,2.66-4.18,4.17,3.77-9.95,8.34-19.32,13.64-27.96.15-.09.35-.21.63-.39.46-.3,1.18-.79,2.05-1.45,1.4-1.07,3.41-2.79,5.4-5.06.63.03,1.45.04,2.43,0,3-.16,7.37-.9,11.54-3.53,3.94-2.36,7.23-5.99,9.78-10.8,2.96-5.57,4.83-12.62,5.58-20.96.16-1.62-.32-3.06-1.34-4.07-.04-.04-.09-.08-.13-.12-1.09-.98-2.64-1.41-4.37-1.19-8.18,1.06-14.78,4.07-19.66,8.95-.15-.15-.3-.3-.45-.44-1.17-1.05-2.55-1.74-4.1-2.03h0c-4.36-.8-9.46,1.66-13.3,6.42-4.08,5.06-5.41,11.23-3.65,16.93,1.6,5.2,4.28,10.95,7.95,17.1-7.04,11.53-12.79,24.33-17.11,38.06-.71-2.98-2.11-5.96-3.18-7.97.13-.26.29-.62.52-1.14.35-.8.88-2.12,1.48-3.83,1.01-2.88,2.33-7.33,2.92-12.17,1.39-11.72-2.17-19.89-10.59-24.29-.64-.33-1.31-.65-1.99-.93-2.02-.85-4.49-.79-6.76.17-2.51,1.05-4.49,3.02-5.44,5.41-2.87,7.44-3.5,14.08-1.87,19.77,1.62,5.75,6.44,13.47,20.13,17.69,1.39,2.58,3.55,7.22,3.49,10.91,0,.13.03.25.08.36-3.35,11.45-5.79,23.73-7.26,36.59-.03.1-.06.19-.09.28-.05.16-.05.33,0,.49-.53,4.7-.9,9.23-1.15,13.52-1.99-4.24-4.61-8.82-5.94-11.07l-.04-.07s-.02-.1-.03-.15c-.03-.16-.08-.42-.15-.79.06-.09.12-.18.18-.28.46-.75,1.18-1.98,1.96-3.61,1.32-2.75,3.02-7.07,3.66-12.07.69-5.73-.17-11.09-2.56-15.93-1.74-3.51-4.34-6.84-7.72-9.89-2.45-2.2-5.35-4.3-8.62-6.23-3.13-1.85-6.87-2.35-10.27-1.36-2.93.85-5.25,2.71-6.54,5.23-3.04,5.99-5.29,15.41,1.28,26.3ZM23.03,380.69c-4.61-2.06-11.35-6.59-17.28-16.4-6.16-10.2-4.06-19.01-1.22-24.6,1.07-2.09,3.01-3.64,5.47-4.35.8-.23,1.62-.37,2.45-.41,2.21-.12,4.47.43,6.44,1.6,13.46,7.93,19.53,18.13,18.05,30.32-.74,5.82-3.01,10.84-4.61,13.71-.05-.19-.09-.39-.14-.59-.56-2.3-1.52-5.87-2.93-9.79-1.65-4.54-3.45-8.37-5.5-11.72-2.62-4.26-5.64-7.65-9-10.1-.41-.28-.94-.2-1.22.19h0c-.28.39-.2.94.19,1.22,5.74,4.18,10.28,11.05,13.89,21,1.82,5.08,2.9,9.58,3.4,11.92,0,.01-.02.03-.03.04-1.11-.03-4.09-.29-7.96-2.03h0ZM77.61,294.2c2.65-2.65,6.07-7.59,9.47-12.7,3.9-5.93,7.36-11.49,7.4-11.54.22-.36.16-.83-.16-1.11h0s-.08-.07-.13-.1c-.19-.12-.43-.16-.65-.11-.23.05-.42.19-.54.39-.03.05-3.48,5.58-7.37,11.5-1.43,2.15-2.91,4.35-4.34,6.34.11-.28.23-.56.33-.84,1.49-4.01,2.01-8.16,1.55-12.33-.37-3.37-1.26-6.1-2.64-8.12,4.61-4.67,10.92-7.56,18.78-8.58,1.27-.15,2.35.14,3.06.83.64.63.93,1.57.83,2.65-1.69,18.97-8.84,27.01-14.53,30.42-4.04,2.54-8.27,3.18-11.04,3.29ZM69.28,299.5c1.94-4.29,3.03-9.19,3.26-14.64.1-2.42.07-6.17-.65-10.34l-.02-.14c-.02-.22-.12-.43-.29-.58l-.47-.42-.54.3c-.55.3-.45.84-.4,1.13h0c.61,3.53,2.08,15.45-3.3,25.63-3.3-5.64-5.81-11.11-7.28-15.86h0c-1.59-5.13-.37-10.71,3.34-15.31,2.9-3.59,6.52-5.73,9.82-5.91.61-.03,1.21,0,1.8.11,3.77.71,6.22,4.41,6.87,10.43,1.05,9.54-3.69,16.8-6.61,20.28-1.92,2.32-3.95,4.1-5.52,5.31ZM70.62,274.74h0ZM44.62,330.17c-1.77-11.81-4.79-21.38-8.52-26.94-.08-.12-.2-.23-.33-.3-.27-.14-.61-.13-.86.04-.2.12-.33.31-.38.54-.05.23,0,.46.13.66,3.6,5.38,6.54,14.74,8.26,26.36l.04.27c-11.77-4.07-15.97-10.88-17.41-15.99h0c-1.53-5.31-.91-11.59,1.81-18.65.78-1.95,2.41-3.56,4.49-4.43.87-.37,1.77-.57,2.64-.62.98-.05,1.92.1,2.76.45,9.03,3.78,12.91,11.65,11.52,23.4-.83,6.79-3.05,12.65-4.14,15.22ZM69.47,321.49c.38-1.62,1.85-6.97,5.6-11.51,2.33-2.88,6.81-6.85,13.95-7.22,2.69-.14,5.77.23,9.25,1.36,1.61.53,2.42,2.35,1.93,4.34-1.31,4.7-4.37,15.72-12.16,18.42-4.53,1.57-10.15.17-16.72-4.14.35-.12.71-.25,1.07-.39,4.58-1.7,11.3-4.69,17.3-9.28.39-.3.49-.84.23-1.23-.04-.05-.08-.1-.13-.14-.3-.27-.77-.28-1.12-.02-5.73,4.38-12.16,7.27-16.54,8.91-.93.35-1.8.66-2.61.93-.02-.01-.04-.03-.06-.04ZM53.78,366.72c1.54-.95,3.63-2.26,5.95-3.78,5.34-3.5,12.44-8.45,15.99-12.22.16-.17.24-.39.24-.63,0-.23-.1-.45-.28-.61h-.01c-.35-.33-.9-.31-1.22.04-4.45,4.72-14.62,11.4-20.97,15.33-.19-2.38-.32-5.95.07-9.72h0c.45-4.56,2.05-12.7,7.72-15.93,6.09-3.48,11.94-5.37,17.14-5.64,4.33-.23,8.19.67,11.35,2.72,1.67,1.08,2.91,4.13,3.24,7.95.37,4.41-.48,9.07-2.39,13.12-2.5,5.02-6.39,8.49-11.57,10.3-6.46,2.26-14.96,1.95-25.25-.93ZM48.33,368.91h0s.03-.03.03-.03h0s-.03.03-.03.03Z"/>
  </g>
</svg>