<?xml version="1.0" encoding="UTF-8"?>
<svg id="Layer_1" xmlns="http://www.w3.org/2000/svg" version="1.1" viewBox="0 0 694.76 852.47">
  <!-- Generator: Adobe Illustrator 29.1.0, SVG Export Plug-In . SVG Version: 2.1.0 Build 142)  -->
  <defs>
    <style>
      .st0 {
        fill: #f8f5e3;
      }
    </style>
  </defs>
  <path class="st0" d="M544.11,497.87c-31.28,0-52.39,5.82-71.17,15.54v-145.63c0-11.65,1.55-29.14-18.78-29.14h-3.01c.25-7.97.74-17.32,1.64-27.65.04,0,.08,0,.12-.01.42-.1.79-.37,1.01-.76.22-.37.28-.82.18-1.25-.23-.92-.53-1.91-.86-2.93.97-9.98,2.32-20.78,4.2-32.08.05-.32.11-.63.17-.94,3.93-10.77,11.66-18.93,14.19-21.4.09-.03.18-.07.27-.12.31-.15.76-.37,1.33-.66,1.07-.55,2.49-1.3,4.03-2.11l1.58.55c13.18,4.58,24.99,6.86,35.34,6.86l.02-.03c5.71,0,10.95-.69,15.74-2.09,10.87-3.17,19.24-9.88,24.93-19.97,4.32-8,6.54-17.36,6.24-26.34-.25-7.51-2.27-13.68-5.53-16.95-.37-.39-.78-.73-1.19-1.03-13.79-9.99-34.85-9.11-57.75,2.44-5.11,2.58-9.31,7.11-12.49,13.46-2.58,5.14-4.43,11.34-5.5,18.44-1.3,8.29-1.27,16.16-1.08,20.71-4.19,2.26-7.01,3.69-7.37,3.83l.21.61-.36.36-.55-.54-.09.07c-1.66,1.61-5.91,6.01-9.83,12.18,4.29-22.11,10.07-43.16,17.29-62.67,1.04-2.82,2.12-5.61,3.22-8.39.45-.12.87-.42,1.12-.86,7.56-13.49,19.7-19.42,23.24-20.93.24-.03.58-.09,1.07-.18.72-.13,1.88-.36,3.46-.7,1.49-.33,3.5-.8,5.86-1.43,10.76,8.32,20.56,12.5,29.24,12.5h0c2.41-.01,4.74-.34,6.98-.98,7.09-2.04,13.29-7.38,18.41-15.83,3.92-6.47,6.5-13.46,8.72-20.09,1.22-3.95.39-7.99-2.16-10.54-.86-.86-1.89-1.52-3.04-1.97-10.39-3.99-20.15-4.8-28.99-2.41-7.32,1.97-13.79,6.04-19.23,12.07-4.96,5.41-8.18,11.54-10,15.74-1.04,2.41-1.74,4.43-2.15,5.69-.24.78-.4,1.34-.49,1.68-.13.49-.26.97-.14,1.45-4.93,1.23-7.92,1.68-7.92,1.68l.04.49-.04-.04-.28.27h-.09l-.25-.55-.15.06c-4.19,1.77-7.74,4.08-9.97,5.71-3.09,2.24-5.87,4.74-8.35,7.49,8.13-18.49,17.71-35.8,28.61-51.66.3-.16.69-.37,1.26-.7.89-.51,2.31-1.37,4.04-2.55,2.74-1.9,6.74-4.95,10.73-9.07,1.18.12,2.73.23,4.59.23h-.01c5.68-.01,14.04-.98,22.21-5.54,7.72-4.1,14.32-10.66,19.63-19.51,6.16-10.28,10.4-23.46,12.64-39.17.46-3.06-.3-5.84-2.15-7.85-.07-.07-.16-.16-.24-.24-1.95-1.95-4.86-2.91-8.17-2.68-15.6,1.21-28.42,6.26-38.14,15.01-.26-.3-.52-.61-.79-.88-2.12-2.1-4.66-3.53-7.59-4.25-8.2-1.95-18.09,2.21-25.84,10.85-8.24,9.2-11.37,20.75-8.59,31.72,2.52,10.04,7.03,21.2,13.39,33.21-14.5,21.17-26.65,44.86-36.19,70.46-1.06-5.73-3.42-11.52-5.25-15.43.27-.48.61-1.14,1.09-2.1.73-1.48,1.89-3.92,3.19-7.11,2.19-5.37,5.14-13.67,6.74-22.77,3.78-22.06-2.15-37.9-17.66-47.08-1.16-.69-2.4-1.36-3.68-1.97-3.76-1.82-8.44-1.94-12.83-.36-4.86,1.76-8.81,5.29-10.85,9.73-6.18,13.8-8.03,26.34-5.5,37.27,2.52,11.06,10.88,26.16,36.39,35.51,2.36,5.01,6.02,14.04,5.55,21.04-.02.25.04.49.13.71-7.46,21.33-13.31,44.34-17.37,68.51-.08.21-.16.42-.24.63-.1.29-.09.59-.03.88,0,0,0,0,0,.01-1.47,8.87-2.63,17.45-3.52,25.57-3.36-8.25-7.88-17.21-10.17-21.62l-.07-.13c0-.07-.03-.18-.03-.28-.04-.29-.1-.8-.21-1.49.12-.16.23-.31.36-.5.94-1.37,2.43-3.62,4.07-6.65,2.76-5.08,6.42-13.1,8.12-22.53,1.88-10.81.78-21.04-3.28-30.45-2.94-6.83-7.54-13.4-13.65-19.51-4.43-4.43-9.72-8.67-15.72-12.65-5.75-3.82-12.79-5.14-19.33-3.61-5.63,1.31-10.22,4.61-12.92,9.27-6.35,11.04-11.55,28.68-.16,49.97,10.69,19.96,23.59,29.61,32.55,34.19,7.76,3.99,13.83,4.84,16.38,5.02l.27.25-.02.03.41-.13c.08.26.19.51.31.75,2.88,5.51,9.3,18.26,12.35,27.49-1.17,12.21-1.77,23.16-2.05,32.23h-42.95v6.47c17.21,0,21.12-.66,21.12,22.65v370.3c0,23.29-3.91,22.65-21.12,22.65v6.47h44.58c12.52,0,17.99-5.83,21.12-13.59,20.34,9.06,43.03,13.59,69.62,13.59,203.36,0,211.96-269.31,3.9-269.31ZM482.06,224.6c1.31-8.61,5.16-23.88,16.2-29.44,21.77-10.97,41.57-11.95,54.31-2.71,3.07,2.21,5.11,8.11,5.35,15.38.27,8.39-1.8,17.14-5.83,24.62-5.23,9.29-12.95,15.47-22.95,18.39-12.48,3.65-28.54,2.2-47.76-4.27,3.01-1.64,7.09-3.92,11.66-6.58,10.46-6.1,24.41-14.8,31.51-21.58.31-.31.49-.72.51-1.16.01-.45-.15-.86-.48-1.21l-.03-.03c-.64-.61-1.67-.61-2.31,0-8.9,8.52-28.86,20.18-41.28,27-.12-4.53-.01-11.32,1.1-18.41ZM433,145.37c-2.37-10.22-.6-22.04,5.28-35.16,1.65-3.62,4.92-6.53,8.94-7.97,1.68-.61,3.4-.91,5.07-.91h.03c1.85,0,3.62.39,5.19,1.13,16.74,8.05,23.31,23.35,19.51,45.49-2.1,11.96-6.72,23.06-9.36,28.46-2.19-22.57-6.97-41-13.49-51.92-.15-.24-.36-.45-.61-.6-.51-.28-1.13-.3-1.64-.01-.39.21-.66.57-.78.98-.12.43-.04.88.18,1.27,6.3,10.54,10.94,28.59,13.07,50.87l.04.41c-21.9-8.87-29.21-22.21-31.43-32.04ZM533.73,111.47c5.28-4.77,12.26-13.78,19.19-23.13,7.97-10.85,15.1-21.06,15.16-21.15.46-.66.39-1.55-.18-2.12-.06-.07-.15-.13-.22-.19-.36-.25-.8-.34-1.24-.27-.43.07-.82.33-1.07.69-.07.1-7.06,10.13-15.11,21.07-2.91,3.93-5.93,7.93-8.83,11.56.24-.51.48-1.02.7-1.53,3.22-7.45,4.62-15.26,4.16-23.22-.37-6.43-1.78-11.68-4.2-15.65,9.18-8.4,21.44-13.26,36.42-14.41,2.43-.16,4.46.51,5.72,1.88,1.15,1.24,1.61,3.06,1.3,5.11-5.08,35.78-19.42,50.33-30.57,56.23-7.89,4.4-15.96,5.21-21.23,5.13ZM528.4,111.17c-3.89,4.22-7.92,7.4-11.03,9.54,4.11-7.94,6.7-17.13,7.66-27.44.42-4.56.73-11.68-.21-19.66l-.03-.27c-.01-.42-.18-.82-.49-1.13l-.83-.83-1.06.52c-1.07.52-.94,1.55-.88,2.1.8,6.75,2.4,29.5-8.78,48.25-5.69-11.03-9.92-21.65-12.23-30.8-2.5-9.88.34-20.33,7.84-28.69,5.86-6.53,12.92-10.22,19.2-10.22h0c1.16.01,2.3.15,3.4.4,7.08,1.71,11.34,8.99,12,20.45,1.06,18.17-8.66,31.46-14.55,37.78ZM515.6,162.41h-.01c.88-3.03,4.2-13.04,11.77-21.27,6.48-7.18,20.88-17.9,44.56-8.79,3,1.15,4.35,4.68,3.22,8.41-2.95,8.79-9.84,29.38-24.87,33.73-8.72,2.52-19.24-.67-31.26-9.48.67-.2,1.36-.41,2.07-.63,8.84-2.77,21.88-7.78,33.71-15.89.78-.54,1.01-1.55.55-2.31-.06-.09-.13-.19-.22-.28-.55-.55-1.45-.61-2.12-.15-11.3,7.75-23.77,12.58-32.24,15.26-1.79.57-3.47,1.06-5.03,1.5-.04-.03-.08-.06-.12-.1ZM406.22,182.25c4.2,0,8.42,1.25,12.06,3.67,24.73,16.36,35.23,36.29,31.22,59.26-1.99,10.98-6.79,20.29-10.11,25.56-.07-.39-.14-.77-.22-1.19-.83-4.41-2.31-11.28-4.59-18.84-2.67-8.76-5.69-16.2-9.27-22.76-4.55-8.32-9.94-15.05-16.07-20.06h-.03c-.72-.55-1.73-.43-2.3.27-.58.72-.48,1.76.24,2.34,10.46,8.5,18.39,21.97,24.25,41.18,2.96,9.83,4.57,18.49,5.28,22.95-.01.02-.03.04-.05.06-2.1-.18-7.74-.95-14.9-4.65-8.54-4.37-20.87-13.61-31.13-32.8-10.66-19.96-5.81-36.44.12-46.75,2.24-3.86,6.08-6.6,10.81-7.71,1.54-.36,3.1-.54,4.68-.54h.01ZM540.98,760.07c-26.6-.66-53.19-11.01-68.05-27.84v-190.98h0c17.99-22,35.98-36.25,71.18-36.25,147.83,0,134.54,257.66-3.13,255.07Z"/>
  <path class="st0" d="M175.24,490.3h-32.62v6.47c17.21,0,21.12-.66,21.12,22.65v217.52c0,75.74-28.94,107.46-72.75,104.22-35.2-2.59-43.03-23.29-50.06-49.2-2.35-8.42-10.95-12.3-19.55-12.3-10.95,0-21.12,5.83-19.55,16.19,5.47,32.37,45.37,53.09,89.94,53.73h0c65.7,1.31,118.89-40.78,118.89-112.63v-217.52c0-3.03-1.42-14.74,2.3-20.78h1.47l-.02-.02c3.1-2.95,8.41-2.8,17.21-2.8v-6.47h-49.27c-2.76,0-5.11.33-7.12.92Z"/>
  <rect class="st0" x="314.77" y="348.39" width="7.99" height="442.11"/>
</svg>