<?xml version="1.0" encoding="UTF-8"?>
<svg id="Layer_1" xmlns="http://www.w3.org/2000/svg" version="1.1" viewBox="0 0 451.06 410.85">
  <!-- Generator: Adobe Illustrator 29.1.0, SVG Export Plug-In . SVG Version: 2.1.0 Build 142)  -->
  <defs>
    <style>
      .st0 {
        fill: #bd5038;
      }
    </style>
  </defs>
  <path class="st0" d="M225.37,322.71c-6.16-.22-11.51,4.71-11.72,10.98-.21,6.27,4.71,11.51,10.98,11.72,82.24,2.7,123.78,14.31,135.14,21.11-13.9,8.47-70.54,21.63-167.42,21.63s-153.49-13.17-167.38-21.63c11.35-6.8,52.9-18.41,135.14-21.11,6.27-.21,11.18-5.45,10.98-11.72-.21-6.27-5.59-11.19-11.72-10.98-59.52,1.95-159.36,10.24-159.36,43.77,0,16,19.22,26.64,62.32,34.51,34.85,6.36,81.02,9.86,130.02,9.86s95.18-3.5,130.04-9.86c43.12-7.87,62.35-18.51,62.35-34.51,0-33.54-99.85-41.82-159.36-43.77Z"/>
  <path class="st0" d="M104.35,311.21c26.91,0,48.81-21.9,48.81-48.81s-21.9-48.81-48.81-48.81-48.81,21.9-48.81,48.81,21.9,48.81,48.81,48.81ZM104.35,231.76c16.9,0,30.64,13.75,30.64,30.64s-13.75,30.64-30.64,30.64-30.64-13.75-30.64-30.64,13.75-30.64,30.64-30.64Z"/>
  <path class="st0" d="M192.36,377.84c6.27,0,11.35-5.08,11.35-11.35V11.35c0-6.27-5.08-11.35-11.35-11.35s-11.35,5.08-11.35,11.35v355.13c0,6.27,5.08,11.35,11.35,11.35Z"/>
  <path class="st0" d="M446.36,64.38c-3.55-2.57-8.26-2.86-12.1-.76-49.84,27.25-91.2,21.74-122.92-16.4C274.9,3.41,225.42,5.16,223.33,5.26c-6.26.29-11.11,5.6-10.82,11.86.29,6.26,5.58,11.06,11.86,10.82.42-.02,40.2-1.42,69.5,33.79,33.01,39.68,75.44,51.24,123.88,34.17-6.02,9.24-15.2,19.61-29.07,28.28-36.86,23.04-91.33,25.17-161.9,6.32-6.05-1.62-12.28,1.98-13.9,8.04-1.62,6.06,1.98,12.28,8.04,13.9,33.53,8.95,63.94,13.42,91.1,13.42,35.41,0,65.27-7.61,89.28-22.8,41.59-26.32,49.26-65.78,49.57-67.44.79-4.31-.97-8.69-4.52-11.25Z"/>
</svg>