<?xml version="1.0" encoding="UTF-8"?>
<svg id="Layer_1" xmlns="http://www.w3.org/2000/svg" version="1.1" viewBox="0 0 694.76 852.47">
  <!-- Generator: Adobe Illustrator 29.1.0, SVG Export Plug-In . SVG Version: 2.1.0 Build 142)  -->
  <defs>
    <style>
      .st0 {
        fill: #f8f5e3;
      }
    </style>
  </defs>
  <path class="st0" d="M542.41,500.75c-31.28,0-52.4,5.83-71.17,15.54v-145.65c0-11.65,1.56-29.13-18.77-29.13h-9.17c1.65-2.35,3.4-4.57,5.26-6.64,9.72,3.53,32.03,7.32,47.54,5.65,7.74-.84,15.69-4.59,22.98-10.85,6.45-5.54,11.7-12.3,16.77-18.84l2.1-2.7-3.38.57c-8.19,1.39-16.68,1.72-24.89,2.04-2.86.11-5.82.22-8.73.38-10.41.56-22.54,1.79-33.53,6.58-6.75,2.94-13.04,7.37-18.6,13-.71-4.79.21-10.11,2.62-14.91,2.47-4.92,6.43-9.41,11.76-13.36,8.97-6.65,20.07-10.38,31.23-10.5.13,0,.25,0,.38,0,10.68,0,26.23,4.99,35.65,14.65l1.91-1.86c-9.94-10.19-26.33-15.45-37.57-15.45-.13,0-.26,0-.4,0-11.72.13-23.37,4.05-32.79,11.03-5.67,4.2-9.89,9.01-12.55,14.31-3.04,6.04-3.92,12.59-2.49,18.5-2.33,2.59-4.5,5.41-6.52,8.42h-1.82c1.81-22.25,5.57-44.59,11.25-66.44,7.97-10.9,15.78-18.74,23.96-24.99,2.48-1.04,9.03-3.72,12.84-3.83.9-.03,1.8-.03,2.7-.02.08.32.21.59.3.78,1.96,4.09,4.19,8.73,7.68,12.29,4.59,4.68,10.76,6.99,15.62,8.47,7.81,2.38,15.65,3.57,23.22,3.57,9.45,0,18.5-1.85,26.57-5.53l3.92-1.79-4.25-.74c-10.42-1.81-20.59-5.58-30.43-9.23-2.24-.83-4.48-1.66-6.73-2.47-9.57-3.45-19.73-6.67-30.17-7.69,2.96-1.48,6.42-2.44,10.17-2.83,4.14-.42,8.59-.21,14.43.69,5.19.8,10.21,2.16,14.91,4.02,6.08,2.41,11.83,4.69,25.35,16.56l1.76-2c-13.87-12.17-19.82-14.53-26.13-17.03-4.89-1.94-10.1-3.34-15.49-4.18-6.07-.94-10.73-1.16-15.11-.71-5.57.57-10.57,2.34-14.46,5.11-.03.02-.06.04-.09.06-1.28-.04-2.57-.04-3.87,0-1.33.04-2.88.34-4.51.76,7.58-4.79,15.59-8.71,24.41-12.79,2.14-.99,4.31-1.95,6.5-2.88,3.19,1.86,6.9,3.8,10.96,5.06,13.53,4.21,29.66,0,41.1-10.74,9.9-9.29,16.43-23.16,18.38-39.05l-2.64-.32c-1.87,15.27-8.11,28.56-17.56,37.43-10.75,10.09-25.86,14.07-38.48,10.14-3.1-.97-6.02-2.37-8.65-3.82,1.74-.73,3.48-1.44,5.19-2.14,11.06-4.55,22.5-9.24,32.49-16.25,12.44-8.72,22.12-20.58,31.48-32.04l2.39-2.92-3.69.78c-5.06,1.07-10.39,1.58-15.54,2.08-9.09.88-18.5,1.79-26.96,5.75-8.47,3.97-23.68,14.95-30.36,43.84l-.03.15c-1.9.82-3.8,1.66-5.67,2.52-20.67,9.57-37,18.23-53.69,39.17,12.34-44.23,32.63-86.62,58.75-122.71,1.61-.12,3.18-.37,4.68-.76,1.11,3.85,3.81,9.17,6.59,11.83l.49.47.66-.11c3.46-.6,6.94-2.44,10.05-5.31.22-.21.46-.45.69-.69,2.58,4.62,6.34,9.3,11.21,13.94.37.35.98.94,1.87,1.1.16.03.32.04.47.04.81,0,1.51-.37,2.05-.71,2.9-1.84,4.88-4.63,6.28-6.85.8-1.27,1.53-2.69,2.18-4.2,2.21,3.68,5.79,5.53,8.52,6.93.65.33,1.26.64,1.79.95.22.13.7.41,1.31.41.18,0,.38-.03.58-.09.71-.23,1.07-.81,1.24-1.09l2.26-3.71c.06-.1.12-.21.18-.32,2.97,2.24,6.73,3.63,8.84,4.41l.23.08c.35.13.92.34,1.58.34.24,0,.48-.03.73-.1.68-.18,1.16-.6,1.56-.98,3.49-3.3,5.86-7.58,7.07-12.5.57.16,1.21.34,1.9.54,3.25.94,6.92,2.01,8.98,2.04.05,0,.11,0,.17,0,.47,0,1.2-.05,1.83-.54.63-.49.85-1.19.98-1.61,1.21-3.84,2.47-7.8,2.46-12.02,0-2.24-.39-4.47-1.09-6.64,1.43.31,2.97.44,4.48.44,4.62,0,9.01-1.11,9.3-1.18.3-.08,1.01-.26,1.45-.91.31-.45.32-.91.33-1.2,1.12-6.09-.06-11.41-1.92-14.64,1.95-.28,3.79-.55,4.82-.83.65-.18,1.54-.42,2.24-1.09,1.06-1.01,1.18-2.49,1.18-3.52,0-3.76-1.19-7.45-3.25-10.57,1.74-.56,3.47-1.64,4.87-2.51.44-.28.84-.53,1.16-.71.96-.54,2.5-2.25,2.85-3.4.28-.89.1-1.73-.09-2.45-1.31-4.96-3.68-9.71-6.85-13.75-.26-.33-.51-.63-.76-.93,1.65-2.78,3.94-7.63,4.49-10.44l.18-.9-.78-.49c-3.37-2.1-8.44-3.05-12.73-3.29.98-1.77,1.8-3.63,2.44-5.6l.38-1.18-1.15-.47c-4.16-1.69-8.27-2.81-12.42-3.4,1.27-3.21,1.58-7.94,1.5-10.15-.02-.57-.05-1.15-.08-1.72-.13-2.35-.25-4.58.32-6.66l.39-1.43-1.47-.23c-3.31-.52-6.73-1.06-10.22-.84-2.93.19-5.83.93-8.5,2.16.01-.49.02-.99.01-1.5-.03-2.13-.19-4.28-.34-6.35-.14-1.88-.28-3.81-.33-5.71l-.04-2-1.83.82c-4.59,2.05-8.6,5.31-11.59,9.33-1.18-4.16-3.61-8.88-5.14-11.45l-3.66-6.14-1.12.6c-4.72,2.52-8.47,6.75-10.49,11.69-2.33-5.44-5.15-10.68-8.44-15.66L546.13,0l-.91,2.46c-2.35,6.35-3.51,13.05-3.48,19.76-3.48-3.84-7.2-6.41-11.09-7.62-.81-.25-1.64-.45-2.45-.64-1.81-.43-3.53-.84-4.88-1.81l-1.64-1.18-.43,1.97c-.42,1.92-.84,4.12-1.13,6.47-3.86-.91-8.67-1.22-12.94-.81-1.64.16-3.67.55-4.88,2.17-1.27,1.7-.99,3.82-.63,5.67.13.69.29,1.78.45,2.84.06.43.12.86.19,1.27-1.91-.18-3.75-.5-5.52-1.15l-3.04-1.11,2.78,5.88c-3.24-.2-7.6-.27-10.86.45-.33.07-.87.19-1.35.58-.89.72-.97,1.87-1,2.3-.27,4.06,1.54,8.18,3.13,11.82.07.15.13.3.19.45l-4.86,2.65.72,1.19c1.89,3.12,4.29,5.9,7.07,8.24-5.58,3.09-11.96,9.41-13.86,15.71-.14.47-.47,1.56.1,2.55.41.71,1.1,1.05,1.51,1.24l1.22.6c2.52,1.23,5.12,2.51,9.19,3.87l-4.17,5.79,4.83,2.31c-3.56,3.05-7.63,7.72-9.35,11.77l-.47,1.11,1.41.77c2.6,1.43,5.75,3.16,8.93,3.6-.93,2.03-1.67,3.98-2.17,5.82l-.26.96.85.52c3.69,2.26,8.81,3.62,13.68,3.85-1.29,6.24-2.21,15.05-1.41,21.41l.12.93.92.2c2.06.45,4.11.7,6.11.77-26,36.34-46.17,78.88-58.38,123.22-.46,1.67-.89,3.35-1.32,5.03-.15.2-.29.4-.44.6l.24.17c-1.49,5.75-2.84,11.52-4.07,17.33-2.92-24.8-8.97-49.37-15.76-71.13-.33-6.38.41-12.98,2.09-19.49.81-.09,1.56-.33,2.25-.54,2.61-.8,5.32-1.64,7.87-2.9,5.72-2.84,10.58-7.88,13.67-14.19,2.73-5.57,4.12-12.02,4.13-19.18,0-.42,0-.84,0-1.26-.02-1.8-.03-3.51.31-5.14l.75-3.55-2.87,2.22c-.86.67-1.71,1.36-2.54,2.06l-.82-1.76c-9.66,4.5-17.99,11.48-24.1,20.2-3.13,4.47-4.79,8.31-5.23,12.09-.21,1.85-.25,7.29,2.14,10.19.52.63,1.13,1.1,1.8,1.4-1.01,3.97-1.67,7.96-1.98,11.92-3.72-11.29-7.57-21.69-11.18-30.77,1.38.55,2.78,1.04,4.21,1.43l.99.27.52-.89c1.83-3.16,2.91-6.72,3.16-10.35.45.03.9.06,1.37.06,2.13,0,4.34-.4,6.04-1.65,1.68-1.24,2.58-3.09,2.67-5.5.06-1.66-.11-3.31-.46-4.94,4.64-.72,9.2-2.31,13.26-4.66.17-.1.5-.29.75-.64.37-.51.37-1.06.38-1.29.06-3.09-1.48-6.05-3.92-7.87.19-.08.38-.16.57-.26,2.28-1.11,4.25-2.67,6.15-4.18,5.96-4.72,12.12-9.61,16.98-15.76l1.04-1.32-1.52-.71c-3.93-1.85-8.36-3.94-13.06-5.4,3.16-3.05,5.21-7.65,5.73-13.02l.14-1.49-1.5.03c-2.24.05-4.47.46-6.59,1.18,1.41-4.77,1.93-9.77,1.42-14.7l-.15-1.46-1.44.29c-3.43.69-6.89,1.51-10.33,2.67.69-3.45.39-7.12-.9-10.37-.1-.25-.31-.78-.85-1.12-.8-.51-1.66-.23-1.98-.13-2.66.88-5.13,2.3-7.25,4.13-.82-2.36-1.89-4.63-3.2-6.72l-.91-1.45-1.18,1.25c-1.38,1.46-2.73,2.57-4.04,3.66-1.23,1.02-2.45,2.02-3.63,3.26-1.27-2.5-3.36-4.47-5.12-6.12-.2-.19-.59-.55-1.18-.66-.61-.11-1.51.01-2.31,1.23-1.58,2.41-2.63,4.52-3.38,6.91-.73-1.12-1.51-2.2-2.36-3.23l-1.1-1.34-1.01,1.41c-1.6,2.24-3.04,4.74-4.28,7.36-1.83-2.33-4.22-4.22-6.91-5.44l-.98-.45-.64.87c-2.73,3.72-4.22,7.25-4.72,11.2-2.28-2.01-4.59-3.63-6.84-4.69l-1.81-.85-.09,2c-.08,1.75-.02,3.51.17,5.28-2.32-1.25-5.07-1.81-7.94-2.26l-.75-.12-.48.58c-1.56,1.86-1.82,4.38-1.88,6.11-.08,2.28.11,4.55.54,6.78-5.48-.75-10.92-.94-15.18-.57l-1.88.17.79,1.72c2.17,4.69,5.6,8.95,10,12.51-5.53-1.22-8.57-1.16-11.33-1.1l-.81.02c-4.85.08-10.16,2.22-14.21,5.72l-.65.57.25.83c1.13,3.72,3.7,7.13,7.2,9.73-2.85,1.47-5.43,3.45-7.56,5.84l-1.03,1.15,1.29.85c2.32,1.52,5.09,3.31,8.19,4.2-3.02,3.06-5.48,6.74-6.78,10.96l-.45,1.46,1.51.25c2.12.35,4.24.51,6.36.51,1.47,0,2.94-.08,4.41-.23-1.93,2.52-3.01,4.88-3.27,7.17l-.14,1.26,1.25.2c1.07.17,2.14.26,3.21.26,2.51,0,5-.47,7.33-1.37-1.21,3.65-1.95,7.29-2.13,10.33-.02.4-.07,1.22.48,1.91.27.35.83.82,1.82.82.36,0,.77-.06,1.25-.21,4.19-1.34,9.31-3.18,13.83-5.88.21,3.17,1.23,6.31,3.03,9.21l.58.93,1.02-.39c6.14-2.31,10.78-5.93,13.31-10.32.86,1.41,1.74,2.66,2.55,3.79.44.62.85,1.2,1.23,1.76l.43.64.76-.05c5.22-.32,10.28-3.13,13.83-7.58,2.12,1.73,4.42,3.24,6.86,4.49l-.16.07c11.87,29.55,26.89,74.11,31.01,118.57l.44-.04c-1.15,5.98-2.15,11.99-3.02,18-.97-7.11-2.3-14.94-5.19-22.16v-.04c2.44-14.1-3.45-29.57-14.65-38.49-6.48-5.16-14.93-8.47-23.81-9.32-8.11-.78-16.85.42-25.3,3.47-8.32,3-13.61,6.14-19.54,11.6l1.8,1.96c5.64-5.19,10.69-8.18,18.64-11.05,8.08-2.91,16.42-4.06,24.14-3.32,8.37.8,16.32,3.91,22.4,8.75,9.36,7.45,14.75,19.81,14.15,31.76-1-1.88-2.13-3.7-3.42-5.42-3.44-4.57-8.17-8.67-14.07-12.2-6.06-3.62-11.99-5.79-17.63-6.47-5.16-.62-10.37-.03-15.4.53-1.5.17-2.99.34-4.48.47-10.34.95-19.09.2-26.75-2.28l-3.96-1.29,2.48,3.35c11.22,15.13,27.39,26.28,45.51,31.41,11.19,3.17,20.83,3.1,28.64-.18.52-.22,1.05-.46,1.58-.69,2.52-1.13,4.92-2.2,7.12-1.78,3.35,8.21,4.54,17.38,5.63,25.75.43,3.32.88,6.75.2,9.99l.1.02c-.35,3.29-.65,6.58-.92,9.87h-32.38v6.47c17.21,0,21.12-.65,21.12,22.66v370.28c0,23.3-3.91,22.65-21.12,22.65v6.47h44.58c12.51,0,17.99-5.83,21.12-13.59,20.34,9.06,43.02,13.59,69.61,13.59,203.36,0,211.96-269.3,3.91-269.3ZM468.48,320.13c10.61-4.63,22.44-5.81,32.61-6.36,2.89-.16,5.84-.27,8.69-.38,7.2-.28,14.61-.56,21.9-1.56-4.37,5.58-8.96,11.18-14.35,15.81-6.88,5.91-14.33,9.45-21.53,10.23-14.6,1.58-35.34-1.81-45.27-5.13,5.36-5.47,11.43-9.77,17.94-12.61ZM523.98,254.08c2.24.81,4.47,1.64,6.7,2.46,8.58,3.18,17.42,6.46,26.53,8.49-13.12,4.77-28.51,4.86-43.85.18-6.77-2.07-11.25-4.47-14.5-7.79-3.05-3.11-5.05-7.15-6.94-11.09,11.04.67,21.88,4.07,32.07,7.75ZM542.17,185.02c8.05-3.77,16.81-4.62,26.09-5.51,4.02-.39,8.16-.79,12.22-1.45-8.54,10.42-17.51,20.92-28.64,28.73-9.74,6.83-21.04,11.47-31.97,15.96-2.04.84-4.1,1.69-6.18,2.56,6.61-26.49,20.61-36.6,28.47-40.29ZM522.68,154.25c-2.23-2.44-4.5-7-5.42-10.21.77-.29,1.52-.6,2.24-.96,4.97-2.48,10.35-8.95,14.32-13.75l2.03-.41c.1.5-.12.88-.21.98.07-.08.22-.21.4-.36.26,3.24,1.02,6.61,2.26,10.16-.27.39-.55.8-.85,1.24-1.96,2.89-4.64,6.85-6.74,8.79-2.53,2.33-5.29,3.88-8.03,4.51ZM528.02,82.45l-.03-.06c3.38,1.47,7.12,2.33,11.02,2.53-1.78,2.71-2.9,5.68-3.67,8.03-.44,1.34-.83,2.68-1.19,4.04l-.13-.14c-4.35,3.92-10.26,5.76-15.95,7.31-2.58.7-4.91,1.28-7.25,1.22-2.15-.06-4.05-.72-5.37-1.84,4.86-9.21,13.04-16.86,22.55-21.08ZM498.24,68.8c4.42-3.23,9.62-6.68,15.41-8.98,6.24-2.47,12.42-3.22,17.92-2.21.31.74.64,1.48,1,2.2.96,1.9,2.1,3.64,3.38,5.19-6.32,1.45-12.22,4.84-16.39,9.79l-.77.91.81.86c1.59,1.69,3.43,3.14,5.46,4.33-2.09,1.03-4.09,2.21-6,3.52-7.57-1.17-12.78-6.85-18.29-12.87-.83-.91-1.68-1.83-2.54-2.75ZM552.95,45.3c.38.29.74.57,1.09.86-.6,2.31-.88,4.44-.85,6.48.03,3.35.97,6.58,2.63,9.11.72,1.09,1.98,1.68,3.29,1.55,1.31-.13,2.42-.96,2.9-2.16,1.07-2.67,1.08-5.85.03-8.74-.92-2.54-2.56-4.89-4.97-7.13.37-1.18.83-2.42,1.37-3.74,2.46-5.92,5.78-11.41,9.89-16.32,1.71,1.68,3.19,3.39,4.48,5.13.14.5.54.91.87,1.19,2.29,3.35,3.81,6.8,4.52,10.31.05.27.1.54.15.81-4.81,3.98-8.48,9.77-10.37,16.4-.39,1.36.1,2.79,1.24,3.65,1.16.87,2.7.93,3.92.16.26-.16.51-.34.74-.52,5.2-3.99,7.98-11.2,7.3-18.52,5.39-3.94,12.21-5.46,18.23-4.07.02,4.64-.03,9.4-1.09,13.9-.85,3.57-2.32,6.69-4.27,9.1-.13-.02-.26-.05-.38-.07-4.24-.71-10.25-.95-14.78,1.99-1.02.66-1.54,1.82-1.37,3.02.17,1.2,1,2.17,2.16,2.51,4.16,1.25,9.1.33,12.88-2.38.88-.63,1.71-1.35,2.48-2.16,10.13,2.14,18.12,7.62,21.85,14.97-4.35,1.72-8.87,2.66-12.77,3.35-3.48.62-7.43,1.19-11.2.58-.44-.9-.92-1.78-1.44-2.64-1.42-2.35-3.8-5.41-7.09-6.61-1-.37-2.14-.1-2.89.67-.74.77-.96,1.85-.57,2.83,1.46,3.66,5.07,6.68,9.4,7.9.25.07.5.14.75.19,3.1,6.94,3.81,14.84,1.93,22.24-.03.13-.06.22-.08.29-.07-.02-.17-.05-.3-.1-6.51-2.39-12.22-6.65-16.42-12.11.68-4.34.37-8.83-.94-13.06-.38-1.22-1.06-2.91-2.69-3.58-1.77-.73-2.81-.03-3.27.46-2.32,2.43.11,9.97.4,10.6,1.03,2.2,2.26,4.29,3.67,6.25-.28,1.41-.67,2.79-1.18,4.13-1.36,3.59-3.57,6.91-6.38,9.59-.21.2-.5.51-.82.87-.52.57-2.06,2.25-2.73,2.44-.35-.25-1.2-1.4-2.53-6.44l-.16-.59c-.16-.59-.31-1.19-.44-1.78.17-.27.33-.54.5-.81l.83-1.35c3.01-4.9,6.42-10.46,6.52-16.6.06-3.28-1.38-6.98-3.87-7.49-1.29-.26-3.14.2-4.67,3.94-2.8,6.86-3.54,14.49-2.14,21.8-2.65,4.1-5.72,7.94-9.15,11.42-2.04,2.07-4.27,4.11-6.64,6.05-.16.13-.92.66-1.66,1.18-1.5,1.05-2.61,1.83-3.44,2.44-1.85-10.97-1.02-22.29,2.45-32.88.92-2.82,2.22-6.16,4.4-8.85,4.47-.19,9.06-1.22,13.44-3.14,1.11-.49,1.77-1.64,1.63-2.86-.14-1.22-1.03-2.19-2.22-2.42-3.94-.76-8.7,1.46-11.85,3.79-.82.61-1.56,1.28-2.23,2.01-.1,0-.19,0-.29,0-7.08,0-13.71-2.31-18.35-6.71,4.1-4.4,9.73-7.29,15.67-8.32,3.91,3.71,8.74,5.89,13.57,5.89h.07c.73,0,2.69-.01,3.59-1.82.51-1.02.44-2.26-.17-3.32-.89-1.54-2.49-2.2-3.94-2.63-3.93-1.18-8.1-1.46-12.18-.94-1.57-1.67-2.95-3.64-4.07-5.84-3.19-6.33-4.05-13.52-4.75-20.56,8.06-.22,16.3,2.4,22.75,7.24ZM555.86,52.62c-.01-1.39.13-2.83.44-4.37,1.53,1.63,2.6,3.3,3.24,5.06.82,2.25.82,4.8,0,6.83-.17.41-.54.49-.7.51-.15.02-.55.01-.8-.37-1.38-2.1-2.16-4.83-2.19-7.67ZM578.62,45.97c.02,5.74-2.32,11.15-6.37,14.25-.17.13-.35.26-.54.38-.42.27-.8.04-.9-.04-.15-.11-.39-.37-.27-.78,1.55-5.43,4.38-10.25,8.08-13.8ZM591.73,65.08c-.24.2-.48.38-.73.56-3.13,2.25-7.18,3.01-10.56,2-.22-.07-.27-.24-.29-.34-.01-.1,0-.28.18-.41,2.36-1.53,5.3-2.02,8.09-2.02,1.15,0,2.27.08,3.32.21ZM589.33,83.52c-2.77-1.21-4.98-3.29-5.95-5.69,0,0,.03-.04.06-.04,0,0,.01,0,.02,0,2.57.93,4.53,3.5,5.72,5.48.05.08.1.16.15.25ZM595.58,109.78c1.24-4.87,1.43-9.95.63-14.86,1.73.27,3.42,1.24,5.03,2.29,5.68,3.72,12.87,9.86,15.44,18.29-.98-.08-2.07-.15-3.21-.23-6.33-.43-14.9-1.01-18.98-2.93-.07-.19-.14-.38-.21-.57.92-.54,1.18-1.56,1.3-2.01ZM588.19,124.78c-1.78-.29-3.62-.59-5.39-1-4.15-.98-7.17-2.5-9.25-4.64.87-4.47.99-9.31.33-14.3.29-.62.56-1.25.81-1.89.3-.79.57-1.6.79-2.41,4.26,4.95,9.74,8.83,15.9,11.15,1.86,4.39,2.44,9.27,1.64,13.97-1.62-.35-3.24-.62-4.83-.87ZM580.34,148.16c-1.1-.62-2.18-1.29-3.22-1.93-4.58-2.82-9.28-5.74-12.79-9.8,3.3-3.09,5.97-7.08,7.66-11.57.33-.89.62-1.8.88-2.73,2.33,1.93,5.4,3.34,9.34,4.26.27.06.55.11.82.17,1.44,7.28.5,14.9-2.68,21.61ZM558.52,137.5c-5.01-5.09-6.78-13.24-8.14-20.05,2.45-2.62,4.72-5.41,6.77-8.35v.04c1.31,4.93,2.54,8.05,4.66,8.41,1.74.29,3.35-1.32,5.15-3.28.27-.3.51-.56.69-.73,1.47-1.4,2.78-2.96,3.92-4.63.29,5.41-.41,10.55-2.09,15.02-2.18,5.81-6.15,10.71-10.97,13.59ZM538.61,127.64c.66-.47,1.3-.92,1.77-1.25,1.04-.73,1.6-1.12,1.82-1.31,2.09-1.72,4.07-3.51,5.92-5.33.95,4.62,2.18,9.66,4.5,14.04-2.63,3.98-5.86,7.47-9.61,10.4-2.81-6-4.28-11.56-4.4-16.56ZM560.91,84.77c.8-1.96,1.49-2.34,1.65-2.34,0,0,.01,0,.02,0,.64.13,1.79,2.21,1.74,4.84-.09,5.24-2.97,10.1-5.84,14.79-.61-5.86.21-11.83,2.43-17.28ZM573.87,93.78c-.64-1.06-1.22-2.16-1.74-3.28-.6-1.29-1.64-6.58-.93-7.58.06,0,.18.03.37.11.59.24.94,1.21,1.16,1.91.89,2.87,1.27,5.87,1.15,8.85ZM545.53,81.96c2.37-1.6,5.45-2.95,7.96-2.95.39,0,.77.03,1.13.1.03,0,.07.01.08.1.01.1-.03.11-.06.12-2.98,1.31-6.06,2.18-9.12,2.62ZM541.71,66.89c2.94-.13,5.9.21,8.72,1.06,1,.3,1.98.68,2.4,1.41.16.27.19.59.09.8-.09.17-.25.34-1.22.35h-.06c-3.45,0-6.91-1.31-9.94-3.62ZM513.96,107.82c1.61-.24,3.21-.65,4.83-1.09,4.99-1.36,10.14-2.96,14.49-5.94-1.13,5.52-1.61,11.15-1.43,16.78-3.01,3-7.36,5.8-10.79,6.87-3.51,1.11-7.24,1.69-10.89,2.2-.8-6.44.56-13.2,3.79-18.82ZM552.83,157.11c-1.25,1.99-3,4.46-5.45,6.02-.46.29-.61.29-.62.29-.12-.03-.41-.31-.51-.4-4.98-4.75-8.73-9.51-11.18-14.17,1.55-1.95,3.11-4.22,4.39-6.12.56,1.34,1.17,2.71,1.86,4.11l.7,1.41,1.27-.92c4.22-3.05,7.86-6.75,10.84-11,.94,1.39,2.02,2.67,3.28,3.81l.52.47c-.49,6-2.37,12.17-5.1,16.51ZM570.68,156.35l-2.07,3.4c-.49-.28-1.04-.56-1.62-.85-3.02-1.55-6.77-3.48-8.33-7.77l-.22.08c1.26-3.77,2.05-7.92,2.23-11.93.55-.36,1.09-.74,1.62-1.14,3.02,3.5,6.85,6.21,10.59,8.58.29,2.55-.95,7.58-2.2,9.63ZM584.26,159.24c-.08.08-.34.32-.43.35-.06.02-.23,0-.69-.18l-.23-.09c-2.11-.77-5.98-2.2-8.68-4.44.69-2.02,1.21-4.43,1.33-6.5.05.03.11.07.16.1,1.18.73,2.41,1.48,3.68,2.19.2.11.69.39,1.29.39.23,0,.48-.04.74-.15.67-.29.97-.89,1.09-1.15,3.44-7.01,4.59-14.99,3.3-22.68.65.11,1.3.22,1.94.33.5.08,1.01.16,1.52.25,4.11,12.94,2.26,24.7-5.03,31.57ZM604.49,148.31c-.02.07-.07.21-.08.28-.07,0-.19,0-.33,0-1.7-.02-5.5-1.13-8.28-1.93-.78-.23-1.48-.43-2.11-.6.85-5.42.38-11.5-1.46-17.85.5.11,1,.22,1.49.34l1.32.33.3-1.33c.89-3.95.87-8.07.01-12.02,1.02.32,2.14.6,3.34.83.69,2.27,2.28,6.67,3.51,8.18,2.97,3.68,4.61,8.13,4.61,12.54,0,3.8-1.19,7.57-2.34,11.21ZM621.34,127.12s0,.04-.01.06c-3.91.98-10.67,1.73-14.25.05-.77-1.52-1.69-2.99-2.79-4.35-.71-.88-1.86-3.75-2.62-6.01,3.77.54,7.93.82,11.62,1.07,1.56.11,2.99.2,4.21.31.07,0,.16.01.28.01.22,0,.51-.03.8-.17.67-.32,1.26-1.13.91-2.46-.19-.73-.43-1.45-.69-2.17.11-.02.22-.04.34-.06,1.66,2.21,3.4,7.24,2.2,13.72ZM627.25,109.11c-.21.2-.68.33-1.1.44-.89.24-2.77.52-4.6.78-1.42.21-2.77.4-3.81.6-2.82-5.85-7.93-11.29-15.04-15.95-2.14-1.4-4.47-2.68-7.04-2.8-.39-1.64-.89-3.25-1.5-4.82,3.61.31,7.2-.23,10.42-.79.45-.08.91-.16,1.37-.25,1.38.69,3.16,1.62,4.9,2.53,1.92,1,3.9,2.04,5.33,2.75,1.45.72,2.95,1.46,4.27,2.37,4.4,3.02,7.14,8.22,7.15,13.55,0,.31,0,1.24-.36,1.59ZM633.23,88.56c.07.26.2.75.13.98-.14.43-1.17,1.62-1.62,1.87-.36.2-.79.47-1.27.78-1.41.89-3.65,2.29-5.25,2.45-.97-1.07-2.06-2.04-3.26-2.86-1.48-1.02-3.06-1.8-4.6-2.56-1.41-.7-3.38-1.72-5.28-2.72-.66-.35-1.33-.69-1.98-1.03,2.97-.7,6.08-1.61,9.11-2.94l1.21-.53-.52-1.22c-2.02-4.7-5.56-8.76-10.18-11.89.51-.39,1.03-.77,1.51-1.17l.19.05c3.02.76,8.65,2.17,10.87,3.61,1.56,1.01,3.01,2.41,4.58,4.4,2.95,3.75,5.15,8.17,6.37,12.78ZM629.85,63.16c-.67,2.3-2.26,5.7-3.56,8.01-.84-.79-1.68-1.46-2.56-2.03-2.23-1.44-6.74-2.7-10.12-3.56,1.57-1.53,2.94-3.17,4.13-4.89,3.71.05,8.73.74,12.11,2.47ZM607.28,67.39c-3.1-1.75-6.58-3.13-10.36-4.05,1.8-2.54,3.17-5.63,3.99-9.09.36-1.53.6-3.07.78-4.62,5.88-.02,11.39,1,17.17,3.21-2.13,5.77-5.93,10.54-11.57,14.55ZM599.22,29.06c2.72-.17,5.52.18,8.25.6-.32,2.03-.21,4.07-.1,6.06.03.56.06,1.12.08,1.67.1,2.74-.43,7.44-1.61,9.74-1.3-.11-2.6-.15-3.92-.15.17-2.78.16-5.55.15-8.28v-1s-.96-.28-.96-.28c-3.81-1.09-7.95-1.11-11.95-.16.59-1.7.99-3.56,1.21-5.63,2.72-1.49,5.77-2.38,8.87-2.58ZM587.31,17.13c.07,1.27.16,2.54.25,3.78.15,2.03.31,4.14.33,6.19.06,4.58-.6,8.24-2.02,11.16h.01c-1.79.69-3.53,1.56-5.17,2.63-.84-3.83-2.54-7.57-5.07-11.19,2.38-5.32,6.54-9.79,11.66-12.57ZM566.67,9.14l2.34,3.92c2.32,3.89,4.92,9.6,5.38,13.26-.18.33-.36.66-.53,1-1.38-1.7-2.95-3.38-4.71-5.02l-1.01-.94-.91,1.04c-2.44,2.8-4.63,5.79-6.56,8.93-.88-3.27-1.9-6.49-3.09-9.63,1.25-5.16,4.58-9.76,9.09-12.56ZM546.83,5.96c5.5,8.85,9.51,18.46,11.93,28.61h.05c-1.04,1.92-1.99,3.9-2.84,5.93-.42,1.01-.79,1.97-1.11,2.91-.11-.08-.21-.16-.32-.25-2.3-1.73-4.82-3.19-7.46-4.37-3.52-10.63-3.6-22.18-.26-32.84ZM523.47,15.28c1.33.6,2.73.93,4.11,1.26.8.19,1.55.37,2.28.6,4.18,1.3,8.21,4.43,11.95,9.3l.09-.07c.29,3.77.96,7.52,2.01,11.19-4.9-1.69-10.13-2.43-15.26-2.09l-1.37.09.13,1.37c.02.23.05.47.07.7-1.05-.83-2.1-1.61-3.16-2.32-2.82-6.48-1.99-14.2-.85-20.01ZM504.74,28.9c-.16-1.09-.32-2.22-.47-2.97-.26-1.35-.47-2.74.15-3.56.59-.79,1.91-1.01,3.01-1.11,4.14-.4,8.78-.07,12.42.85-.25,3.62-.09,7.47.93,11.15-.81-.39-1.65-.75-2.52-1.04-3.56-1.18-7.31-1.29-10.93-1.4-.78-.02-1.56-.05-2.32-.08-.09-.57-.18-1.2-.28-1.84ZM507.26,33.48c3.59.11,6.98.21,10.17,1.27,3.7,1.23,6.86,3.67,10.32,6.5l.1-.12c.5,4.48,1.21,9.16,2.66,13.62-5.18-.66-10.82.08-16.51,2.13-5.9-4.44-9.3-11.6-12.3-17.94l-2.93-6.2c2.81.58,5.68.67,8.49.75ZM488.87,48.26c-1.55-3.52-3.14-7.16-2.92-10.57.02-.22.04-.34.06-.41.07-.02.17-.04.21-.05,3.48-.77,8.49-.55,11.6-.29l1.47,3.12c.56,1.19,1.14,2.4,1.74,3.62-3.84.35-7.37,2.26-10.3,3.86l-1.76.96c-.04-.08-.07-.16-.1-.24ZM485.52,53.42l6.49-3.54c2.99-1.63,6.67-3.63,10.35-3.59,2.27,4.28,5,8.46,8.79,11.7-4.31,1.88-8.26,4.29-11.79,6.73-5.61-2.31-10.47-6.28-13.85-11.31ZM479.71,79.57l-1.24-.6c-.08-.04-.23-.11-.33-.17,0-.08.03-.21.11-.46,1.77-5.86,8.33-12.15,13.65-14.69,1.56,1.1,3.22,2.05,4.95,2.87-.47.35-.95.69-1.41,1.03l-1.22.9,1.05,1.09c1.02,1.06,2.04,2.16,3.03,3.25-1.92,1.04-3.28,2.89-4.23,4.22l-4.71,6.55c-4.36-1.41-7.06-2.72-9.65-3.99ZM496.24,78.57c1.2-1.67,2.42-3.2,3.97-3.71,4.6,4.99,9.47,9.82,16,11.66-3.63,2.88-6.84,6.26-9.54,10.03-3.67.4-8.54-.92-11.65-2.41l-7.43-3.55,8.66-12.03ZM482,105.66c1.93-3.67,5.83-7.92,9.05-10.45l2.81,1.34c.96.46,2.05.89,3.21,1.28-2.86,3.88-5.15,7.46-6.9,10.78-2.66-.07-5.64-1.57-8.17-2.95ZM499.81,98.61c1.67.39,3.38.65,5.02.69-.78,1.26-1.51,2.56-2.18,3.9l-.4.8.58.67c1.78,2.05,4.67,3.28,7.93,3.38.02,0,.03,0,.05,0-1.74,3.47-2.86,7.27-3.3,11.14-5.28,1.28-12.89.23-17.92-2.46,1.59-5.09,5.03-11.18,10.22-18.11ZM503.71,122.35c1.25-.05,2.46-.18,3.59-.41-.07,2.15.07,4.31.43,6.42l.22,1.27,1.28-.18c4.17-.58,8.49-1.18,12.64-2.48,3.18-1,7.07-3.33,10.18-5.98.15,1.84.37,3.68.66,5.51l-.8.96c-3.61,4.37-9.07,10.97-13.6,13.23-4.56,2.28-10.27,2.9-16.19,1.78-.59-6.16.35-14.38,1.59-20.12ZM454.35,160.96c-.02.8-.02,1.59,0,2.37,0,.41,0,.82,0,1.23-.02,6.75-1.32,12.81-3.86,18.02-2.83,5.79-7.26,10.4-12.46,12.97-2.35,1.17-4.96,1.97-7.47,2.74-.22.07-.44.13-.66.2,4.28-14.18,12.93-27.73,24.45-37.53ZM425.15,189.74c.38-3.32,1.9-6.77,4.77-10.86,5.34-7.62,12.45-13.85,20.68-18.15-11.06,10.11-19.32,23.6-23.43,37.66-.16-.12-.32-.27-.47-.45-1.5-1.82-1.81-5.96-1.55-8.19ZM417.19,180.75c-4.55-1.4-8.85-3.72-12.52-6.75,1.54-2.48,2.65-5.3,3.31-8.37,2.53,2.65,6.66,5.43,9.51,6.2.52.14,1.22.31,2.02.46-.18,2.95-.97,5.83-2.32,8.46ZM427.99,168.91c-2.21,1.63-6.51,1.25-9.8.35-2.96-.8-7.93-4.47-9.51-7l-.16.1c.15-1.37.23-2.77.21-4.21-.01-.79-.01-1.61-.02-2.46-.02-4.37-.05-9.21-.93-13.45,4.54,1.73,9.2,3.16,13.94,4.21,4.13,5.76,8.11,12.42,7.87,19-.06,1.58-.57,2.7-1.58,3.45ZM443.5,153.77c-3.81,2.16-8.08,3.62-12.42,4.25-1.24-3.78-3.31-7.43-5.59-10.81,4.17.74,9.05,1.19,13.68,0l-.07.18c2.52.98,4.34,3.59,4.41,6.36ZM447.32,139.63c-1.79,1.42-3.64,2.88-5.66,3.87-5.46,2.66-12.05,1.83-17.18.81-.4-.08-.81-.16-1.21-.25-.03-.04-.05-.07-.08-.11-2.89-3.94-6.42-7.15-9.9-9.03.19-.21.37-.4.56-.6,9.87-.96,19.38-5.28,26.21-12.07.92-.92,1.79-1.89,2.61-2.89,7.07.35,13.91,3.34,20.12,6.25-4.49,5.31-10.07,9.73-15.47,14.02ZM416.83,131.23c2.57-2.52,4.99-4.53,7.48-6.21,4.8-3.24,9.89-5.16,14.75-5.59-.29.31-.58.63-.88.93-5.65,5.62-13.27,9.43-21.35,10.87ZM455.28,106.81c-.77,4.75-2.92,8.61-6,10.86-1.54-.37-3.11-.66-4.69-.83,1.81-2.58,3.29-5.35,4.44-8.25,1.96-.94,4.09-1.56,6.26-1.78ZM436.47,83.05c1.17,3.21,1.24,6.85.2,10.1-2,.81-3.98,1.77-5.94,2.91-.04-2.95-.43-5.88-1.16-8.7,1.95-1.92,4.32-3.41,6.9-4.32ZM409.18,80.71c1.86,1.74,3.82,3.7,4.64,6.1-1.77,2.41-3.45,5.69-5.01,10.75-.73-2.91-1.79-5.75-3.17-8.41.69-3.17,1.7-5.59,3.54-8.43ZM400.43,85.78c4.44,6.02,6.91,13.61,6.84,21.07-.07,7.14-2.48,14.33-6.68,20.13-1.45-5.75-4.32-11.95-7.91-17.59.35-7.86,3.29-16.73,7.75-23.62ZM384.23,98.48c.15-3.93,1.31-7.33,3.74-10.91,2.34,1.26,4.35,3.14,5.79,5.37-1.7,4.21-2.9,8.66-3.45,12.95-1.96-2.72-4.08-5.23-6.25-7.42h.17ZM364.79,102.44c.06-1.75.33-2.99.85-3.9,3.19.53,6.15,1.26,8.09,3.16.75,3.76,2.06,7.51,3.89,11.13-3.58-1.43-7.81-2.52-12.13-3.27-.54-2.34-.79-4.73-.7-7.13ZM332.47,129.04c3.49-2.77,7.85-4.44,11.83-4.5l.83-.02c3.82-.08,7.79-.16,18.32,3.1.86.46,1.74.91,2.65,1.32,7.16,3.29,14.83,4.84,21.45,5.71-12.75,5.57-23.8,7.99-32.86,7.18-5.69-.51-10.04-1.65-13.66-3.59-4.09-2.19-7.16-5.5-8.55-9.2ZM339.47,140.42c.1.05.19.12.29.17,2.42,1.3,5.12,2.26,8.24,2.94-2.71,1.27-5.41,2.96-7.87,5.02-2.78-.37-5.4-1.83-7.78-3.35,2.05-2.01,4.49-3.64,7.13-4.78ZM334.02,161.02c3.34-8.51,11.85-14.44,19.22-16.67.4.04.79.09,1.21.13,1.21.11,2.46.16,3.74.16,8.83,0,19.17-2.6,30.83-7.73-2.41,4.06-4.24,7.76-5.59,11.16-2.51.98-5.1,1.84-7.58,2.66-2.89.96-5.62,1.86-8.06,2.88-10.79,4.52-22.25,8.79-33.77,7.42ZM342.42,169.87c.59-2.03,2.04-4.28,4.32-6.71,3.21-.56,6.38-1.38,9.48-2.36-1.44,2.07-2.68,4.42-3.71,6.85-3.07,1.72-6.6,2.49-10.09,2.21ZM351.78,181.54s-.05.02-.07.02c.46-7.01,4.05-17.2,9.35-22.42,2.66-.98,5.25-2.03,7.75-3.08,2.33-.98,5.02-1.87,7.86-2.8,1.81-.6,3.68-1.22,5.55-1.89-1.32,4.03-1.93,7.57-2.04,10.72-.5.53-1,1.06-1.48,1.59-3.5,3.77-6.81,7.34-10.78,10.35-4.81,3.64-11.15,5.93-16.14,7.52ZM385.44,150.13c2.6-1.06,5.1-2.27,7.33-3.72-2.3,4.2-5.45,8.34-9.44,12.37-.08.09-.17.17-.25.26.37-2.66,1.12-5.61,2.36-8.91ZM371.15,185.05c-1.49-2.74-2.2-5.67-2.1-8.58.15-.11.32-.21.47-.33,4.02-3.04,7.46-6.7,10.78-10.28.34,3.5,1.3,6.43,2.51,8.93-2.36,5.55-7.92,8.7-11.65,10.25ZM389.9,181.05c-.26-.38-.54-.77-.82-1.17-2.76-3.89-6.26-8.83-6.29-16.69.8-.85,1.61-1.7,2.44-2.53,5.93-5.98,10.14-12.25,12.49-18.62l-1.25-.46-1-.88c-2.16,2.44-5.19,4.32-8.55,5.89,1.63-3.61,3.8-7.58,6.65-11.99l-1.12-.72h0l.13-1.33c-7.3-.73-16.77-2.07-25.38-6.03-7.85-3.6-13.99-9.04-17.5-15.43,9.25-.39,22.77,1.67,30.17,5.73,1.68,2.68,3.65,5.26,5.89,7.69,1.87,2.03,3.89,3.93,5.85,5.77l2.42,2.28,1.83-1.94-2.42-2.28c-1.92-1.81-3.91-3.68-5.72-5.64-7.55-8.18-11.88-18.15-12.07-27.67,9.79,5.96,20.76,22.58,22.93,35.24l1.31-.23,1.01.87c5.66-6.59,8.95-15.35,9.04-24.03,0-.94-.03-1.89-.09-2.83,3.26-14.14,6.95-17.19,11.22-20.72.99-.81,2-1.65,3.04-2.64,2.8,5.09,4.15,11.09,3.95,17.07-8.32,5.69-16.13,15.23-22.63,32.29l1.24.47.55,1.21c10.04-4.54,17.85-12.87,21.42-22.85,1.12-3.13,1.78-6.41,2-9.71,5.9-3.74,12.11-5.56,18.44-6.9.51,8.64-2.29,17.39-7.68,24.4-.74,0-1.48.01-2.23.07-5.42.41-11.08,2.5-16.36,6.07-3.39,2.29-6.63,5.12-10.23,8.95-1.34.1-2.68.13-4.02.09l-.08,2.66c.4.01.8.02,1.2.02.13,0,.25,0,.38,0l-1.19,1.36,1.71.72c2.84,1.19,5.82,3.49,8.47,6.49-4.33-1.12-8.59-2.54-12.72-4.25l-.51,1.23-1.27.41c1.41,4.35,1.44,10.13,1.46,15.22,0,.85,0,1.68.02,2.48.05,4.07-.62,10-4.1,15.14-2.89,4.28-7.46,7.18-12.06,7.72ZM427.78,101.18c-.31,2.32-.85,4.6-1.64,6.81-2.9,8.12-9.11,15.29-16.91,19.73,5.53-13.33,11.81-21.41,18.55-26.54ZM403.73,175.44c.15-.2.3-.41.44-.62.02-.02.03-.05.04-.07-.04.3-.19.57-.42.76l-.07-.07ZM422.34,295.23c-.51.23-1.02.46-1.52.67-7.23,3.05-16.28,3.07-26.88.08-16.27-4.6-30.91-14.21-41.62-27.26,7.02,1.69,14.87,2.11,23.85,1.29,1.51-.14,3.02-.31,4.54-.48,4.88-.55,9.92-1.11,14.78-.53,5.27.63,10.85,2.69,16.58,6.11,5.6,3.35,10.08,7.22,13.31,11.51,1.54,2.05,2.84,4.23,3.94,6.51-2.43.06-4.81,1.13-6.98,2.1ZM539.28,762.92c-26.6-.65-53.19-11-68.05-27.84v-190.97c17.99-22.01,35.98-36.25,71.17-36.25,147.83,0,134.53,257.64-3.13,255.06Z"/>
  <path class="st0" d="M173.54,493.16h-32.59v6.47c17.21,0,21.12-.65,21.12,22.66v217.51c0,75.74-28.94,107.46-72.74,104.22-35.2-2.59-43.02-23.3-50.06-49.2-2.35-8.42-10.95-12.3-19.55-12.3-10.95,0-21.12,5.83-19.55,16.18,5.47,32.37,45.36,53.08,89.95,53.73,65.7,1.3,118.88-40.78,118.88-112.64v-217.51c0-3.03-1.44-14.74,2.27-20.78h1.49c3.1-2.95,8.41-2.81,17.21-2.81v-6.47h-49.28c-2.78,0-5.13.34-7.15.93Z"/>
  <rect class="st0" x="313.09" y="351.28" width="7.99" height="442.1"/>
</svg>