<?xml version="1.0" encoding="UTF-8"?>
<svg id="Layer_1" xmlns="http://www.w3.org/2000/svg" version="1.1" viewBox="0 0 165 1002.5">
  <!-- Generator: Adobe Illustrator 29.1.0, SVG Export Plug-In . SVG Version: 2.1.0 Build 142)  -->
  <defs>
    <style>
      .st0 {
        fill: #fff;
        opacity:7%;
      }
    </style>
  </defs>
  <path class="st0" d="M153.39,1533.55H.01v12.16h33.08c-.08,1.8-.3,3.57-.63,5.29-.44,2.25-1.09,4.43-1.93,6.5-.84,2.07-1.87,4.04-3.06,5.89-1.19,1.84-2.55,3.56-4.05,5.13-1.5,1.57-3.14,2.99-4.9,4.24-1.76,1.25-3.64,2.32-5.63,3.2-1.98.88-4.06,1.56-6.21,2.02-2.15.46-4.38.71-6.67.71v9.58H.01v1.37H.01v9.59c2.28,0,4.51.24,6.67.71,2.15.46,4.23,1.14,6.21,2.02,1.98.88,3.86,1.95,5.63,3.2,1.76,1.25,3.4,2.67,4.9,4.24s2.86,3.29,4.05,5.13,2.22,3.81,3.06,5.89c.84,2.07,1.49,4.25,1.93,6.5.34,1.72.55,3.49.63,5.29H.01v12.16h164.72v-12.16h-44.41c.08-1.8.3-3.57.63-5.29.44-2.25,1.09-4.43,1.93-6.5.84-2.07,1.87-4.04,3.06-5.89,1.19-1.84,2.55-3.56,4.05-5.13,1.5-1.57,3.14-2.99,4.9-4.24,1.76-1.25,3.64-2.32,5.62-3.2s4.06-1.56,6.21-2.02c2.15-.46,4.38-.71,6.67-.71s4.51.24,6.67.71c1.6.34,3.16.81,4.67,1.39v-11.46c-1.3-.36-2.63-.66-3.97-.9,1.34-.24,2.67-.54,3.97-.9v-11.46c-1.51.58-3.07,1.04-4.67,1.39-2.15.46-4.38.71-6.67.71s-4.51-.24-6.67-.71c-2.15-.46-4.23-1.14-6.21-2.02s-3.86-1.95-5.62-3.2-3.4-2.67-4.9-4.24c-1.5-1.57-2.86-3.29-4.05-5.13-1.19-1.84-2.22-3.81-3.06-5.89s-1.49-4.25-1.93-6.5c-.34-1.72-.55-3.49-.63-5.29h44.41v-12.16h-11.34ZM47.94,1545.71h61.84c-.08,1.8-.3,3.57-.63,5.29-.44,2.25-1.09,4.43-1.93,6.5-.84,2.07-1.87,4.04-3.06,5.89-1.19,1.84-2.55,3.56-4.05,5.13-1.5,1.57-3.14,2.99-4.9,4.24-1.76,1.25-3.64,2.32-5.62,3.2-1.98.88-4.06,1.56-6.21,2.02-2.15.46-4.38.71-6.67.71s-4.51-.24-6.67-.71c-2.15-.46-4.23-1.14-6.21-2.02-1.98-.88-3.86-1.95-5.62-3.2-1.76-1.25-3.4-2.67-4.9-4.24-1.5-1.57-2.86-3.29-4.05-5.13-1.19-1.84-2.22-3.81-3.06-5.89-.84-2.07-1.49-4.25-1.93-6.5-.34-1.72-.55-3.49-.63-5.29h4.32ZM38.36,1612.24c-.92-1.78-1.95-3.49-3.09-5.12-1.13-1.63-2.37-3.18-3.69-4.64s-2.74-2.82-4.23-4.09c-1.5-1.27-3.07-2.43-4.72-3.48-1.65-1.05-3.37-1.99-5.15-2.81-1.78-.82-3.63-1.52-5.52-2.08-1.49-.45-3.02-.78-4.57-1.06,1.55-.28,3.08-.62,4.57-1.06,1.9-.57,3.74-1.27,5.52-2.09,1.78-.82,3.5-1.76,5.15-2.81,1.65-1.05,3.23-2.22,4.72-3.48,1.5-1.27,2.91-2.63,4.23-4.09,1.32-1.46,2.56-3.01,3.69-4.64,1.13-1.63,2.16-3.34,3.09-5.12.92,1.78,1.95,3.49,3.09,5.12s2.37,3.18,3.69,4.64c1.32,1.46,2.74,2.82,4.23,4.09s3.07,2.43,4.72,3.48c1.65,1.05,3.37,1.99,5.15,2.81,1.78.82,3.63,1.52,5.52,2.09,1.49.44,3.02.78,4.57,1.06-1.55.28-3.08.62-4.57,1.06-1.9.57-3.74,1.26-5.52,2.08-1.78.82-3.5,1.76-5.15,2.81-1.65,1.05-3.23,2.22-4.72,3.48-1.5,1.27-2.91,2.63-4.23,4.09-1.32,1.46-2.56,3.01-3.69,4.64-1.13,1.63-2.16,3.34-3.09,5.12ZM105.46,1632.19h-61.83c.08-1.8.3-3.57.63-5.29.44-2.25,1.09-4.43,1.93-6.5.84-2.07,1.87-4.04,3.06-5.89,1.19-1.84,2.55-3.56,4.05-5.13,1.5-1.57,3.14-2.99,4.9-4.24,1.76-1.25,3.64-2.32,5.62-3.2,1.98-.88,4.06-1.56,6.21-2.02,2.15-.46,4.38-.71,6.67-.71s4.51.24,6.67.71c2.15.46,4.23,1.14,6.21,2.02,1.98.88,3.86,1.95,5.62,3.2,1.76,1.25,3.4,2.67,4.9,4.24,1.5,1.57,2.86,3.29,4.05,5.13,1.19,1.84,2.22,3.81,3.06,5.89.84,2.07,1.49,4.25,1.93,6.5.34,1.72.55,3.49.63,5.29h-4.32ZM121.82,1575.42c1.32,1.46,2.74,2.82,4.23,4.09s3.07,2.43,4.72,3.48c1.65,1.05,3.37,1.99,5.15,2.81,1.78.82,3.63,1.52,5.52,2.09,1.49.44,3.02.78,4.57,1.06-1.55.28-3.08.62-4.57,1.06-1.9.57-3.74,1.26-5.52,2.08s-3.5,1.76-5.15,2.81c-1.65,1.05-3.23,2.22-4.72,3.48-1.5,1.27-2.91,2.63-4.23,4.09-1.32,1.46-2.56,3.01-3.69,4.64-1.13,1.63-2.16,3.34-3.09,5.12-.92-1.78-1.95-3.49-3.09-5.12-1.13-1.63-2.37-3.18-3.69-4.64s-2.74-2.82-4.23-4.09c-1.5-1.27-3.07-2.43-4.72-3.48-1.65-1.05-3.37-1.99-5.15-2.81-1.78-.82-3.63-1.52-5.52-2.08-1.49-.45-3.02-.78-4.57-1.06,1.55-.28,3.08-.62,4.57-1.06,1.9-.57,3.74-1.27,5.52-2.09,1.78-.82,3.5-1.76,5.15-2.81,1.65-1.05,3.23-2.22,4.72-3.48,1.5-1.27,2.91-2.63,4.23-4.09,1.32-1.46,2.56-3.01,3.69-4.64,1.13-1.63,2.16-3.34,3.09-5.12.92,1.78,1.95,3.49,3.09,5.12,1.13,1.63,2.37,3.18,3.69,4.64Z"/>
  <path class="st0" d="M161.23,1281.68h-7.84c-1.3.13-2.65.18-4.02.17s-2.77-.05-4.19-.11c-1.42-.05-2.87-.11-4.32-.12-1.46-.01-2.93.02-4.4.13-1.48.12-2.96.32-4.44.65s-2.95.8-4.42,1.44c-1.47.64-2.92,1.46-4.36,2.5-1.44,1.04-2.85,2.3-4.24,3.82-1.29,1.42-2.42,2.94-3.39,4.55-.19.31-.37.63-.55.95-.88-1.76-1.91-3.42-3.13-4.93-2.18-2.72-4.91-4.98-8.17-6.57-3.26-1.59-7.06-2.49-11.39-2.49h-15.67c-1.3.13-2.65.18-4.02.17-1.37,0-2.77-.05-4.19-.11-1.42-.05-2.87-.11-4.32-.12-1.46-.01-2.93.02-4.4.13s-2.96.32-4.44.65-2.95.8-4.42,1.44c-1.47.64-2.92,1.46-4.36,2.5s-2.85,2.3-4.24,3.82c-1.29,1.42-2.42,2.94-3.39,4.55-.19.31-.37.63-.55.96-.88-1.76-1.91-3.42-3.13-4.93-2.18-2.72-4.91-4.98-8.17-6.57-3.26-1.59-7.06-2.49-11.39-2.49H0v8.41h15.67c3.07,0,5.76.64,8.07,1.77s4.24,2.73,5.79,4.66c1.55,1.93,2.72,4.18,3.5,6.59.78,2.41,1.18,4.98,1.2,7.56.01,2.57-.36,5.15-1.12,7.56-.76,2.41-1.92,4.66-3.46,6.59-1.54,1.93-3.48,3.54-5.81,4.66-2.33,1.13-5.05,1.77-8.17,1.77H0v8.41h15.67c4.39,0,8.22-.91,11.5-2.49,3.28-1.59,6.01-3.85,8.18-6.57,1.19-1.49,2.2-3.12,3.06-4.83.16.28.32.57.49.85.97,1.61,2.1,3.13,3.4,4.55,1.4,1.53,2.82,2.79,4.25,3.84s2.89,1.86,4.35,2.5c1.46.64,2.93,1.11,4.4,1.44,1.47.33,2.94.53,4.41.65s2.93.14,4.38.13c1.45-.02,2.89-.07,4.32-.13,1.42-.05,2.83-.11,4.21-.11,1.38,0,2.74.04,4.07.18h15.67c4.39,0,8.22-.91,11.5-2.49,3.28-1.59,6.01-3.85,8.18-6.57,1.19-1.49,2.2-3.12,3.06-4.83.16.28.32.57.49.85.97,1.61,2.1,3.13,3.4,4.55,1.4,1.53,2.82,2.79,4.25,3.84,1.44,1.04,2.89,1.86,4.35,2.5s2.93,1.11,4.4,1.44c1.47.33,2.94.53,4.41.65,1.47.11,2.93.14,4.38.13s2.89-.07,4.32-.13,2.83-.11,4.21-.11c1.38,0,2.74.04,4.07.18h11.34v-8.41h-11.34c-1.42-.12-2.82-.16-4.18-.17-1.36,0-2.69.04-4,.08-1.3.05-2.58.1-3.83.12-1.25.03-2.47.02-3.67-.04s-2.37-.19-3.52-.42c-1.15-.23-2.28-.55-3.38-1.01-1.11-.46-2.19-1.04-3.25-1.8-1.06-.76-2.11-1.68-3.14-2.8-1.48-1.63-2.65-3.4-3.52-5.25-.87-1.85-1.44-3.78-1.75-5.73-.3-1.95-.34-3.92-.12-5.86.21-1.93.68-3.82,1.36-5.61.68-1.79,1.59-3.48,2.69-5s2.41-2.89,3.88-4.03c1.48-1.14,3.13-2.05,4.93-2.68,1.8-.63,3.75-.98,5.82-.98h27.01v-8.41h-3.5ZM109.8,1318.23c-.76,2.41-1.92,4.66-3.46,6.59-1.54,1.93-3.48,3.54-5.81,4.66-2.33,1.13-5.05,1.77-8.17,1.77h-15.67c-1.42-.12-2.82-.16-4.18-.17-1.36,0-2.69.04-4,.08-1.3.05-2.58.1-3.83.12-1.25.03-2.47.02-3.67-.04-1.2-.07-2.37-.19-3.52-.42s-2.28-.55-3.38-1.01c-1.11-.46-2.19-1.04-3.25-1.8-1.06-.76-2.11-1.68-3.14-2.8-1.48-1.63-2.65-3.39-3.52-5.25-.87-1.85-1.44-3.78-1.75-5.73-.3-1.95-.34-3.92-.12-5.86.21-1.93.68-3.82,1.36-5.61.68-1.79,1.59-3.48,2.69-5s2.41-2.89,3.88-4.03c1.48-1.14,3.13-2.05,4.93-2.68s3.75-.98,5.82-.98h31.34c3.07,0,5.76.64,8.07,1.77,2.31,1.13,4.24,2.73,5.79,4.66,1.55,1.93,2.72,4.18,3.5,6.59.78,2.41,1.18,4.98,1.2,7.56.01,2.57-.36,5.15-1.12,7.56Z"/>
  <g>
    <polygon class="st0" points="61.99 1929.27 51.69 1929.27 41.39 1929.27 31.09 1929.27 20.78 1929.27 10.48 1929.27 .18 1929.27 5.33 1938.74 10.48 1948.21 15.63 1957.67 20.78 1967.14 25.93 1976.6 31.09 1986.07 36.24 1995.53 41.39 2005 46.54 1995.53 51.69 1986.07 56.84 1976.6 61.99 1967.14 67.14 1957.67 72.29 1948.21 77.44 1938.74 82.59 1929.27 72.29 1929.27 61.99 1929.27"/>
    <polygon class="st0" points="144.4 1929.27 134.1 1929.27 123.8 1929.27 113.5 1929.27 103.2 1929.27 92.9 1929.27 82.59 1929.27 87.74 1938.74 92.9 1948.21 98.05 1957.67 103.2 1967.14 108.35 1976.6 113.5 1986.07 118.65 1995.53 123.8 2005 128.95 1995.53 134.1 1986.07 139.25 1976.6 144.4 1967.14 149.55 1957.67 154.7 1948.21 159.85 1938.74 164.55 1930.12 164.55 1929.27 154.7 1929.27 144.4 1929.27"/>
  </g>
  <path class="st0" d="M158.98,677.46l-3.1,3.4-3.1,3.4-3.1,3.4-3.1,3.4-1.99,2.18-1.99-2.18-3.1-3.4-3.1-3.4-3.1-3.4-3.1-3.4-3.1-3.4-3.1-3.4-3.1,3.4-3.1,3.4-3.1,3.4-3.1,3.4-3.1,3.4-3.1,3.4-1.99,2.18-1.99-2.18-3.1-3.4-3.1-3.4-3.1-3.4-3.1-3.4-3.1-3.4-3.1-3.4-3.1,3.4-3.1,3.4-3.1,3.4-3.1,3.4-3.1,3.4-3.1,3.4-1.99,2.18-1.99-2.18-3.1-3.4-3.1-3.4-3.1-3.4-3.1-3.4-3.1-3.4-3.1-3.4-3.1,3.4-3.1,3.4-3.1,3.4-3.1,3.4-3.1,3.4-3.1,3.4-1.99,2.18-1.99-2.18-3.1-3.4-3.1-3.4-3.1-3.4-3.1-3.4-3.1-3.4-3.1-3.4v9.23l2.05,2.24,2.05,2.24,2.05,2.24,2.05,2.24,2.05,2.24,2.05,2.24,2.05,2.24,2.05,2.24-2.05,2.24-2.05,2.24-2.05,2.24-2.05,2.24-2.05,2.24-2.05,2.24-2.05,2.24-2.05,2.24v14.86l2.05,2.24,2.05,2.24,2.05,2.24,2.05,2.24,2.05,2.24,2.05,2.24,2.05,2.24,2.05,2.24-2.05,2.24-2.05,2.24-2.05,2.24-2.05,2.24-2.05,2.24-2.05,2.24-2.05,2.24-2.05,2.24v9.22l3.1-3.4,3.1-3.4,3.1-3.4,3.1-3.4,3.1-3.4,3.1-3.4,1.99-2.18,1.99,2.18,3.1,3.4,3.1,3.4,3.1,3.4,3.1,3.4,3.1,3.4,3.1,3.4,3.1-3.4,3.1-3.4,3.1-3.4,3.1-3.4,3.1-3.4,3.1-3.4,1.99-2.18,1.99,2.18,3.1,3.4,3.1,3.4,3.1,3.4,3.1,3.4,3.1,3.4,3.1,3.4,3.1-3.4,3.1-3.4,3.1-3.4,3.1-3.4,3.1-3.4,3.1-3.4,1.99-2.18,1.99,2.18,3.1,3.4,3.1,3.4,3.1,3.4,3.1,3.4,3.1,3.4,3.1,3.4,3.1-3.4,3.1-3.4,3.1-3.4,3.1-3.4,3.1-3.4,3.1-3.4,1.99-2.18,1.99,2.18,3.1,3.4,3.1,3.4,3.1,3.4,3.1,3.4,3.1,3.4,2.64,2.89v-9.22l-1.59-1.74-2.05-2.24-2.05-2.24-2.05-2.24-2.05-2.24-2.05-2.24-2.05-2.24-2.05-2.24,2.05-2.24,2.05-2.24,2.05-2.24,2.05-2.24,2.05-2.24,2.05-2.24,2.05-2.24,1.59-1.74v-15.87l-1.59-1.74-2.05-2.24-2.05-2.24-2.05-2.24-2.05-2.24-2.05-2.24-2.05-2.24-2.05-2.24,2.05-2.24,2.05-2.24,2.05-2.24,2.05-2.24,2.05-2.24,2.05-2.24,2.05-2.24,1.59-1.74v-9.23l-2.64,2.89-3.1,3.4ZM109.61,695.59l2.05-2.24,2.05-2.24,2.05-2.24,2.05-2.24,2.05-2.24,2.05-2.24,2.05-2.24,2.05,2.24,2.05,2.24,2.05,2.24,2.05,2.24,2.05,2.24,2.05,2.24,2.05,2.24,2.05,2.24-2.05,2.24-2.05,2.24-2.05,2.24-2.05,2.24-2.05,2.24-2.05,2.24-2.05,2.24-2.05,2.24-2.05-2.24-2.05-2.24-2.05-2.24-2.05-2.24-2.05-2.24-2.05-2.24-2.05-2.24-2.05-2.24,2.05-2.24ZM68.38,695.59l2.05-2.24,2.05-2.24,2.05-2.24,2.05-2.24,2.05-2.24,2.05-2.24,2.05-2.24,2.05,2.24,2.05,2.24,2.05,2.24,2.05,2.24,2.05,2.24,2.05,2.24,2.05,2.24,2.05,2.24-2.05,2.24-2.05,2.24-2.05,2.24-2.05,2.24-2.05,2.24-2.05,2.24-2.05,2.24-2.05,2.24-2.05-2.24-2.05-2.24-2.05-2.24-2.05-2.24-2.05-2.24-2.05-2.24-2.05-2.24-2.05-2.24,2.05-2.24ZM27.15,695.59l2.05-2.24,2.05-2.24,2.05-2.24,2.05-2.24,2.05-2.24,2.05-2.24,2.05-2.24,2.05,2.24,2.05,2.24,2.05,2.24,2.05,2.24,2.05,2.24,2.05,2.24,2.05,2.24,2.05,2.24-2.05,2.24-2.05,2.24-2.05,2.24-2.05,2.24-2.05,2.24-2.05,2.24-2.05,2.24-2.05,2.24-2.05-2.24-2.05-2.24-2.05-2.24-2.05-2.24-2.05-2.24-2.05-2.24-2.05-2.24-2.05-2.24,2.05-2.24ZM20.89,743.96l-1.99-2.18-3.1-3.4-3.1-3.4-3.1-3.4-3.1-3.4-3.1-3.4-1.46-1.6,1.46-1.6,3.1-3.4,3.1-3.4,3.1-3.4,3.1-3.4,3.1-3.4,1.99-2.18,1.99,2.18,3.1,3.4,3.1,3.4,3.1,3.4,3.1,3.4,3.1,3.4,1.46,1.6-1.46,1.6-3.1,3.4-3.1,3.4-3.1,3.4-3.1,3.4-3.1,3.4-1.99,2.18ZM55.85,750.82l-2.05,2.24-2.05,2.24-2.05,2.24-2.05,2.24-2.05,2.24-2.05,2.24-2.05,2.24-2.05-2.24-2.05-2.24-2.05-2.24-2.05-2.24-2.05-2.24-2.05-2.24-2.05-2.24-2.05-2.24,2.05-2.24,2.05-2.24,2.05-2.24,2.05-2.24,2.05-2.24,2.05-2.24,2.05-2.24,2.05-2.24,2.05,2.24,2.05,2.24,2.05,2.24,2.05,2.24,2.05,2.24,2.05,2.24,2.05,2.24,2.05,2.24-2.05,2.24ZM62.12,743.96l-1.99-2.18-3.1-3.4-3.1-3.4-3.1-3.4-3.1-3.4-3.1-3.4-1.46-1.6,1.46-1.6,3.1-3.4,3.1-3.4,3.1-3.4,3.1-3.4,3.1-3.4,1.99-2.18,1.99,2.18,3.1,3.4,3.1,3.4,3.1,3.4,3.1,3.4,3.1,3.4,1.46,1.6-1.46,1.6-3.1,3.4-3.1,3.4-3.1,3.4-3.1,3.4-3.1,3.4-1.99,2.18ZM97.08,750.82l-2.05,2.24-2.05,2.24-2.05,2.24-2.05,2.24-2.05,2.24-2.05,2.24-2.05,2.24-2.05-2.24-2.05-2.24-2.05-2.24-2.05-2.24-2.05-2.24-2.05-2.24-2.05-2.24-2.05-2.24,2.05-2.24,2.05-2.24,2.05-2.24,2.05-2.24,2.05-2.24,2.05-2.24,2.05-2.24,2.05-2.24,2.05,2.24,2.05,2.24,2.05,2.24,2.05,2.24,2.05,2.24,2.05,2.24,2.05,2.24,2.05,2.24-2.05,2.24ZM103.34,743.97l-1.99-2.18-3.1-3.4-3.1-3.4-3.1-3.4-3.1-3.4-3.1-3.4-1.46-1.6,1.46-1.6,3.1-3.4,3.1-3.4,3.1-3.4,3.1-3.4,3.1-3.4,1.99-2.18,1.99,2.18,3.1,3.4,3.1,3.4,3.1,3.4,3.1,3.4,3.1,3.4,1.46,1.6-1.46,1.6-3.1,3.4-3.1,3.4-3.1,3.4-3.1,3.4-3.1,3.4-1.99,2.18ZM138.31,750.82l-2.05,2.24-2.05,2.24-2.05,2.24-2.05,2.24-2.05,2.24-2.05,2.24-2.05,2.24-2.05-2.24-2.05-2.24-2.05-2.24-2.05-2.24-2.05-2.24-2.05-2.24-2.05-2.24-2.05-2.24,2.05-2.24,2.05-2.24,2.05-2.24,2.05-2.24,2.05-2.24,2.05-2.24,2.05-2.24,2.05-2.24,2.05,2.24,2.05,2.24,2.05,2.24,2.05,2.24,2.05,2.24,2.05,2.24,2.05,2.24,2.05,2.24-2.05,2.24ZM149.67,708.02l3.1,3.4,3.1,3.4,3.1,3.4,3.1,3.4,1.46,1.6-1.46,1.6-3.1,3.4-3.1,3.4-3.1,3.4-3.1,3.4-3.1,3.4-1.99,2.18-1.99-2.18-3.1-3.4-3.1-3.4-3.1-3.4-3.1-3.4-3.1-3.4-1.46-1.6,1.46-1.6,3.1-3.4,3.1-3.4,3.1-3.4,3.1-3.4,3.1-3.4,1.99-2.18,1.99,2.18,3.1,3.4Z"/>
  <path class="st0" d="M158.13,1690.39l-3.07,3.4-3.07,3.4-3.07,3.4-3.07,3.4-1.97,2.18-1.97-2.18-3.07-3.4-3.07-3.4-3.07-3.4-3.07-3.4-3.07-3.4-3.07-3.4-3.07,3.4-3.07,3.4-3.07,3.4-3.07,3.4-3.07,3.4-3.07,3.4-1.97,2.18-1.97-2.18-3.07-3.4-3.07-3.4-3.07-3.4-3.07-3.4-3.07-3.4-3.07-3.4-3.07,3.4-3.07,3.4-3.07,3.4-3.07,3.4-3.07,3.4-3.07,3.4-1.97,2.18-1.97-2.18-3.07-3.4-3.07-3.4-3.07-3.4-3.07-3.4-3.07-3.4-3.07-3.4-3.07,3.4-3.07,3.4-3.07,3.4-3.07,3.4-3.07,3.4-3.07,3.4-1.97,2.18-1.97-2.18-3.07-3.4-3.07-3.4-3.07-3.4-3.07-3.4-3.07-3.4-3.07-3.4v9.23l2.02,2.24,2.02,2.24,2.02,2.24,2.02,2.24,2.02,2.24,2.02,2.24,2.02,2.24,2.02,2.24-2.02,2.24-2.02,2.24-2.02,2.24-2.02,2.24-2.02,2.24-2.02,2.24-2.02,2.24-2.02,2.24v14.86l2.02,2.24,2.02,2.24,2.02,2.24,2.02,2.24,2.02,2.24,2.02,2.24,2.02,2.24,2.02,2.24-2.02,2.24-2.02,2.24-2.02,2.24-2.02,2.24-2.02,2.24-2.02,2.24-2.02,2.24-2.02,2.24v9.22l3.07-3.4,3.07-3.4,3.07-3.4,3.07-3.4,3.07-3.4,3.07-3.4,1.97-2.18,1.97,2.18,3.07,3.4,3.07,3.4,3.07,3.4,3.07,3.4,3.07,3.4,3.07,3.4,3.07-3.4,3.07-3.4,3.07-3.4,3.07-3.4,3.07-3.4,3.07-3.4,1.97-2.18,1.97,2.18,3.07,3.4,3.07,3.4,3.07,3.4,3.07,3.4,3.07,3.4,3.07,3.4,3.07-3.4,3.07-3.4,3.07-3.4,3.07-3.4,3.07-3.4,3.07-3.4,1.97-2.18,1.97,2.18,3.07,3.4,3.07,3.4,3.07,3.4,3.07,3.4,3.07,3.4,3.07,3.4,3.07-3.4,3.07-3.4,3.07-3.4,3.07-3.4,3.07-3.4,3.07-3.4,1.97-2.18,1.97,2.18,3.07,3.4,3.07,3.4,3.07,3.4,3.07,3.4,3.07,3.4,2.61,2.89v-9.22l-1.57-1.74-2.02-2.24-2.02-2.24-2.02-2.24-2.02-2.24-2.02-2.24-2.02-2.24-2.02-2.24,2.02-2.24,2.02-2.24,2.02-2.24,2.02-2.24,2.02-2.24,2.02-2.24,2.02-2.24,1.57-1.74v-15.87l-1.57-1.74-2.02-2.24-2.02-2.24-2.02-2.24-2.02-2.24-2.02-2.24-2.02-2.24-2.02-2.24,2.02-2.24,2.02-2.24,2.02-2.24,2.02-2.24,2.02-2.24,2.02-2.24,2.02-2.24,1.57-1.74v-9.23l-2.61,2.89-3.07,3.4ZM109.37,1708.52l2.02-2.24,2.02-2.24,2.02-2.24,2.02-2.24,2.02-2.24,2.02-2.24,2.02-2.24,2.02,2.24,2.02,2.24,2.02,2.24,2.02,2.24,2.02,2.24,2.02,2.24,2.02,2.24,2.02,2.24-2.02,2.24-2.02,2.24-2.02,2.24-2.02,2.24-2.02,2.24-2.02,2.24-2.02,2.24-2.02,2.24-2.02-2.24-2.02-2.24-2.02-2.24-2.02-2.24-2.02-2.24-2.02-2.24-2.02-2.24-2.02-2.24,2.02-2.24ZM68.65,1708.52l2.02-2.24,2.02-2.24,2.02-2.24,2.02-2.24,2.02-2.24,2.02-2.24,2.02-2.24,2.02,2.24,2.02,2.24,2.02,2.24,2.02,2.24,2.02,2.24,2.02,2.24,2.02,2.24,2.02,2.24-2.02,2.24-2.02,2.24-2.02,2.24-2.02,2.24-2.02,2.24-2.02,2.24-2.02,2.24-2.02,2.24-2.02-2.24-2.02-2.24-2.02-2.24-2.02-2.24-2.02-2.24-2.02-2.24-2.02-2.24-2.02-2.24,2.02-2.24ZM27.92,1708.52l2.02-2.24,2.02-2.24,2.02-2.24,2.02-2.24,2.02-2.24,2.02-2.24,2.02-2.24,2.02,2.24,2.02,2.24,2.02,2.24,2.02,2.24,2.02,2.24,2.02,2.24,2.02,2.24,2.02,2.24-2.02,2.24-2.02,2.24-2.02,2.24-2.02,2.24-2.02,2.24-2.02,2.24-2.02,2.24-2.02,2.24-2.02-2.24-2.02-2.24-2.02-2.24-2.02-2.24-2.02-2.24-2.02-2.24-2.02-2.24-2.02-2.24,2.02-2.24ZM21.73,1756.89l-1.97-2.18-3.07-3.4-3.07-3.4-3.07-3.4-3.07-3.4-3.07-3.4-1.45-1.6,1.45-1.6,3.07-3.4,3.07-3.4,3.07-3.4,3.07-3.4,3.07-3.4,1.97-2.18,1.97,2.18,3.07,3.4,3.07,3.4,3.07,3.4,3.07,3.4,3.07,3.4,1.45,1.6-1.45,1.6-3.07,3.4-3.07,3.4-3.07,3.4-3.07,3.4-3.07,3.4-1.97,2.18ZM56.27,1763.75l-2.02,2.24-2.02,2.24-2.02,2.24-2.02,2.24-2.02,2.24-2.02,2.24-2.02,2.24-2.02-2.24-2.02-2.24-2.02-2.24-2.02-2.24-2.02-2.24-2.02-2.24-2.02-2.24-2.02-2.24,2.02-2.24,2.02-2.24,2.02-2.24,2.02-2.24,2.02-2.24,2.02-2.24,2.02-2.24,2.02-2.24,2.02,2.24,2.02,2.24,2.02,2.24,2.02,2.24,2.02,2.24,2.02,2.24,2.02,2.24,2.02,2.24-2.02,2.24ZM62.46,1756.89l-1.97-2.18-3.07-3.4-3.07-3.4-3.07-3.4-3.07-3.4-3.07-3.4-1.45-1.6,1.45-1.6,3.07-3.4,3.07-3.4,3.07-3.4,3.07-3.4,3.07-3.4,1.97-2.18,1.97,2.18,3.07,3.4,3.07,3.4,3.07,3.4,3.07,3.4,3.07,3.4,1.45,1.6-1.45,1.6-3.07,3.4-3.07,3.4-3.07,3.4-3.07,3.4-3.07,3.4-1.97,2.18ZM96.99,1763.75l-2.02,2.24-2.02,2.24-2.02,2.24-2.02,2.24-2.02,2.24-2.02,2.24-2.02,2.24-2.02-2.24-2.02-2.24-2.02-2.24-2.02-2.24-2.02-2.24-2.02-2.24-2.02-2.24-2.02-2.24,2.02-2.24,2.02-2.24,2.02-2.24,2.02-2.24,2.02-2.24,2.02-2.24,2.02-2.24,2.02-2.24,2.02,2.24,2.02,2.24,2.02,2.24,2.02,2.24,2.02,2.24,2.02,2.24,2.02,2.24,2.02,2.24-2.02,2.24ZM103.18,1756.89l-1.97-2.18-3.07-3.4-3.07-3.4-3.07-3.4-3.07-3.4-3.07-3.4-1.45-1.6,1.45-1.6,3.07-3.4,3.07-3.4,3.07-3.4,3.07-3.4,3.07-3.4,1.97-2.18,1.97,2.18,3.07,3.4,3.07,3.4,3.07,3.4,3.07,3.4,3.07,3.4,1.45,1.6-1.45,1.6-3.07,3.4-3.07,3.4-3.07,3.4-3.07,3.4-3.07,3.4-1.97,2.18ZM137.71,1763.75l-2.02,2.24-2.02,2.24-2.02,2.24-2.02,2.24-2.02,2.24-2.02,2.24-2.02,2.24-2.02-2.24-2.02-2.24-2.02-2.24-2.02-2.24-2.02-2.24-2.02-2.24-2.02-2.24-2.02-2.24,2.02-2.24,2.02-2.24,2.02-2.24,2.02-2.24,2.02-2.24,2.02-2.24,2.02-2.24,2.02-2.24,2.02,2.24,2.02,2.24,2.02,2.24,2.02,2.24,2.02,2.24,2.02,2.24,2.02,2.24,2.02,2.24-2.02,2.24ZM148.94,1720.95l3.07,3.4,3.07,3.4,3.07,3.4,3.07,3.4,1.45,1.6-1.45,1.6-3.07,3.4-3.07,3.4-3.07,3.4-3.07,3.4-3.07,3.4-1.97,2.18-1.97-2.18-3.07-3.4-3.07-3.4-3.07-3.4-3.07-3.4-3.07-3.4-1.45-1.6,1.45-1.6,3.07-3.4,3.07-3.4,3.07-3.4,3.07-3.4,3.07-3.4,1.97-2.18,1.97,2.18,3.07,3.4Z"/>
  <g>
    <polygon class="st0" points="157.69 1449.81 154.26 1449.81 150.83 1449.81 147.41 1449.81 143.98 1449.81 140.55 1449.81 137.12 1449.81 137.12 1456.05 137.12 1462.29 137.12 1468.52 137.12 1474.76 137.12 1481 137.12 1487.24 137.12 1493.48 137.12 1499.71 140.55 1499.71 143.98 1499.71 147.41 1499.71 150.83 1499.71 154.26 1499.71 157.69 1499.71 161.12 1499.71 164.55 1499.71 164.55 1493.48 164.55 1487.24 164.55 1481 164.55 1474.76 164.55 1468.52 164.55 1462.29 164.55 1456.05 164.55 1449.81 161.12 1449.81 157.69 1449.81"/>
    <polygon class="st0" points="82.27 1437.34 82.27 1431.1 82.27 1424.86 82.27 1418.62 82.27 1412.38 82.27 1406.15 82.27 1399.91 78.84 1399.91 75.42 1399.91 71.99 1399.91 68.56 1399.91 65.13 1399.91 61.7 1399.91 58.28 1399.91 54.85 1399.91 54.85 1406.15 54.85 1412.38 54.85 1418.62 54.85 1424.86 54.85 1431.1 54.85 1437.34 54.85 1443.57 54.85 1449.81 58.28 1449.81 61.7 1449.81 65.13 1449.81 68.56 1449.81 71.99 1449.81 75.42 1449.81 78.84 1449.81 82.27 1449.81 82.27 1443.57 82.27 1437.34"/>
    <polygon class="st0" points="102.84 1449.81 99.41 1449.81 95.98 1449.81 92.56 1449.81 89.13 1449.81 85.7 1449.81 82.27 1449.81 82.27 1456.05 82.27 1462.29 82.27 1468.53 82.27 1474.76 82.27 1481 82.27 1487.24 82.27 1493.48 82.27 1499.71 85.7 1499.71 89.13 1499.71 92.56 1499.71 95.98 1499.71 99.41 1499.71 102.84 1499.71 106.27 1499.71 109.7 1499.71 109.7 1493.48 109.7 1487.24 109.7 1481 109.7 1474.76 109.7 1468.52 109.7 1462.29 109.7 1456.05 109.7 1449.81 106.27 1449.81 102.84 1449.81"/>
    <polygon class="st0" points="137.12 1437.34 137.12 1431.1 137.12 1424.86 137.12 1418.62 137.12 1412.38 137.12 1406.15 137.12 1399.91 133.69 1399.91 130.26 1399.91 126.84 1399.91 123.41 1399.91 119.98 1399.91 116.55 1399.91 113.12 1399.91 109.7 1399.91 109.7 1406.15 109.7 1412.38 109.7 1418.62 109.7 1424.86 109.7 1431.1 109.7 1437.34 109.7 1443.57 109.7 1449.81 113.12 1449.81 116.55 1449.81 119.98 1449.81 123.41 1449.81 126.84 1449.81 130.26 1449.81 133.69 1449.81 137.12 1449.81 137.12 1443.57 137.12 1437.34"/>
    <polygon class="st0" points="47.99 1449.81 44.56 1449.81 41.14 1449.81 37.71 1449.81 34.28 1449.81 30.85 1449.81 27.42 1449.81 27.42 1456.05 27.42 1462.29 27.42 1468.53 27.42 1474.76 27.42 1481 27.42 1487.24 27.42 1493.48 27.42 1499.71 30.85 1499.71 34.28 1499.71 37.71 1499.71 41.14 1499.71 44.56 1499.71 47.99 1499.71 51.42 1499.71 54.85 1499.71 54.85 1493.48 54.85 1487.24 54.85 1481 54.85 1474.76 54.85 1468.53 54.85 1462.29 54.85 1456.05 54.85 1449.81 51.42 1449.81 47.99 1449.81"/>
    <polygon class="st0" points="27.42 1437.34 27.42 1431.1 27.42 1424.86 27.42 1418.62 27.42 1412.38 27.42 1406.15 27.42 1399.91 24 1399.91 20.57 1399.91 17.14 1399.91 13.71 1399.91 10.28 1399.91 6.86 1399.91 3.43 1399.91 0 1399.91 0 1406.15 0 1412.38 0 1418.62 0 1424.86 0 1431.1 0 1437.34 0 1443.57 0 1449.81 3.43 1449.81 6.86 1449.81 10.28 1449.81 13.71 1449.81 17.14 1449.81 20.57 1449.81 24 1449.81 27.42 1449.81 27.42 1443.57 27.42 1437.34"/>
  </g>
  <g>
    <polygon class="st0" points="72.03 1069.72 66.89 1060.26 61.74 1050.79 56.6 1041.33 51.45 1031.86 46.31 1022.39 41.16 1012.93 36.02 1022.39 30.87 1031.86 25.73 1041.33 20.58 1050.79 15.44 1060.26 10.29 1069.72 5.14 1079.19 0 1088.66 10.29 1088.66 20.58 1088.66 30.87 1088.66 41.16 1088.66 51.45 1088.66 61.74 1088.66 72.03 1088.66 82.32 1088.66 77.18 1079.19 72.03 1069.72"/>
    <polygon class="st0" points="154.35 1069.72 149.21 1060.26 144.06 1050.79 138.92 1041.33 133.77 1031.86 128.63 1022.39 123.48 1012.93 118.34 1022.39 113.19 1031.86 108.05 1041.33 102.9 1050.79 97.76 1060.26 92.61 1069.72 87.47 1079.19 82.32 1088.66 92.61 1088.66 102.9 1088.66 113.19 1088.66 123.48 1088.66 133.77 1088.66 144.06 1088.66 154.35 1088.66 164.18 1088.66 164.18 1087.81 159.5 1079.19 154.35 1069.72"/>
  </g>
  <g>
    <polygon class="st0" points="144.54 916.34 134.22 916.34 123.89 916.34 113.57 916.34 103.24 916.34 92.92 916.34 82.59 916.34 87.76 925.81 92.92 935.28 98.08 944.74 103.24 954.21 108.4 963.67 113.57 973.14 118.73 982.6 123.89 992.07 129.05 982.6 134.21 973.14 139.38 963.67 144.54 954.21 149.7 944.74 154.86 935.28 160.03 925.81 164.73 917.19 164.73 916.34 154.86 916.34 144.54 916.34"/>
    <polygon class="st0" points="61.95 916.34 51.62 916.34 41.3 916.34 30.97 916.34 20.65 916.34 10.32 916.34 0 916.34 5.16 925.81 10.32 935.28 15.49 944.74 20.65 954.21 25.81 963.67 30.97 973.14 36.13 982.6 41.3 992.07 46.46 982.6 51.62 973.14 56.78 963.67 61.94 954.21 67.11 944.74 72.27 935.28 77.43 925.81 82.59 916.34 72.27 916.34 61.95 916.34"/>
  </g>
  <polygon class="st0" points="159.37 1134.93 154.29 1141.03 149.22 1147.13 144.14 1153.23 139.06 1159.33 134.05 1165.35 127.21 1165.35 120.16 1165.35 113.11 1165.35 106.06 1165.35 99 1165.35 91.95 1165.35 90.32 1165.35 92.22 1163.03 95.7 1158.78 99.18 1154.53 102.66 1150.29 106.14 1146.04 109.63 1141.79 113.11 1137.54 113.11 1135.69 113.11 1133.84 113.11 1131.98 113.11 1130.13 113.11 1128.28 113.11 1126.43 113.11 1124.58 113.11 1122.73 108.03 1128.83 102.95 1134.93 97.88 1141.03 92.8 1147.13 87.72 1153.23 82.64 1159.33 77.63 1165.35 70.8 1165.35 63.74 1165.35 56.69 1165.35 49.64 1165.35 42.59 1165.35 35.53 1165.35 33.9 1165.35 35.8 1163.03 39.28 1158.78 42.76 1154.53 46.24 1150.29 49.73 1146.04 53.21 1141.79 56.69 1137.54 56.69 1135.69 56.69 1133.84 56.69 1131.98 56.69 1130.13 56.69 1128.28 56.69 1126.43 56.69 1124.58 56.69 1122.73 51.61 1128.83 46.54 1134.93 41.46 1141.03 36.38 1147.13 31.3 1153.23 26.22 1159.33 21.21 1165.35 14.38 1165.35 7.32 1165.35 .27 1165.35 .27 1166.9 .27 1168.44 .27 1169.99 .27 1171.54 .27 1173.08 .27 1174.63 .27 1176.17 .27 1177.72 7.32 1177.72 14.38 1177.72 21.21 1177.72 26.22 1183.73 31.3 1189.83 36.38 1195.94 41.46 1202.04 46.54 1208.14 51.61 1214.24 56.69 1220.34 56.69 1218.49 56.69 1216.64 56.69 1214.79 56.69 1212.94 56.69 1211.08 56.69 1209.23 56.69 1207.38 56.69 1205.53 53.21 1201.28 49.73 1197.03 46.24 1192.78 42.76 1188.53 39.28 1184.28 35.8 1180.03 33.9 1177.72 35.53 1177.72 42.59 1177.72 49.64 1177.72 56.69 1177.72 63.74 1177.72 70.8 1177.72 77.63 1177.72 82.64 1183.73 87.72 1189.83 92.8 1195.94 97.88 1202.04 102.95 1208.14 108.03 1214.24 113.11 1220.34 113.11 1218.49 113.11 1216.64 113.11 1214.79 113.11 1212.94 113.11 1211.08 113.11 1209.23 113.11 1207.38 113.11 1205.53 109.63 1201.28 106.14 1197.03 102.66 1192.78 99.18 1188.53 95.7 1184.28 92.22 1180.03 90.32 1177.72 91.95 1177.72 99 1177.72 106.06 1177.72 113.11 1177.72 120.16 1177.72 127.21 1177.72 134.05 1177.72 139.06 1183.73 144.14 1189.83 149.22 1195.94 154.29 1202.04 159.37 1208.14 164.45 1214.24 164.73 1214.57 164.73 1199.67 162.56 1197.03 159.08 1192.78 155.6 1188.53 152.12 1184.28 148.63 1180.03 146.74 1177.72 148.37 1177.72 155.42 1177.72 162.47 1177.72 164.73 1177.72 164.73 1165.35 162.47 1165.35 155.42 1165.35 148.37 1165.35 146.73 1165.35 148.63 1163.03 152.12 1158.78 155.6 1154.53 159.08 1150.29 162.56 1146.04 164.73 1143.39 164.73 1128.5 164.45 1128.83 159.37 1134.93"/>
  <path class="st0" d="M161.5,268.75h-7.82c-1.3.13-2.64.18-4.01.17-1.37,0-2.77-.05-4.19-.11-1.42-.05-2.86-.11-4.32-.12-1.45-.01-2.92.02-4.4.13-1.47.12-2.95.32-4.43.65-1.48.33-2.95.8-4.41,1.44-1.46.64-2.91,1.46-4.35,2.5-1.43,1.04-2.85,2.3-4.24,3.82-1.29,1.42-2.42,2.94-3.39,4.55-.19.31-.37.63-.54.96-.88-1.76-1.91-3.42-3.12-4.93-2.18-2.72-4.9-4.98-8.15-6.57-3.26-1.59-7.05-2.49-11.37-2.49h-15.65c-1.3.13-2.64.18-4.01.17-1.37,0-2.77-.05-4.19-.11-1.42-.05-2.86-.11-4.32-.12-1.45-.01-2.92.02-4.4.13-1.47.12-2.95.32-4.43.65-1.48.33-2.95.8-4.41,1.44-1.46.64-2.91,1.46-4.35,2.5-1.43,1.04-2.85,2.3-4.24,3.82-1.29,1.42-2.42,2.94-3.39,4.55-.19.31-.37.63-.54.96-.88-1.76-1.91-3.42-3.12-4.93-2.18-2.72-4.9-4.98-8.15-6.57-3.26-1.59-7.05-2.49-11.37-2.49H.55v8.41h15.65c3.06,0,5.75.64,8.06,1.77,2.31,1.13,4.24,2.73,5.78,4.66,1.55,1.93,2.71,4.18,3.5,6.59.78,2.41,1.18,4.98,1.19,7.56.01,2.57-.36,5.15-1.12,7.56-.76,2.41-1.91,4.66-3.45,6.59-1.54,1.93-3.47,3.54-5.8,4.66-2.32,1.13-5.04,1.77-8.16,1.77H.55v8.41h15.65c4.38,0,8.21-.91,11.48-2.49,3.27-1.59,6-3.85,8.17-6.57,1.19-1.49,2.2-3.11,3.06-4.83.16.28.32.57.48.85.97,1.61,2.1,3.13,3.39,4.55,1.4,1.53,2.81,2.79,4.25,3.84s2.88,1.86,4.34,2.5c1.46.64,2.92,1.11,4.39,1.44,1.47.33,2.94.53,4.4.65,1.47.11,2.93.14,4.38.13,1.45-.02,2.89-.07,4.31-.13s2.83-.11,4.21-.11c1.38,0,2.74.04,4.06.18h15.65c4.38,0,8.21-.91,11.48-2.49,3.28-1.59,6-3.85,8.17-6.57,1.19-1.49,2.2-3.11,3.06-4.83.16.28.32.57.48.85.97,1.61,2.1,3.13,3.39,4.55,1.4,1.53,2.81,2.79,4.25,3.84,1.43,1.04,2.88,1.86,4.34,2.5,1.46.64,2.92,1.11,4.39,1.44,1.47.33,2.94.53,4.4.65s2.93.14,4.38.13,2.89-.07,4.31-.13,2.83-.11,4.21-.11c1.38,0,2.74.04,4.06.18h11.32v-8.41h-11.32c-1.42-.12-2.81-.16-4.17-.17s-2.69.04-3.99.08c-1.3.05-2.57.1-3.82.12-1.25.03-2.47.02-3.66-.04-1.2-.07-2.37-.19-3.51-.42-1.15-.23-2.27-.55-3.38-1.01-1.1-.46-2.19-1.04-3.25-1.8-1.06-.76-2.11-1.68-3.13-2.8-1.48-1.63-2.65-3.4-3.51-5.25-.87-1.85-1.44-3.78-1.74-5.73-.3-1.95-.34-3.92-.12-5.86.21-1.93.67-3.82,1.36-5.61.68-1.79,1.59-3.48,2.69-5,1.1-1.53,2.4-2.89,3.88-4.03,1.47-1.14,3.12-2.05,4.92-2.68,1.8-.63,3.74-.98,5.81-.98h26.96v-8.41h-3.5ZM110.17,305.3c-.76,2.41-1.91,4.66-3.45,6.59-1.54,1.93-3.47,3.54-5.8,4.66-2.32,1.13-5.04,1.77-8.16,1.77h-15.65c-1.42-.12-2.81-.16-4.17-.17s-2.69.04-3.99.08-2.57.1-3.82.12c-1.25.03-2.47.02-3.66-.04-1.2-.07-2.37-.19-3.51-.42s-2.27-.55-3.38-1.01c-1.1-.46-2.19-1.04-3.25-1.8-1.06-.76-2.11-1.68-3.13-2.8-1.48-1.63-2.65-3.4-3.51-5.25-.87-1.85-1.44-3.78-1.74-5.73-.3-1.95-.34-3.92-.12-5.86.21-1.93.67-3.82,1.36-5.61.68-1.79,1.59-3.48,2.69-5,1.1-1.53,2.4-2.89,3.88-4.03,1.47-1.14,3.12-2.05,4.92-2.68s3.74-.98,5.81-.98h31.29c3.06,0,5.75.64,8.06,1.77,2.31,1.13,4.24,2.73,5.78,4.66,1.55,1.93,2.71,4.18,3.5,6.59.78,2.41,1.18,4.98,1.19,7.56.01,2.57-.36,5.15-1.12,7.56Z"/>
  <polygon class="st0" points="159.36 122 154.28 128.1 149.19 134.2 144.1 140.3 139.02 146.4 134 152.43 127.15 152.43 120.09 152.43 113.02 152.43 105.96 152.43 98.9 152.43 91.83 152.43 90.19 152.43 92.1 150.11 95.58 145.86 99.07 141.61 102.56 137.36 106.05 133.11 109.54 128.86 113.02 124.61 113.02 122.76 113.02 120.91 113.02 119.05 113.02 117.2 113.02 115.35 113.02 113.5 113.02 111.65 113.02 109.8 107.94 115.9 102.85 122 97.76 128.1 92.68 134.2 87.59 140.3 82.51 146.4 77.49 152.43 70.64 152.43 63.58 152.43 56.51 152.43 49.45 152.43 42.38 152.43 35.32 152.43 33.68 152.43 35.58 150.11 39.07 145.86 42.56 141.61 46.05 137.36 49.54 133.11 53.02 128.86 56.51 124.61 56.51 122.76 56.51 120.91 56.51 119.05 56.51 117.2 56.51 115.35 56.51 113.5 56.51 111.65 56.51 109.8 51.43 115.9 46.34 122 41.25 128.1 36.17 134.2 31.08 140.3 25.99 146.4 20.97 152.43 14.13 152.43 7.06 152.43 0 152.43 0 153.97 0 155.52 0 157.06 0 158.61 0 160.15 0 161.7 0 163.24 0 164.79 7.06 164.79 14.13 164.79 20.98 164.79 25.99 170.81 31.08 176.91 36.17 183.01 41.25 189.11 46.34 195.21 51.43 201.31 56.51 207.41 56.51 205.56 56.51 203.71 56.51 201.86 56.51 200.01 56.51 198.16 56.51 196.3 56.51 194.45 56.51 192.6 53.02 188.35 49.54 184.1 46.05 179.85 42.56 175.6 39.07 171.35 35.58 167.1 33.68 164.79 35.32 164.79 42.38 164.79 49.45 164.79 56.51 164.79 63.58 164.79 70.64 164.79 77.49 164.79 82.51 170.81 87.59 176.91 92.68 183.01 97.76 189.11 102.85 195.21 107.94 201.31 113.02 207.41 113.02 205.56 113.02 203.71 113.02 201.86 113.02 200.01 113.02 198.16 113.02 196.3 113.02 194.45 113.02 192.6 109.54 188.35 106.05 184.1 102.56 179.85 99.07 175.6 95.58 171.35 92.1 167.1 90.19 164.79 91.83 164.79 98.9 164.79 105.96 164.79 113.02 164.79 120.09 164.79 127.15 164.79 134 164.79 139.02 170.81 144.1 176.91 149.19 183.01 154.28 189.11 159.36 195.21 164.45 201.31 164.73 201.64 164.73 186.75 162.56 184.1 159.07 179.85 155.58 175.6 152.1 171.35 148.61 167.1 146.71 164.79 148.34 164.79 155.41 164.79 162.47 164.79 164.73 164.79 164.73 152.43 162.47 152.43 155.41 152.43 148.34 152.43 146.7 152.43 148.61 150.11 152.1 145.86 155.58 141.61 159.07 137.36 162.56 133.11 164.73 130.46 164.73 115.57 164.45 115.9 159.36 122"/>
  <g>
    <polygon class="st0" points="72.38 56.79 67.24 47.33 62.1 37.86 56.96 28.4 51.82 18.93 46.68 9.47 41.54 0 36.39 9.47 31.25 18.93 26.11 28.4 20.97 37.86 15.83 47.33 10.69 56.79 5.55 66.26 .41 75.73 10.69 75.73 20.97 75.73 31.25 75.73 41.54 75.73 51.82 75.73 62.1 75.73 72.38 75.73 82.66 75.73 77.52 66.26 72.38 56.79"/>
    <polygon class="st0" points="159.77 66.26 154.63 56.79 149.49 47.33 144.35 37.86 139.21 28.4 134.07 18.93 128.93 9.47 123.79 0 118.65 9.47 113.51 18.93 108.37 28.4 103.22 37.86 98.08 47.33 92.94 56.79 87.8 66.26 82.66 75.73 92.94 75.73 103.22 75.73 113.51 75.73 123.79 75.73 134.07 75.73 144.35 75.73 154.63 75.73 164.45 75.73 164.45 74.88 159.77 66.26"/>
  </g>
  <g>
    <polygon class="st0" points="103.06 436.88 99.63 436.88 96.2 436.88 92.78 436.88 89.35 436.88 85.93 436.88 82.5 436.88 82.5 443.12 82.5 449.36 82.5 455.6 82.5 461.83 82.5 468.07 82.5 474.31 82.5 480.55 82.5 486.79 85.93 486.79 89.35 486.79 92.78 486.79 96.2 486.79 99.63 486.79 103.06 486.79 106.48 486.79 109.91 486.79 109.91 480.55 109.91 474.31 109.91 468.07 109.91 461.83 109.91 455.6 109.91 449.36 109.91 443.12 109.91 436.88 106.48 436.88 103.06 436.88"/>
    <polygon class="st0" points="157.87 436.88 154.45 436.88 151.02 436.88 147.6 436.88 144.17 436.88 140.74 436.88 137.32 436.88 137.32 443.12 137.32 449.36 137.32 455.6 137.32 461.83 137.32 468.07 137.32 474.31 137.32 480.55 137.32 486.79 140.74 486.79 144.17 486.79 147.6 486.79 151.02 486.79 154.45 486.79 157.87 486.79 161.3 486.79 164.73 486.79 164.73 480.55 164.73 474.31 164.73 468.07 164.73 461.83 164.73 455.6 164.73 449.36 164.73 443.12 164.73 436.88 161.3 436.88 157.87 436.88"/>
    <polygon class="st0" points="137.32 424.41 137.32 418.17 137.32 411.93 137.32 405.69 137.32 399.45 137.32 393.22 137.32 386.98 133.89 386.98 130.47 386.98 127.04 386.98 123.61 386.98 120.19 386.98 116.76 386.98 113.34 386.98 109.91 386.98 109.91 393.22 109.91 399.45 109.91 405.69 109.91 411.93 109.91 418.17 109.91 424.41 109.91 430.64 109.91 436.88 113.34 436.88 116.76 436.88 120.19 436.88 123.61 436.88 127.04 436.88 130.47 436.88 133.89 436.88 137.32 436.88 137.32 430.64 137.32 424.41"/>
    <polygon class="st0" points="27.68 424.41 27.68 418.17 27.68 411.93 27.68 405.69 27.68 399.45 27.68 393.22 27.68 386.98 24.26 386.98 20.83 386.98 17.4 386.98 13.98 386.98 10.55 386.98 7.12 386.98 3.7 386.98 .27 386.98 .27 393.22 .27 399.45 .27 405.69 .27 411.93 .27 418.17 .27 424.41 .27 430.64 .27 436.88 3.7 436.88 7.12 436.88 10.55 436.88 13.98 436.88 17.4 436.88 20.83 436.88 24.26 436.88 27.68 436.88 27.68 430.64 27.68 424.41"/>
    <polygon class="st0" points="48.24 436.88 44.81 436.88 41.39 436.88 37.96 436.88 34.53 436.88 31.11 436.88 27.68 436.88 27.68 443.12 27.68 449.36 27.68 455.6 27.68 461.83 27.68 468.07 27.68 474.31 27.68 480.55 27.68 486.79 31.11 486.79 34.53 486.79 37.96 486.79 41.39 486.79 44.81 486.79 48.24 486.79 51.66 486.79 55.09 486.79 55.09 480.55 55.09 474.31 55.09 468.07 55.09 461.83 55.09 455.6 55.09 449.36 55.09 443.12 55.09 436.88 51.66 436.88 48.24 436.88"/>
    <polygon class="st0" points="82.5 424.41 82.5 418.17 82.5 411.93 82.5 405.69 82.5 399.45 82.5 393.22 82.5 386.98 79.07 386.98 75.65 386.98 72.22 386.98 68.8 386.98 65.37 386.98 61.94 386.98 58.52 386.98 55.09 386.98 55.09 393.22 55.09 399.45 55.09 405.69 55.09 411.93 55.09 418.17 55.09 424.41 55.09 430.64 55.09 436.88 58.52 436.88 61.94 436.88 65.37 436.88 68.8 436.88 72.22 436.88 75.65 436.88 79.07 436.88 82.5 436.88 82.5 430.64 82.5 424.41"/>
  </g>
  <path class="st0" d="M164.45,619.26h-32.4c.09-1.8.32-3.57.69-5.29.48-2.25,1.2-4.43,2.12-6.5s2.04-4.04,3.35-5.89c1.3-1.84,2.79-3.56,4.43-5.13,1.64-1.57,3.44-2.99,5.37-4.24,1.93-1.25,3.99-2.32,6.16-3.2,2.17-.88,4.45-1.56,6.81-2.02,1.14-.22,2.3-.39,3.47-.51v-20.93c-1.17-.12-2.33-.29-3.47-.51-2.36-.46-4.64-1.15-6.81-2.02-2.17-.88-4.23-1.95-6.16-3.2-1.93-1.25-3.73-2.67-5.37-4.24-1.64-1.57-3.13-3.29-4.43-5.13-1.31-1.84-2.43-3.81-3.35-5.89s-1.63-4.25-2.12-6.5c-.37-1.72-.6-3.49-.69-5.29h32.4v-12.16H.27v12.16h36.23c-.09,1.8-.32,3.57-.69,5.29-.48,2.25-1.2,4.43-2.12,6.5-.92,2.07-2.04,4.04-3.35,5.89-1.31,1.84-2.79,3.56-4.43,5.13-1.64,1.57-3.44,2.99-5.37,4.24-1.93,1.25-3.99,2.32-6.16,3.2-2.17.88-4.45,1.56-6.81,2.02s-4.8.71-7.3.71v9.58H.27v1.37H.27v9.59c2.5,0,4.94.24,7.3.71,2.36.46,4.64,1.15,6.81,2.02,2.17.88,4.23,1.95,6.16,3.2,1.93,1.25,3.73,2.67,5.37,4.24s3.13,3.29,4.43,5.13c1.31,1.84,2.43,3.81,3.35,5.89.92,2.07,1.63,4.25,2.12,6.5.37,1.72.6,3.49.69,5.29H.27v12.16h164.18v-12.16ZM52.78,532.78h67.73c-.09,1.8-.32,3.57-.69,5.29-.48,2.25-1.2,4.43-2.12,6.5-.92,2.07-2.04,4.04-3.35,5.89-1.31,1.84-2.79,3.56-4.43,5.13-1.64,1.57-3.44,2.99-5.37,4.24s-3.99,2.32-6.16,3.2c-2.17.88-4.45,1.56-6.81,2.02s-4.8.71-7.3.71-4.94-.24-7.3-.71c-2.36-.46-4.64-1.15-6.8-2.02-2.17-.88-4.23-1.95-6.16-3.2-1.93-1.25-3.73-2.67-5.37-4.24-1.64-1.57-3.13-3.29-4.43-5.13-1.31-1.84-2.43-3.81-3.35-5.89-.92-2.07-1.63-4.25-2.12-6.5-.37-1.72-.6-3.49-.69-5.29h4.73ZM42.28,599.31c-1.01-1.78-2.14-3.49-3.38-5.12-1.24-1.63-2.59-3.18-4.04-4.64s-3-2.82-4.64-4.09c-1.64-1.27-3.37-2.43-5.17-3.48-1.81-1.05-3.69-1.99-5.64-2.81-1.95-.82-3.97-1.52-6.05-2.08-1.63-.45-3.31-.78-5.01-1.06,1.7-.28,3.37-.62,5.01-1.06,2.08-.57,4.1-1.27,6.05-2.09,1.95-.82,3.84-1.76,5.64-2.81,1.81-1.05,3.53-2.22,5.17-3.48,1.64-1.27,3.19-2.63,4.64-4.09,1.45-1.46,2.8-3.01,4.04-4.64,1.24-1.63,2.37-3.34,3.38-5.12,1.01,1.78,2.14,3.49,3.38,5.12,1.24,1.63,2.59,3.18,4.04,4.64,1.45,1.46,3,2.82,4.64,4.09,1.64,1.27,3.37,2.43,5.17,3.48,1.81,1.05,3.69,1.99,5.64,2.81,1.95.82,3.97,1.52,6.05,2.09,1.63.45,3.31.78,5.01,1.06-1.7.28-3.37.62-5.01,1.06-2.08.57-4.1,1.26-6.05,2.08-1.95.82-3.84,1.76-5.64,2.81-1.81,1.05-3.53,2.22-5.17,3.48-1.64,1.27-3.19,2.63-4.64,4.09s-2.8,3.01-4.04,4.64c-1.24,1.63-2.37,3.34-3.38,5.12ZM115.78,619.26H48.05c.09-1.8.32-3.57.69-5.29.48-2.25,1.2-4.43,2.12-6.5.92-2.07,2.04-4.04,3.35-5.89,1.31-1.84,2.79-3.56,4.43-5.13,1.64-1.57,3.44-2.99,5.37-4.24,1.93-1.25,3.99-2.32,6.16-3.2,2.17-.88,4.45-1.56,6.8-2.02,2.36-.46,4.8-.71,7.3-.71s4.94.24,7.3.71c2.36.46,4.64,1.15,6.81,2.02,2.17.88,4.23,1.95,6.16,3.2,1.93,1.25,3.73,2.67,5.37,4.24,1.64,1.57,3.13,3.29,4.43,5.13,1.3,1.84,2.43,3.81,3.35,5.89.92,2.07,1.63,4.25,2.12,6.5.37,1.72.6,3.49.69,5.29h-4.73ZM126.28,599.31c-1.01-1.78-2.14-3.49-3.38-5.12-1.24-1.63-2.59-3.18-4.04-4.64s-3-2.82-4.64-4.09c-1.64-1.27-3.37-2.43-5.17-3.48-1.81-1.05-3.69-1.99-5.64-2.81-1.95-.82-3.97-1.52-6.05-2.08-1.63-.45-3.31-.78-5.01-1.06,1.7-.28,3.37-.62,5.01-1.06,2.08-.57,4.1-1.27,6.05-2.09,1.95-.82,3.84-1.76,5.64-2.81,1.81-1.05,3.53-2.22,5.17-3.48,1.64-1.27,3.19-2.63,4.64-4.09,1.45-1.46,2.8-3.01,4.04-4.64,1.24-1.63,2.37-3.34,3.38-5.12,1.01,1.78,2.14,3.49,3.38,5.12,1.24,1.63,2.59,3.18,4.04,4.64,1.45,1.46,3,2.82,4.64,4.09,1.64,1.27,3.37,2.43,5.17,3.48,1.81,1.05,3.69,1.99,5.64,2.81,1.95.82,3.97,1.52,6.05,2.09,1.63.45,3.31.78,5.01,1.06-1.7.28-3.37.62-5.01,1.06-2.08.57-4.1,1.26-6.05,2.08-1.95.82-3.84,1.76-5.64,2.81-1.81,1.05-3.53,2.22-5.17,3.48-1.64,1.27-3.19,2.63-4.64,4.09-1.45,1.46-2.8,3.01-4.04,4.64-1.24,1.63-2.37,3.34-3.38,5.12Z"/>
  <path class="st0" d="M164.73,856.16h-33.9c.09-1.97.32-3.9.69-5.78.48-2.46,1.19-4.84,2.1-7.11.91-2.27,2.02-4.42,3.32-6.43,1.29-2.02,2.76-3.89,4.39-5.61,1.63-1.72,3.41-3.27,5.32-4.63,1.91-1.36,3.96-2.54,6.1-3.5,2.15-.96,4.4-1.71,6.74-2.21,1.71-.37,3.46-.61,5.24-.71v-11.98c-1.56.07-3.1.21-4.62.44-2.16.32-4.28.8-6.34,1.42s-4.06,1.38-6,2.28c-1.93.9-3.8,1.92-5.59,3.08-1.79,1.15-3.5,2.42-5.12,3.81-1.62,1.38-3.16,2.88-4.6,4.47-1.44,1.59-2.77,3.29-4,5.07-1.23,1.78-2.35,3.65-3.35,5.6-1-1.95-2.12-3.82-3.35-5.6s-2.57-3.48-4-5.07-2.97-3.09-4.6-4.47c-1.62-1.38-3.33-2.66-5.12-3.81-1.79-1.15-3.66-2.18-5.59-3.08-1.93-.9-3.94-1.66-6-2.28s-4.17-1.1-6.34-1.42-4.37-.49-6.62-.49-4.45.17-6.62.49c-2.16.32-4.28.8-6.34,1.42-2.06.62-4.06,1.38-6,2.28-1.93.9-3.8,1.92-5.59,3.08-1.79,1.15-3.5,2.42-5.12,3.81-1.62,1.38-3.16,2.88-4.6,4.47-1.44,1.59-2.77,3.29-4,5.07s-2.35,3.65-3.35,5.6c-1-1.95-2.12-3.82-3.35-5.6s-2.57-3.48-4-5.07c-1.44-1.59-2.97-3.09-4.6-4.47-1.62-1.38-3.34-2.66-5.12-3.81-1.79-1.15-3.66-2.18-5.59-3.08-1.93-.9-3.94-1.66-5.99-2.28-2.06-.62-4.17-1.1-6.34-1.42-2.16-.32-4.37-.49-6.62-.49v11.97c2.48,0,4.9.27,7.23.77,2.34.51,4.59,1.25,6.74,2.21,2.15.96,4.19,2.13,6.1,3.5,1.91,1.36,3.69,2.92,5.32,4.63,1.63,1.71,3.1,3.59,4.39,5.61,1.29,2.02,2.41,4.17,3.32,6.43.91,2.26,1.62,4.64,2.1,7.11.37,1.88.6,3.81.69,5.78H.27v13.29h164.45v-13.29ZM114.71,856.16H47.6c.09-1.97.32-3.9.69-5.78.48-2.46,1.19-4.84,2.1-7.11.91-2.27,2.02-4.42,3.32-6.43,1.29-2.02,2.77-3.89,4.39-5.61,1.63-1.72,3.41-3.27,5.32-4.63,1.91-1.36,3.95-2.54,6.1-3.5,2.15-.96,4.4-1.71,6.74-2.21,2.34-.51,4.76-.77,7.23-.77s4.9.27,7.23.77c2.34.51,4.59,1.25,6.74,2.21,2.15.96,4.19,2.13,6.1,3.5,1.91,1.36,3.69,2.92,5.32,4.63,1.63,1.71,3.1,3.59,4.39,5.61,1.29,2.02,2.41,4.17,3.32,6.43.91,2.26,1.62,4.64,2.1,7.11.37,1.88.6,3.81.69,5.78h-4.69Z"/>
  <path class="st0" d="M164.91,1866.74h-33.93c.09-1.97.32-3.9.69-5.78.48-2.46,1.19-4.84,2.1-7.11.91-2.27,2.03-4.42,3.32-6.43,1.29-2.02,2.77-3.89,4.4-5.61,1.63-1.72,3.41-3.27,5.32-4.63,1.91-1.36,3.96-2.54,6.11-3.5,2.15-.96,4.41-1.71,6.75-2.21,1.71-.37,3.46-.61,5.24-.71v-11.98c-1.56.07-3.11.21-4.63.44-2.16.32-4.28.8-6.34,1.42s-4.06,1.38-6,2.28c-1.94.9-3.81,1.92-5.6,3.08-1.79,1.15-3.5,2.42-5.13,3.81-1.62,1.38-3.16,2.88-4.6,4.47-1.44,1.59-2.78,3.29-4.01,5.07-1.23,1.78-2.35,3.65-3.35,5.6-1-1.95-2.12-3.82-3.35-5.6s-2.57-3.48-4.01-5.07-2.97-3.09-4.6-4.47c-1.62-1.38-3.34-2.66-5.13-3.81-1.79-1.15-3.66-2.18-5.6-3.08-1.94-.9-3.94-1.66-6-2.28s-4.18-1.1-6.34-1.42-4.37-.49-6.62-.49-4.46.17-6.62.49c-2.16.32-4.28.8-6.34,1.42-2.06.62-4.06,1.38-6,2.28-1.94.9-3.8,1.92-5.6,3.08-1.79,1.15-3.5,2.42-5.13,3.81-1.62,1.38-3.16,2.88-4.6,4.47-1.44,1.59-2.78,3.29-4.01,5.07s-2.35,3.65-3.35,5.6c-1-1.95-2.12-3.82-3.35-5.6s-2.57-3.48-4.01-5.07c-1.44-1.59-2.97-3.09-4.6-4.47-1.62-1.38-3.34-2.66-5.13-3.81-1.79-1.15-3.66-2.18-5.6-3.08-1.94-.9-3.94-1.66-6-2.28-2.06-.62-4.18-1.1-6.34-1.42-2.16-.32-4.37-.49-6.62-.49v11.97c2.48,0,4.9.27,7.24.77,2.34.51,4.6,1.25,6.75,2.21,2.15.96,4.2,2.13,6.11,3.5,1.91,1.36,3.7,2.92,5.33,4.63,1.63,1.71,3.1,3.59,4.4,5.61,1.29,2.02,2.41,4.17,3.32,6.43.91,2.26,1.62,4.64,2.1,7.11.37,1.88.6,3.81.69,5.78H.32v13.29h164.59v-13.29ZM114.85,1866.74H47.69c.09-1.97.32-3.9.69-5.78.48-2.46,1.19-4.84,2.1-7.11.91-2.27,2.03-4.42,3.32-6.43,1.29-2.02,2.77-3.89,4.4-5.61,1.63-1.72,3.41-3.27,5.32-4.63,1.91-1.36,3.96-2.54,6.11-3.5,2.15-.96,4.41-1.71,6.75-2.21,2.34-.51,4.76-.77,7.24-.77s4.9.27,7.24.77c2.34.51,4.6,1.25,6.75,2.21,2.15.96,4.19,2.13,6.11,3.5,1.91,1.36,3.7,2.92,5.32,4.63,1.63,1.71,3.1,3.59,4.4,5.61,1.29,2.02,2.41,4.17,3.32,6.43.91,2.26,1.62,4.64,2.1,7.11.37,1.88.6,3.81.69,5.78h-4.69Z"/>
</svg>
